<?xml version="1.0" encoding="UTF-8"?>
<svg width="391px" height="434px" viewBox="0 0 391 434" version="1.1" xmlns="http://www.w3.org/2000/svg" xmlns:xlink="http://www.w3.org/1999/xlink">
    <!-- Generator: Sketch 60.1 (88133) - https://sketch.com -->
    <title>logo_color</title>
    <desc>Created with Sketch.</desc>
    <defs>
        <polygon id="path-1" points="219.73508 0 304.575066 48.5931413 304.640054 48.5907684 373.897931 88.2584337 391 98.0547199 391 196.979875 390.966904 197.032392 390.967792 294.217239 325.698279 256.834974 264.538614 221.806738 298.895045 202.129801 356.758835 235.271105 356.758835 197.024025 356.726309 197.021339 356.726309 137.27727 279.866794 181.298798 212.587788 219.831819 212.587217 328.409384 212.587788 384.938757 264.742645 355.068227 264.760397 355.098638 298.154815 335.973349 240.287731 302.83292 240.288364 263.478984 301.449806 298.505658 366.716591 335.88886 341.018028 350.60783 281.873879 384.478454 281.842304 384.538752 212.587788 424.203158 195.482992 434 109.126406 384.538752 109.092993 384.481139 49.9524585 350.60783 24.2520815 335.887986 89.5180172 298.508094 150.679459 263.478359 150.679459 302.831983 92.8171919 335.976035 126.202291 355.098638 126.22334 355.068789 178.380923 384.943234 178.380923 328.410259 178.378196 300.010171 178.377309 219.831819 111.101854 181.297862 34.2405887 137.278206 34.2420914 197.024961 34.2038721 197.025524 34.2071817 235.271105 92.0709386 202.129801 126.427371 221.806738 65.2652953 256.836472 0 294.217239 0 98.0681457 17.0972759 88.2763557 86.388509 48.5907684 145.528155 14.7183461 171.227607 0 171.231792 74.7618445 171.229383 144.820066 136.87295 125.142192 136.87295 58.8607703 103.481257 77.9851846 103.50085 78.0120364 51.3435772 107.884664 100.694507 136.152803 125.489134 150.354159 195.482104 190.44065 262.76111 151.907629 339.620626 107.886163 287.46336 78.0120364 287.48143 77.9842479 254.088786 58.8589593 254.089737 125.144002 219.734192 144.821002 219.732354 74.7618445"></polygon>
        <linearGradient x1="31.9524349%" y1="16.4344899%" x2="69.8402432%" y2="87.3450431%" id="linearGradient-3">
            <stop stop-color="#346AB3" offset="0%"></stop>
            <stop stop-color="#36C6F5" offset="100%"></stop>
        </linearGradient>
    </defs>
    <g id="Page-1" stroke="none" stroke-width="1" fill="none" fill-rule="evenodd">
        <g id="logo_color">
            <mask id="mask-2" fill="white">
                <use xlink:href="#path-1"></use>
            </mask>
            <g id="path-1"></g>
            <polygon id="Fill-1" fill="url(#linearGradient-3)" fill-rule="nonzero" mask="url(#mask-2)" points="0 434 391 434 391 0 0 0"></polygon>
        </g>
    </g>
</svg>