<?xml version="1.0" encoding="UTF-8"?>
<svg width="156px" height="175px" viewBox="0 0 156 175" version="1.1" xmlns="http://www.w3.org/2000/svg" xmlns:xlink="http://www.w3.org/1999/xlink">
    <!-- Generator: Sketch 60.1 (88133) - https://sketch.com -->
    <title>foundation_color</title>
    <desc>Created with Sketch.</desc>
    <defs>
        <path d="M132.47556,127.417388 L146.252849,135.411331 L136.02493,141.345195 L112.485831,154.999899 L112.473256,155.024206 L84.9102702,171.014642 L78.1026388,174.964174 L43.7330724,155.024206 L43.719809,155.000982 L20.1821263,141.345195 L9.95349391,135.410968 L22.4361431,128.168321 L70.638172,154.805258 L71.2960575,155.18727 L71.295913,155.168227 L78.1093793,158.934 L84.9095093,154.992176 L84.9102702,155.185466 L105.667653,143.14336 L105.67472,143.155636 L118.965535,135.445381 L118.796733,135.347286 L131.180735,128.168321 L132.47556,127.417388 Z M87.7548619,0 L121.520793,19.5900104 L121.546668,19.5890323 L149.110957,35.580794 L155.917502,39.5300938 L155.917502,79.4111306 L155.904348,79.4322861 L155.90471,118.611727 L142.361236,110.754495 L142.361526,47.2705741 L87.7535575,15.7511226 L87.7548619,0 Z M68.4496903,0 L68.4496903,15.7924184 L54.775212,23.7310103 L54.7761179,23.7293078 L41.4863543,31.4392145 L41.4899419,31.4435615 L20.7357879,43.4929784 L13.9288736,47.2705741 L13.9288736,55.3427984 L13.3897656,111.017485 L0.301273034,118.611727 L0.301273034,39.5355276 L7.10591259,35.5880389 L34.6835095,19.5890323 L58.2208294,5.93364005 L68.4496903,0 Z" id="path-1"></path>
        <linearGradient x1="32.037718%" y1="16.3246832%" x2="69.2653593%" y2="87.3372671%" id="linearGradient-3">
            <stop stop-color="#346AB3" offset="0%"></stop>
            <stop stop-color="#36C6F5" offset="100%"></stop>
        </linearGradient>
        <linearGradient x1="37.2661362%" y1="36.9062689%" x2="82.9963426%" y2="92.3856576%" id="linearGradient-4">
            <stop stop-color="#346AB3" offset="0%"></stop>
            <stop stop-color="#36C5F4" offset="100%"></stop>
        </linearGradient>
        <linearGradient x1="37.2661362%" y1="36.3211457%" x2="82.9963426%" y2="94.2797573%" id="linearGradient-5">
            <stop stop-color="#346AB3" offset="0%"></stop>
            <stop stop-color="#36C5F4" offset="100%"></stop>
        </linearGradient>
    </defs>
    <g id="Page-1" stroke="none" stroke-width="1" fill="none" fill-rule="evenodd">
        <g id="foundation_color">
            <g id="OUTLINE">
                <g id="Fill-1-Clipped">
                    <mask id="mask-2" fill="white">
                        <use xlink:href="#path-1"></use>
                    </mask>
                    <g id="path-1"></g>
                    <polygon id="Fill-1" fill="url(#linearGradient-3)" fill-rule="nonzero" mask="url(#mask-2)" points="0.301273034 174.964174 156.854374 174.964174 156.854374 0 0.301273034 0"></polygon>
                </g>
            </g>
            <g id="INSIDE-SHAPE" transform="translate(42.718826, 52.995643)" fill="url(#linearGradient-5)" fill-rule="nonzero">
                <path d="M5.61368212,16.5775384 L5.85876728,16.5884784 C8.04271922,16.7480471 9.75211954,18.5386952 9.83989109,20.7102793 L9.84322507,20.9286766 L9.69971803,35.4240418 L15.9613345,43.4658732 C16.9109813,44.6855149 18.4562185,45.2110956 19.8973766,44.9295591 L20.1239439,44.8784103 L13.3109487,36.0065676 C12.1151293,34.4493139 12.313865,32.1933626 13.7635032,30.8704815 C14.5370999,30.1642132 15.5386413,29.8155526 16.5818213,29.8885447 C17.5453837,29.9559224 18.4229871,30.3742788 19.0781184,31.0731575 L19.237172,31.2537003 L29.5292701,43.6832564 C31.1458257,45.6356101 32.057675,48.0833336 32.1186291,50.613468 L32.1213833,50.9935348 L31.9614238,67.4994669 C31.9554805,68.1135435 31.4906047,68.6161946 30.8952321,68.6812538 L30.7657856,68.6883899 L13.6284396,68.7117548 C13.2917782,68.7117548 12.9718951,68.5708776 12.7450383,68.3232472 C12.5503251,68.110573 12.4396147,67.8360278 12.4303375,67.5506516 L12.4342512,67.4072755 L13.1337392,59.3278431 L1.75696735,44.1662011 C0.58357998,42.6022097 -0.0246213007,40.6873845 0.0261858778,38.7378921 L0.0434721271,38.3720251 L1.25940402,20.5912458 C1.3382603,19.4394888 1.860575,18.3883995 2.72995232,17.6317068 C3.47553621,16.9829989 4.39938079,16.6186535 5.37008259,16.5802915 L5.61368212,16.5775384 Z M67.5513794,17.2442861 C68.358679,17.9469321 68.8666791,18.9034028 68.9983,19.9586215 L69.0219277,20.2038251 L70.237715,37.9847855 C70.3794824,40.0593972 69.7709546,42.1172004 68.5238933,43.7787804 C67.1465521,45.6143467 66.1135552,46.9910576 65.4249029,47.9088403 C63.6511051,50.2727403 61.0221371,53.7763707 57.5379244,58.4197681 L57.1472664,58.9403862 L57.8467906,67.0198548 C57.8759996,67.3555472 57.7631144,67.6876892 57.5359673,67.9358266 C57.3416893,68.1480654 57.0788835,68.2819152 56.7956741,68.3157851 L56.6525656,68.3243338 L39.5152196,68.3009692 C38.9028868,68.3000633 38.3976047,67.8383104 38.3277716,67.2418021 L38.3195818,67.1120459 L38.1598031,50.6061142 C38.1353057,48.068663 38.9690231,45.5930466 40.5147314,43.5921881 L40.7519166,43.2956908 L51.0439785,30.8664245 C51.7125182,30.0591621 52.655497,29.5744426 53.6993292,29.5013052 C54.7436688,29.427987 55.7442318,29.7769374 56.5179735,30.4832058 C57.9136158,31.7569305 58.1496049,33.8960939 57.0973647,35.4433131 L56.9702381,35.6191469 L50.1573878,44.4909897 C51.5865511,44.8582331 53.1547637,44.4114043 54.1650384,43.265226 L54.319816,43.0784526 L60.5814687,35.0366211 L60.4379621,20.541256 C60.4156022,18.2724813 62.1658444,16.3659516 64.4225644,16.2010577 C65.5706565,16.1170169 66.6818579,16.4875934 67.5513794,17.2442861 Z M5.54330553,18.9781339 C5.08582275,18.9781339 4.64856123,19.1412529 4.29946947,19.4450674 C3.96255409,19.7382321 3.74345228,20.1311589 3.67053926,20.5664682 L3.6483247,20.7554876 L2.43239243,38.536448 C2.33686627,39.9353283 2.71335453,41.3237398 3.49648254,42.4787928 L3.67050302,42.72262 L15.3229821,58.2517948 C15.4710189,58.4489286 15.5540067,58.6860182 15.5627766,58.9302793 L15.5590799,59.0774593 L14.9329764,66.3088047 L29.5785913,66.2888089 L29.727027,50.9703151 C29.7462699,48.996951 29.1055619,47.0711134 27.9164468,45.5062165 L27.6870894,45.2171089 L17.3950275,32.7877339 C17.1483839,32.4898236 16.8003796,32.3108387 16.4151934,32.2839603 C16.0298265,32.2573714 15.6607671,32.385606 15.3751666,32.6463861 C14.8757549,33.1020537 14.7786341,33.8575512 15.1266384,34.4234859 L15.2080315,34.5416864 L22.9393991,44.6092988 C23.141976,44.8732663 23.2262683,45.2099365 23.1718372,45.5385648 C23.1174058,45.8671935 22.9291798,46.1583656 22.6523851,46.3424584 C19.9602515,48.1323816 16.320392,47.5994109 14.2434179,45.1520863 L14.074,44.943723 L7.55472299,36.5708358 C7.42110918,36.3994944 7.33717928,36.1957678 7.31036253,35.9819711 L7.30104907,35.8200839 L7.44872347,20.9049857 C7.45861669,19.9003366 6.68389628,19.0562338 5.68474718,18.9832417 C5.63734606,18.979909 5.59027144,18.9781339 5.54330553,18.9781339 Z M64.7868767,18.5915467 L64.5965849,18.5960021 C63.6529176,18.6650821 62.9092176,19.4218473 62.8379717,20.3519106 L62.8324633,20.5177099 L62.9801381,35.4328082 C62.9821672,35.6502638 62.925453,35.8631911 62.8172066,36.0493484 L62.7264638,36.1835963 L56.2071868,44.5564473 C54.1640239,47.1807648 50.3957325,47.7951319 47.6289466,45.9550377 C47.3521519,45.770945 47.1639259,45.4797728 47.1094945,45.1511442 C47.0628184,44.8694628 47.1179745,44.5819855 47.2623512,44.3393901 L47.3419326,44.2220593 L55.0731552,34.1542658 C55.5145479,33.5797454 55.4412725,32.7471987 54.90631,32.2591103 C54.6207457,31.9983302 54.251179,31.8691539 53.8659929,31.8966846 C53.5359633,31.9197594 53.233149,32.0544057 52.9980291,32.2800116 L52.8863041,32.4003132 L42.5942423,44.8296882 C41.3369979,46.3480733 40.621202,48.2471771 40.5583996,50.2135137 L40.5543047,50.5828944 L40.7025951,65.9015328 L55.3483553,65.9215651 L54.7222514,58.6902197 C54.7009793,58.4443642 54.7558451,58.1991609 54.8774637,57.987356 L54.9583495,57.8645194 L66.6106841,42.3353801 C67.4515771,41.2146679 67.8904696,39.8449482 67.8620578,38.4487124 L67.8487939,38.1491723 L66.6330074,20.3682119 C66.5980725,19.8582074 66.366903,19.3928679 65.9818626,19.0578279 C65.6932176,18.8066472 65.3454665,18.6517516 64.9742693,18.6055291 L64.7868767,18.5915467 Z M45.0718762,0.202920697 C48.6704957,0.202920697 52.053456,1.60810398 54.5980239,4.15990022 C57.1425914,6.71151536 58.5440317,10.1040452 58.5440317,13.7125455 C58.5440317,17.1921228 57.240908,20.4709441 54.8662657,22.9884362 L54.5980239,23.2650097 L35.9370029,41.9780983 C35.7031517,42.2126155 35.3966411,42.3298018 35.0903116,42.3298018 C34.8277228,42.3298018 34.5650253,42.2435874 34.3480613,42.0713764 L34.2436203,41.9780983 L15.5825993,23.2651908 C10.329844,17.9976462 10.329844,9.42708263 15.5824182,4.15971912 C18.1271306,1.60810398 21.5102724,0.202920697 25.1087107,0.202920697 C28.5788258,0.202920697 31.8485389,1.50950082 34.3590782,3.89075251 L34.634858,4.15971912 L35.0903116,4.61643709 L35.5455841,4.15971912 C38.0902965,1.60810398 41.473438,0.202920697 45.0718762,0.202920697 Z M45.0718762,2.6040957 C42.2363443,2.6040957 39.5632729,3.6652549 37.5039108,5.60032979 L37.2388218,5.85766825 L35.9370029,7.16327081 C35.7123927,7.38833339 35.4079837,7.51497391 35.0903116,7.51497391 C34.8180107,7.51497391 34.5554582,7.42205844 34.3446549,7.25365049 L34.2437652,7.16327081 L32.9418014,5.85766825 C30.8494619,3.75954749 28.0677092,2.6040957 25.1087107,2.6040957 C22.1499293,2.6040957 19.3679954,3.75954749 17.2758008,5.85752375 C13.0351323,10.109986 12.9580519,16.9806446 17.0445226,21.328305 L17.2758008,21.5672413 L35.0904565,39.4314461 L52.9047861,21.5673866 C54.9971253,19.4692655 56.1494938,16.6797277 56.1494938,13.7125455 C56.1494938,10.7453271 54.9971253,7.9558256 52.9047861,5.85766825 C50.8126278,3.75954749 48.0308747,2.6040957 45.0718762,2.6040957 Z" id="path-5"></path>
            </g>
        </g>
    </g>
</svg>