<?xml version="1.0" encoding="UTF-8"?>
<svg width="156px" height="175px" viewBox="0 0 156 175" version="1.1" xmlns="http://www.w3.org/2000/svg" xmlns:xlink="http://www.w3.org/1999/xlink">
    <!-- Generator: Sketch 60.1 (88133) - https://sketch.com -->
    <title>labs_white</title>
    <desc>Created with Sketch.</desc>
    <defs>
        <path d="M132.330578,127.324922 L146.099103,135.313064 L135.877664,141.242623 L112.353476,154.887417 L112.340909,154.911706 L84.7953846,170.890538 L77.9920649,174.837204 L43.6443076,154.911706 L43.6310164,154.8885 L20.1082626,141.242623 L9.88610633,135.312702 L22.3608479,128.075311 L70.5323637,154.692917 L71.1898321,155.074652 L71.1896871,155.055623 L77.9988375,158.818663 L84.79466,154.8797 L84.7953846,155.072849 L105.539618,143.039482 L105.54668,143.05175 L118.829111,135.34709 L118.660416,135.249066 L131.036574,128.075311 L132.330578,127.324922 Z M87.6381737,0 L121.382715,19.5757941 L121.408573,19.5748168 L148.955438,35.5549734 L155.75767,39.5014076 L155.75767,79.3535027 L155.744488,79.3746425 L155.74485,118.525652 L142.209992,110.674122 L142.210281,47.2362704 L87.6369062,15.7396921 L87.6381737,0 Z M68.3452679,0 L68.3452679,15.7809581 L54.6794521,23.7137889 L54.6803213,23.7120877 L41.3989764,31.4163994 L41.4025982,31.4207432 L20.6615699,43.4614158 L13.8589677,47.2362704 L13.8589677,55.3026364 L13.3202012,110.93692 L0.24000246,118.525652 L0.24000246,39.5068374 L7.04032893,35.5622131 L34.6004595,19.5748168 L58.1228507,5.92933408 L68.3452679,0 Z" id="path-1"></path>
        <linearGradient x1="46.1384053%" y1="31.6030242%" x2="57.4922421%" y2="100%" id="linearGradient-3">
            <stop stop-color="#346AB3" offset="0%"></stop>
            <stop stop-color="#36C5F4" offset="100%"></stop>
        </linearGradient>
    </defs>
    <g id="Page-1" stroke="none" stroke-width="1" fill="none" fill-rule="evenodd">
        <g id="labs_white">
            <g id="OUTLINE">
                <g id="Fill-1-Clipped">
                    <mask id="mask-2" fill="white">
                        <use xlink:href="#path-1"></use>
                    </mask>
                    <g id="path-1"></g>
                    <polygon id="Fill-1" fill="#FFFFFF" fill-rule="nonzero" mask="url(#mask-2)" points="0.24000246 174.837204 156.693929 174.837204 156.693929 0 0.24000246 0"></polygon>
                </g>
            </g>
            <g id="INSIDE-SHAPE" transform="translate(48.451765, 45.859539)" fill="#FFFFFF" fill-rule="nonzero">
                <path d="M29.5465296,1.73965482 L29.6840423,1.74664088 C30.3139505,1.81110985 30.8146393,2.31603842 30.8784521,2.95080964 L30.8853333,3.08872469 L30.8853333,24.6261706 L36.240512,24.6261706 L36.240512,17.6321756 C35.0966961,17.2245841 34.1968327,16.3178559 33.7925515,15.1652696 C33.0531978,13.0577031 34.1493169,10.7454358 36.2406933,10.0004051 C38.3322143,9.25541027 40.6269442,10.3599252 41.3662976,12.4673107 C42.0817848,14.5068972 41.0783065,16.738189 39.117381,17.5552545 L38.9181195,17.6321756 L38.9181195,24.6263151 L41.5957269,24.6263151 L41.73324,24.6333379 C42.3631119,24.6979514 42.8638007,25.2027351 42.9276498,25.8375063 L42.9345311,25.9753854 L42.9345311,28.6734888 L46.950906,28.6734888 L46.950906,24.3775976 C45.8070901,23.9700061 44.9072267,23.0632779 44.5029092,21.9106916 C43.7635558,19.8031251 44.8595299,17.4908578 46.9510873,16.745827 C49.0426079,16.0008322 51.3373382,17.1053471 52.0766552,19.212769 C52.7921784,21.2523192 51.7887005,23.4836114 49.827775,24.3006765 L49.6285134,24.3775976 L49.6285134,30.0230657 C49.6283688,30.7213285 49.1014955,31.2955765 48.4265709,31.3644975 L48.2897097,31.3714117 L42.9345311,31.3714117 L42.9345311,36.7676189 L51.2139859,36.7676189 C51.7776183,35.1551711 53.2872901,34.074764 54.9836925,34.0695151 C56.6817969,34.0665107 58.1974804,35.1415244 58.7674871,36.7532843 C59.5106796,38.8551315 58.4224192,41.1660597 56.3367293,41.9149636 C54.3181836,42.6398323 52.105266,41.6362377 51.2908729,39.6658262 L51.2141668,39.4655777 L42.9345311,39.4655777 L42.9345311,42.1636815 L42.9275775,42.3022481 C42.8634384,42.9369471 42.3624963,43.4414772 41.7325518,43.5058013 L41.5957269,43.512715 L36.240512,43.512715 L36.240512,46.2108188 L40.2572491,46.2108188 L40.3944363,46.2178412 C41.0243445,46.2824551 41.5249969,46.7872387 41.5888461,47.42201 L41.5957269,47.5598887 L41.5957269,50.5065651 C42.7393982,50.9139757 43.6392256,51.8205231 44.0435431,52.9731453 C44.7830775,55.0803501 43.6871033,57.3927982 41.5957269,58.1377927 C39.5045323,58.8830047 37.209802,57.7784538 36.4703036,55.6712491 C35.7546358,53.6319884 36.7579691,51.4005517 38.7188583,50.5834862 L38.9181195,50.5065651 L38.9181195,48.9089226 L34.9017446,48.9089226 L34.7642315,48.9019362 C34.1343237,48.8373223 33.6336349,48.332539 33.5698217,47.6977674 L33.5629408,47.5598887 L33.5629408,43.512715 L30.8853333,43.512715 L30.8853333,69.1921013 L40.5837381,69.1921013 C40.6403081,69.1895677 40.6968777,69.1882282 40.7534473,69.1880833 C42.8739414,69.1840293 44.5961296,70.912818 44.6001497,73.0495603 C44.6009825,73.9876725 44.2875315,74.8985993 43.7105353,75.6348342 C44.4968971,76.3940187 44.9418855,77.4434397 44.9427183,78.540715 C44.9428997,78.5553754 44.9430443,78.5700358 44.9432256,78.5847325 C44.9566618,80.7615461 43.2727537,82.5500256 41.1409605,82.6758143 L40.9263071,82.6828007 L18.1667517,82.6828007 C15.9495241,82.6804475 14.1526944,80.8698513 14.1503405,78.635663 C14.1434955,77.5139181 14.5866368,76.4370221 15.3790467,75.6491688 C14.8093663,74.9402636 14.4967482,74.0566295 14.4929091,73.1445082 C14.4696585,71.8747119 15.0719338,70.6755752 16.1011616,69.9425259 C15.8071221,66.525707 13.1027509,62.6004853 10.6726449,59.1099672 C9.52346891,57.4578824 8.43770781,55.8980304 7.60545956,54.4145932 C2.97120023,46.1502952 0.0929550776,36.4764046 0.0929550776,29.1699469 C0.0929550776,13.78887 13.0306081,1.73965482 29.5465296,1.73965482 Z M40.9263071,77.1916455 L18.1667517,77.1916455 C17.4277243,77.1923331 16.8285998,77.7960468 16.8279479,78.540715 C16.827296,78.5563891 16.8267891,78.5720632 16.8255127,78.5877732 C16.8145118,79.2990308 17.3412037,79.8931877 18.0274642,79.9752491 L18.1667517,79.9846969 L40.9263071,79.9846969 C41.6653345,79.984009 42.2644589,79.380332 42.2651108,78.635663 L42.2675501,78.5886056 L42.2675501,78.5886056 C42.2793439,77.8299278 41.6792416,77.2044598 40.9263071,77.1916455 Z M17.170517,73.0495603 C17.1698287,73.0652343 17.1693578,73.080908 17.1680813,73.0966184 C17.1570804,73.8080205 17.6837724,74.4020692 18.3700333,74.484094 L18.5093207,74.4935421 L40.5837381,74.4935421 C41.3227659,74.4928902 41.9218903,73.8891773 41.9230716,73.1445082 C41.923375,73.0987896 41.921709,73.0531076 41.9175443,73.0075702 C41.8595982,72.3733056 41.3354415,71.8951638 40.7174848,71.8852456 L40.5837381,71.890386 L40.5837381,71.8902051 L18.5093207,71.8902051 C18.4832085,71.8875262 18.4570967,71.8854992 18.4308402,71.8843046 C17.763448,71.85531 17.1991277,72.3770705 17.170517,73.0495603 Z M28.2077255,4.4667532 C13.8385915,5.0898684 2.77056257,15.7163508 2.77056257,29.1699469 C2.77056257,35.934916 5.58354613,45.3229862 9.93647836,53.0866268 C10.7046238,54.4567638 11.7537341,55.9638029 12.8651001,57.5605766 C15.285754,61.038389 17.9669832,64.9174581 18.6510708,68.7502663 L18.7210043,69.1922822 L28.2080877,69.1922822 L28.2080877,54.2478281 C27.8526258,54.221005 27.489812,54.1884631 27.1013936,54.1405729 C26.5801341,54.0765743 26.1488353,53.7124569 25.9899549,53.2169765 L25.9535214,53.0786993 L25.5461981,51.1249388 L25.0426844,50.9965438 L24.5407641,50.852258 L23.2064877,52.3515501 C22.8235738,52.7812224 22.2120996,52.9183414 21.6846108,52.692682 C20.1854779,52.0412593 18.770548,51.2082307 17.471401,50.2119484 C17.0526331,49.8930422 16.860651,49.3607843 16.9689738,48.8519827 L17.0060229,48.7139953 L17.6205028,46.8300609 L17.2463535,46.4639888 L16.8824896,46.0870571 L15.0122133,46.7062633 C14.4681374,46.8843582 13.8717292,46.6963088 13.5256474,46.2373157 C12.5370901,44.9278828 11.7107093,43.5019281 11.0644314,41.9911608 C10.8588686,41.5039333 10.9560364,40.9454317 11.3023718,40.5586541 L11.4029804,40.4576252 L12.8920452,39.1138039 L12.7499688,38.6128574 L12.623466,38.1112953 L10.5414699,37.6924099 C9.9601276,37.5755983 9.52998788,37.0897465 9.47153486,36.5059785 L9.46472629,36.369656 L9.46472629,31.7694105 C9.46472629,31.1721769 9.85332596,30.6520091 10.4099325,30.4800314 L10.5412885,30.4466567 L12.6232847,30.0277712 L12.7496792,29.5258837 L12.8918642,29.0252626 L11.4033064,27.6814417 C10.9760638,27.2961118 10.8398549,26.6794034 11.0647574,26.1479057 C11.7108903,24.6369575 12.5374161,23.2111837 13.5259734,21.9017508 C13.8435167,21.4814536 14.3708606,21.2884451 14.8756057,21.3959535 L15.0125392,21.4328032 L16.8828515,22.0520094 L17.2464622,21.6750777 L17.6208651,21.3090056 L17.0063488,19.4223567 C16.8277666,18.873954 17.0150408,18.2717973 17.4724148,17.9244036 C18.7715619,16.9296412 20.1858402,16.0974451 21.6842848,15.4463845 C22.1678074,15.2383176 22.7224946,15.3363062 23.1059877,15.6859441 L23.2061617,15.7875164 L24.5404382,17.2868089 L25.0425394,17.1426313 L25.5458721,17.0141277 L25.9538837,15.0590281 C26.0720209,14.4944451 26.5334153,14.0681392 27.1017196,13.9984936 C27.3603393,13.9665669 27.6076959,13.9414454 27.8492217,13.920342 L28.2077255,13.8912384 L28.2077255,4.4667532 Z M43.4368856,64.3560611 L45.4069736,65.4541325 C45.1440079,65.9277133 44.9037499,66.413674 44.6869598,66.910349 L44.4780648,67.4104993 L42.3860369,66.5742128 C42.6891302,65.8130014 43.0401372,65.0720972 43.4368856,64.3560611 Z M46.6578447,59.774385 L48.4279107,61.0187333 C48.1544786,61.4157551 47.8815535,61.816614 47.6139159,62.2205856 L47.2170588,62.8288232 L45.4069736,61.6461567 C45.8112915,61.0143535 46.2341153,60.3891383 46.6578447,59.774385 Z M49.6227191,55.1926729 L51.4488477,56.3548156 C51.1638989,56.8137361 50.8544316,57.2840953 50.529717,57.7640466 L50.2002222,58.2471479 L48.4279107,57.0018941 C48.8530165,56.3814211 49.2587101,55.7768754 49.6227191,55.1926729 Z M40.2569232,52.9560959 C39.5178958,52.9569287 38.9188077,53.5604607 38.9181195,54.3051661 C38.9181195,55.0501605 39.5175698,55.6541996 40.2569232,55.6541996 C40.9962769,55.6541996 41.5957269,55.0501605 41.5957269,54.3051661 C41.5957269,53.560135 40.9962769,52.9560959 40.2569232,52.9560959 Z M50.9427265,50.6109968 L52.9593164,51.5776693 C52.7361883,52.0475219 52.5062154,52.5134284 52.2693618,52.9754258 L51.9089743,53.6654354 L49.9383794,52.6067474 C50.2876843,51.9491352 50.6224669,51.283921 50.9427265,50.6109968 Z M28.2073995,17.370354 L27.9858289,18.4314674 C27.8738847,18.9690828 27.4496484,19.3844209 26.9131057,19.4815404 C26.1195366,19.6269122 25.3393674,19.8388889 24.5807471,20.115262 C24.1143189,20.2826787 23.5986365,20.1770524 23.2351344,19.849893 L23.1308321,19.7451355 L21.8718849,18.330149 C21.3489957,18.5938164 20.8396509,18.8837998 20.345807,19.1989051 L19.857142,19.5223719 L20.4376877,21.3048067 C20.6073603,21.8255176 20.4470676,22.3980277 20.0323561,22.7526613 C19.4153408,23.2816614 18.8418213,23.8600723 18.3177006,24.4825 C17.9960649,24.8613137 17.4976938,25.028839 17.0209801,24.9289683 L16.8788315,24.890924 L15.1099243,24.3045859 C14.7809728,24.7920306 14.4763948,25.2956557 14.1973126,25.813543 L13.9267778,26.3361 L15.3309881,27.6035069 C15.7370076,27.9699411 15.8822708,28.5475192 15.6983288,29.0645378 C15.4247155,29.8296224 15.214372,30.6162812 15.0696158,31.4162972 C14.9800171,31.9160495 14.6205714,32.3187179 14.1459581,32.4656463 L14.0138052,32.4992383 L12.1421528,32.8759527 L12.1421528,35.2631138 L14.0138052,35.640154 C14.5531728,35.7484229 14.9718684,36.1779144 15.0696158,36.7231314 C15.214372,37.5226045 15.4247155,38.3087562 15.6985098,39.0733341 C15.8653942,39.5431867 15.7608019,40.0631011 15.43587,40.4293181 L15.3318573,40.5343651 L13.9264518,41.8029665 C14.1881137,42.330374 14.4759961,42.8440261 14.7889766,43.341896 L15.1102866,43.8344806 L16.8785055,43.2481426 C17.3959263,43.0786629 17.9637597,43.2398893 18.3173746,43.6565669 C18.8401552,44.2784875 19.4133492,44.8557036 20.03069,45.3823512 C20.4092216,45.7053473 20.5767939,46.2091176 20.4762942,46.6905532 L20.4380137,46.8340789 L19.856816,48.6165497 C20.3401573,48.9484146 20.8396873,49.2555202 21.3535949,49.5365265 L21.8722109,49.808773 L23.131194,48.3937861 C23.3848886,48.1079292 23.747521,47.9445306 24.128081,47.9445306 C24.2823617,47.9448564 24.4356649,47.9715345 24.581109,48.0236236 C25.3396934,48.2998518 26.1198626,48.5118285 26.9134676,48.6573452 C27.4054285,48.7468271 27.8029011,49.1037409 27.951822,49.576815 L27.9861548,49.7085765 L28.2077255,50.7704501 L28.2077255,46.1312551 C22.1140263,45.4383497 17.5058788,40.2486892 17.4973318,34.0693705 C17.5057338,27.9965829 21.9564858,22.8797895 27.8938762,22.0473398 L28.2077255,22.0074856 L28.2073995,17.370354 Z M53.8165533,46.0293211 L55.9802531,46.8444318 C55.7931243,47.3437857 55.5983894,47.8420173 55.3960864,48.3390544 L55.0868723,49.0837597 L52.9593164,48.1757284 C53.2618302,47.4636376 53.5480105,46.7459002 53.8165533,46.0293211 Z M28.2077255,24.7337516 C24.092118,25.3275101 20.8585559,28.5858167 20.2693186,32.7327888 C19.5501736,37.7949595 22.9631872,42.4930124 27.9302011,43.3607189 L28.2077255,43.4049895 L28.2077255,24.7337516 Z M40.2569232,27.3240931 L30.8853333,27.3240931 L30.8853333,40.8146113 L40.2569232,40.8146113 L40.2569232,27.3240931 Z M54.9836925,36.767474 C54.2443391,36.767474 53.6449251,37.3715131 53.6449251,38.1165079 C53.6449251,38.8615386 54.2443391,39.4655777 54.9836925,39.4655777 C55.7227199,39.4648898 56.3218443,38.8613578 56.3224962,38.1165079 C56.3224962,37.3715131 55.7230458,36.767474 54.9836925,36.767474 Z M58.9997054,29.2297826 L59.0011898,29.5159292 C59.0011898,30.1774868 58.9779756,30.8667003 58.9319445,31.5728543 L58.8783084,32.2842572 L55.9802531,32.0429964 C56.0366781,31.3866873 56.0719525,30.7437714 56.0860406,30.1255427 L56.0931028,29.5159292 L56.0916544,29.2522255 L58.9997054,29.2297826 Z M58.5164729,23.1208694 C58.6757151,23.8004901 58.8065642,24.4863731 58.908658,25.1765639 L59.0011898,25.8681661 L56.4139779,26.1753077 C56.3399524,25.5540386 56.240068,24.9361356 56.1144344,24.3233003 L55.9802531,23.7122751 L58.5164729,23.1208694 Z M48.2897097,19.2297822 C47.5506823,19.2306146 46.9515942,19.8341471 46.950906,20.578852 C46.950906,21.3238469 47.5503563,21.927886 48.2897097,21.927886 C49.0290631,21.927886 49.6285134,21.3238469 49.6285134,20.578852 C49.6285134,19.8338213 49.0290631,19.2297822 48.2897097,19.2297822 Z M56.5349763,17.0119558 C56.8055111,17.568684 57.0526147,18.1365608 57.2756702,18.7139218 L57.4907215,19.2943961 L55.3268411,20.0663944 C55.1408704,19.5434757 54.9333882,19.0284841 54.7050453,18.5228317 L54.4697848,18.0203649 L56.5349763,17.0119558 Z M54.6441656,12.4302438 C55.0029594,12.885979 55.3435364,13.3558676 55.6650634,13.8387872 L55.9802531,14.3260147 L54.1620195,15.4847187 C53.8839879,15.0426302 53.588645,14.6119805 53.2767148,14.1937107 L52.9593164,13.7795671 L54.6441656,12.4302438 Z M37.5793157,12.4845048 C36.8403246,12.4853735 36.2412002,13.088906 36.240512,13.833575 C36.240512,14.5786058 36.8399623,15.1826449 37.5793157,15.1826449 C38.3186694,15.1826449 38.9181195,14.5786058 38.9181195,13.833575 C38.9181195,13.0885439 38.3186694,12.4845048 37.5793157,12.4845048 Z M51.2886996,7.84856803 C51.7256119,8.21449523 52.1484721,8.59703753 52.556411,8.99554334 L52.9593164,9.39933401 L51.4485581,10.9030426 C51.0890761,10.533206 50.715651,10.1774864 50.329152,9.83668066 L49.9383794,9.50090629 L51.2886996,7.84856803 Z M46.4413079,4.7941294 C46.9534412,5.07585996 47.4572082,5.3769924 47.945294,5.69300278 L48.4279107,6.01375466 L47.2139803,7.84856803 C46.7806898,7.55232201 46.3303416,7.26823868 45.8701427,7.00077044 L45.4069736,6.73905776 L46.4413079,4.7941294 Z M40.0674041,1.73965482 C40.6608061,1.93219298 41.2481604,2.14550881 41.8199052,2.3773218 L42.3860369,2.61514387 L41.4787126,4.7941294 C40.9686077,4.57295875 40.4412275,4.36670126 39.9045761,4.1788327 L39.3650998,3.99722636 L40.0674041,1.73965482 Z M33.6519963,0.212417348 C34.3305427,0.303057442 35.0098136,0.416900996 35.6789076,0.552282023 L36.3441628,0.694758071 L35.7882804,3.26689193 C35.183108,3.12897689 34.5652962,3.01126059 33.9445506,2.91490089 L33.3232257,2.82570886 L33.6519963,0.212417348 Z" id="path-5"></path>
            </g>
        </g>
    </g>
</svg>