<?xml version="1.0" standalone="no"?>
<!DOCTYPE svg PUBLIC "-//W3C//DTD SVG 20010904//EN"
 "http://www.w3.org/TR/2001/REC-SVG-20010904/DTD/svg10.dtd">
<svg version="1.0" xmlns="http://www.w3.org/2000/svg"
 width="432.000000pt" height="432.000000pt" viewBox="0 0 432.000000 432.000000"
 preserveAspectRatio="xMidYMid meet">
<metadata>
Created by potrace 1.11, written by Peter Selinger 2001-2013
</metadata>
<g transform="translate(0.000000,432.000000) scale(0.100000,-0.100000)"
fill="#000000" stroke="none">
<path d="M1440 4043 c-261 -150 -486 -279 -500 -287 -14 -7 -128 -72 -254
-144 -125 -73 -232 -132 -237 -132 -5 0 -9 -4 -9 -9 0 -5 -6 -11 -13 -13 -7
-2 -56 -28 -110 -58 l-97 -55 0 -977 0 -977 153 88 c83 48 359 206 612 351
253 144 466 268 473 275 11 9 -20 30 -150 105 -90 51 -167 93 -173 93 -5 0
-77 -39 -159 -87 -82 -47 -150 -86 -152 -86 -1 0 -35 -19 -76 -43 -40 -24 -99
-58 -130 -76 l-58 -32 0 486 0 487 63 -35 c34 -19 357 -203 716 -410 l655
-375 0 -794 c1 -437 -1 -806 -4 -820 -5 -25 -8 -24 -230 104 -124 72 -243 140
-265 152 -224 126 -345 200 -338 206 7 8 211 127 244 144 8 4 23 12 34 19 12
7 80 46 152 87 l131 75 0 192 c0 117 -4 193 -9 193 -6 0 -35 -16 -65 -35 -30
-19 -56 -35 -58 -35 -2 0 -181 -102 -397 -226 -217 -125 -467 -268 -556 -318
-89 -50 -161 -95 -160 -99 2 -7 713 -420 992 -576 28 -16 138 -79 245 -141
107 -62 220 -126 250 -143 30 -17 88 -50 129 -74 l73 -43 77 43 c42 24 96 55
121 69 51 29 148 84 170 98 8 5 84 48 169 97 85 48 173 99 195 112 44 25 708
406 766 439 214 122 204 115 184 129 -14 11 -609 353 -896 516 -18 11 -99 57
-179 103 -80 46 -149 84 -152 84 -4 0 -7 -87 -7 -192 l0 -193 271 -155 c149
-85 278 -160 286 -166 12 -8 -51 -48 -298 -190 -173 -98 -318 -181 -324 -183
-5 -2 -21 -12 -35 -21 -14 -10 -59 -36 -100 -58 l-76 -41 2 817 c0 449 2 820
3 824 0 3 13 13 29 21 24 12 185 104 482 275 52 30 115 66 140 80 25 13 86 48
135 77 168 98 636 365 640 365 5 0 4 -953 -1 -962 -3 -4 -22 3 -42 16 -20 12
-57 34 -82 48 -25 14 -135 76 -244 139 -110 63 -204 113 -210 111 -22 -7 -326
-185 -326 -191 0 -5 339 -201 799 -462 25 -15 133 -77 240 -138 107 -61 197
-111 201 -111 3 0 6 437 6 972 l-1 972 -70 41 c-38 23 -90 53 -115 67 -25 14
-151 86 -280 160 -966 555 -1217 698 -1228 698 -5 0 -9 -1412 -3 -1429 0 -2 7
1 14 6 6 6 35 23 62 38 61 34 157 88 209 119 21 12 42 29 46 37 4 8 7 155 7
327 0 171 2 314 4 317 3 2 83 -41 179 -96 96 -56 193 -111 215 -123 22 -13
117 -67 210 -121 94 -54 182 -105 197 -112 15 -8 30 -18 33 -23 3 -4 -156
-100 -352 -213 -197 -113 -493 -282 -658 -377 -370 -212 -402 -230 -413 -230
-4 0 -154 84 -333 186 -178 103 -337 194 -354 204 -120 68 -255 145 -280 160
-211 121 -434 249 -448 256 -17 10 46 49 333 210 30 17 154 88 274 158 121 69
221 126 223 126 2 0 3 -147 3 -328 l0 -327 168 -96 c92 -53 169 -95 171 -93 6
6 7 1389 1 1411 -4 16 -74 -21 -480 -254z"/>
</g>
</svg>
