<?xml version="1.0" encoding="UTF-8"?>
<svg width="100px" height="61px" viewBox="0 0 100 61" version="1.1" xmlns="http://www.w3.org/2000/svg" xmlns:xlink="http://www.w3.org/1999/xlink">
    <!-- Generator: Sketch 60.1 (88133) - https://sketch.com -->
    <title>ruler</title>
    <desc>Created with Sketch.</desc>
    <g id="FINAL-DESIGNS" stroke="none" stroke-width="1" fill="none" fill-rule="evenodd">
        <g id="WEB_DESKTOP" transform="translate(-656.000000, -1744.000000)" fill="#000000" fill-rule="nonzero">
            <g id="Group-10" transform="translate(596.000000, 1744.000000)">
                <g id="ruler" transform="translate(60.000000, 0.000000)">
                    <path d="M30.2030919,19.305563 C24.4345222,19.305563 19.7414486,23.9988314 19.7414486,29.7672063 C19.7414486,35.5355813 24.434717,40.2288497 30.2030919,40.2288497 C35.9714668,40.2288497 40.6647352,35.5355813 40.6647352,29.7672063 C40.6647352,23.9986366 35.9716616,19.305563 30.2030919,19.305563 Z" id="Path"></path>
                    <path d="M67.3616555,46.1164212 L67.3616555,39.1607547 L60.405989,39.1607547 L60.405989,30.3914303 C60.405989,25.8600122 59.4009982,21.5599757 57.6052587,17.6987462 L62.6997444,15.3091662 C59.9282288,9.40036519 55.5968351,4.33898965 50.174364,0.672525867 L47.0302617,5.3225563 C42.218381,2.08223981 36.427608,0.188727937 30.2027024,0.188727937 C13.5490688,0.188727937 0,13.7372124 0,30.3914303 L0,47.5915764 C0,53.8591357 5.09916007,58.9582958 11.3667194,58.9582958 L67.3616555,58.9582958 L67.3616555,52.0024346 L93.8342057,52.0024346 L93.8342057,60.1888253 L99.7200243,60.1888253 L99.7200243,46.1164212 L67.3616555,46.1164212 Z M30.2028971,46.1148631 C21.188947,46.1148631 13.8552404,38.7813512 13.8552404,29.7672063 C13.8552404,20.7530615 21.1887523,13.4195496 30.2028971,13.4195496 C39.2168472,13.4195496 46.5505539,20.7530615 46.5505539,29.7672063 C46.5505539,38.7813512 39.2168472,46.1148631 30.2028971,46.1148631 Z" id="Shape"></path>
                </g>
            </g>
        </g>
    </g>
</svg>