<?xml version="1.0" encoding="UTF-8"?>
<svg width="100px" height="106px" viewBox="0 0 100 106" version="1.1" xmlns="http://www.w3.org/2000/svg" xmlns:xlink="http://www.w3.org/1999/xlink">
    <!-- Generator: Sketch 60.1 (88133) - https://sketch.com -->
    <title>holding a bulb</title>
    <desc>Created with Sketch.</desc>
    <g id="FINAL-DESIGNS" stroke="none" stroke-width="1" fill="none" fill-rule="evenodd">
        <g id="WEB_DESKTOP" transform="translate(-759.000000, -1454.000000)" fill="#000000" fill-rule="nonzero">
            <g id="Group-8" transform="translate(704.000000, 1454.000000)">
                <g id="holding-a-bulb" transform="translate(55.000000, 0.000000)">
                    <path d="M93.1672359,66.6716924 C87.2692859,67.0354954 79.5139088,72.9281568 72.0315927,76.31595 C62.8624779,80.4672562 48.5884311,77.1298443 48.5884311,77.1298443 C50.7907333,76.0968889 59.7385601,73.9652875 61.5378121,73.1747746 C71.1172142,68.9591696 70.30499,60.1738989 65.7431181,60.2479399 C59.7157355,60.3489808 56.1776334,61.8286874 44.1532083,63.468445 C35.0380933,64.7076575 24.2573342,64.254226 19.0864334,66.2291165 C11.787828,69.0170663 0.0336803039,87.7756038 0.0336803039,87.7756038 L18.2062919,105.391516 C18.2062919,105.391516 29.4585752,94.308191 34.9348256,94.308191 C47.4121256,94.308191 47.9184436,94.1381194 59.502798,93.5112761 C64.4281945,93.2471223 65.4558613,93.0453188 68.2766563,92.0955899 C83.29501,87.0176578 99.41869,73.4962684 99.7154107,71.8684798 C100.400151,68.1021311 96.2802981,66.4779611 93.1672359,66.6716924 Z" id="Path"></path>
                    <path d="M40.9073734,42.889501 C40.9399403,43.965879 41.7081852,44.8532576 42.7222129,45.0728754 C41.7758242,45.3573487 41.0933109,46.2380469 41.0933109,47.2774044 C41.0933109,48.1915045 41.6238453,48.9775639 42.3968222,49.3508307 C41.6241236,49.7240975 41.0933109,50.5096002 41.0933109,51.4239787 C41.0933109,52.6988199 42.1254313,53.7331671 43.3963757,53.7331671 L44.8031546,53.7331671 C45.2398852,56.1587057 47.3597959,57.9983183 49.9119835,57.9983183 C52.4625011,57.9983183 54.5804633,56.1587057 55.0149671,53.7331671 L56.4248079,53.7331671 C57.6960306,53.7331671 58.7300995,52.6988199 58.7300995,51.4239787 C58.7300995,50.5096002 58.1945548,49.7240975 57.423248,49.3508307 C58.1945548,48.9772855 58.7300995,48.1915045 58.7300995,47.2774044 C58.7300995,46.2419438 58.0495346,45.3693178 57.1098263,45.0759373 C58.1260808,44.8560411 58.893769,43.9686625 58.9249442,42.8925628 C59.0591087,38.5302676 61.2608542,35.2997419 63.3905071,32.1761025 C65.9390762,28.4334136 68.5792224,24.5618487 68.5797791,17.7386645 C68.5797791,7.95718055 60.2061875,0 49.9122619,0 C39.6161095,0 31.2419612,7.95662385 31.2419612,17.7386645 C31.2419612,24.5582302 33.8832207,28.4295167 36.4370785,32.1738757 C38.5672881,35.29501 40.7737655,38.5199687 40.9073734,42.889501 Z M49.9108701,37.0135405 L47.047766,20.7239642 C46.9831888,20.231842 47.2548581,19.8502247 47.3762185,19.7082664 C47.6044652,19.4432776 47.9103714,19.2757111 48.1575459,19.2757111 C48.4692975,19.2757111 48.7095132,19.5084114 48.825585,19.6486996 C49.0925223,19.9718635 49.4886138,20.1619763 49.9108701,20.1619763 C50.330343,20.1619763 50.7239294,19.9715851 50.9936501,19.6486996 C51.1094436,19.5084114 51.3474325,19.2757111 51.6597408,19.2757111 C51.9347502,19.2757111 52.2453884,19.4374322 52.4728,19.7018644 C52.6172635,19.867204 52.8410566,20.2212648 52.7723042,20.7217374 L49.9108701,37.0135405 Z M49.9122619,4.61280988 C57.662907,4.61280988 63.9661341,10.5026878 63.9661341,17.7386645 C63.9661341,23.1386471 61.9330685,26.1214416 59.5762823,29.5838325 C57.6194845,32.4577923 55.2448839,35.9346574 54.5239584,40.5179622 L52.1518629,40.5174055 L55.5446664,21.1893647 C55.5466149,21.1793441 55.5485633,21.1698803 55.5496767,21.160138 C55.7289339,19.9738119 55.3871205,18.7771869 54.6071849,17.8692105 C53.8528574,16.9879556 52.7519847,16.4627098 51.6594624,16.4627098 C51.0465366,16.4627098 50.4475282,16.6280495 49.9108701,16.9364609 C49.3686451,16.6283279 48.7693583,16.4627098 48.1572675,16.4627098 C47.0753226,16.4627098 46.0139755,16.9770999 45.2448955,17.8722723 C44.4510424,18.7958364 44.0953115,19.9946882 44.2687234,21.1567978 C44.2703935,21.1673751 44.2726203,21.1779524 44.2748471,21.1893647 L47.6665372,40.5160138 L45.3083592,40.5154571 C44.5882687,35.9293688 42.2078228,32.4488852 40.2440662,29.5749253 C37.8914552,26.1164313 35.8528226,23.1336368 35.8528226,17.7386645 C35.8528226,10.5026878 42.16106,4.61280988 49.9122619,4.61280988 Z" id="Shape"></path>
                </g>
            </g>
        </g>
    </g>
</svg>