<?xml version="1.0" encoding="UTF-8"?>
<svg width="65px" height="100px" viewBox="0 0 65 100" version="1.1" xmlns="http://www.w3.org/2000/svg" xmlns:xlink="http://www.w3.org/1999/xlink">
    <!-- Generator: Sketch 60.1 (88133) - https://sketch.com -->
    <title>people</title>
    <desc>Created with Sketch.</desc>
    <g id="FINAL-DESIGNS" stroke="none" stroke-width="1" fill="none" fill-rule="evenodd">
        <g id="WEB_DESKTOP" transform="translate(-153.000000, -1454.000000)" fill="#000000" fill-rule="nonzero">
            <g id="Group-5" transform="translate(112.000000, 1454.000000)">
                <g id="people" transform="translate(41.000000, 0.000000)">
                    <path d="M64.7280899,9.81123596 C64.7280899,7.15955056 63.788764,4.82247191 61.9280899,2.80449438 C59.9011236,0.930337079 57.5730337,0 54.9258427,0 C52.1123596,0 49.7752809,0.930337079 47.9191011,2.80898876 C45.8741573,4.82247191 44.9573034,7.15955056 44.9573034,9.81573034 C44.9573034,12.6067416 45.8741573,14.952809 47.9191011,16.8179775 C49.7752809,18.8359551 52.1123596,19.6179775 54.9258427,19.6179775 C57.5685393,19.6179775 59.9011236,18.8359551 61.9280899,16.8179775 C63.788764,14.9483146 64.7280899,12.6022472 64.7280899,9.81123596 Z" id="Path"></path>
                    <path d="M31.2539326,53.0831461 C35.1460674,53.0831461 40.1258427,51.5235955 45.8741573,48.4179775 L45.8741573,99.3213483 L58.8134831,99.3213483 L58.8134831,27.0831461 C40.9258427,48.7325843 23.0157303,48.7325843 5.11460674,27.0831461 L5.11460674,99.3213483 L18.647191,99.3213483 L18.647191,48.4179775 C23.3258427,51.5235955 27.3707865,53.0831461 31.2539326,53.0831461 Z" id="Path"></path>
                    <path d="M3.22696629,2.80898876 C1.37078652,4.82247191 0.431460674,7.15955056 0.431460674,9.81123596 C0.431460674,12.6022472 1.37078652,14.9483146 3.22696629,16.8134831 C5.26741573,18.8314607 7.59550562,19.6134831 10.2382022,19.6134831 C13.047191,19.6134831 15.3797753,18.8314607 17.2629213,16.8134831 C19.2629213,14.9483146 20.2067416,12.6022472 20.2067416,9.81123596 C20.2067416,7.15955056 19.2629213,4.82247191 17.2629213,2.80449438 C15.3752809,0.930337079 13.047191,0 10.2382022,0 C7.59550562,0 5.26741573,0.930337079 3.22696629,2.80898876 Z" id="Path"></path>
                </g>
            </g>
        </g>
    </g>
</svg>