<?xml version="1.0" encoding="UTF-8"?>
<svg width="100px" height="97px" viewBox="0 0 100 97" version="1.1" xmlns="http://www.w3.org/2000/svg" xmlns:xlink="http://www.w3.org/1999/xlink">
    <!-- Generator: Sketch 60.1 (88133) - https://sketch.com -->
    <title>networking</title>
    <desc>Created with Sketch.</desc>
    <g id="FINAL-DESIGNS" stroke="none" stroke-width="1" fill="none" fill-rule="evenodd">
        <g id="WEB_DESKTOP" transform="translate(-438.000000, -1454.000000)" fill="#000000" fill-rule="nonzero">
            <g id="Group-7" transform="translate(356.000000, 1454.000000)">
                <g id="networking" transform="translate(82.000000, 0.000000)">
                    <path d="M67.0826156,37.246571 L67.0826156,32.4082935 C67.0826156,31.3875598 66.6334928,30.4076555 65.8373206,29.754386 C61.4685805,26.1614035 56.7323764,23.7728868 55.7728868,23.3033493 C55.6708134,23.2421053 55.5891547,23.1400319 55.5891547,23.0175439 L55.5891547,16.2194577 C56.446571,15.6478469 57.0181818,14.6679426 57.0181818,13.5655502 L57.0181818,6.50207337 C57.0181818,2.9907496 54.1601276,0.132695375 50.6488038,0.132695375 L49.8934609,0.132695375 L49.138118,0.132695375 C45.6267943,0.132695375 42.76874,2.9907496 42.76874,6.50207337 L42.76874,13.5655502 C42.76874,14.6679426 43.3403509,15.6478469 44.1977671,16.2194577 L44.1977671,23.0379585 C44.1977671,23.1604466 44.1365231,23.2625199 44.0140351,23.323764 C43.0545455,23.7933014 38.338756,26.1818182 33.9496013,29.7748006 C33.153429,30.4280702 32.7043062,31.3875598 32.7043062,32.4287081 L32.7043062,37.2669856 L49.8934609,37.2669856 L67.0826156,37.2669856 L67.0826156,37.246571 L67.0826156,37.246571 Z" id="Path"></path>
                    <path d="M98.5212121,89.2835726 C94.1524721,85.6905901 89.4162679,83.3020734 88.4567783,82.8325359 C88.3547049,82.7712919 88.2730463,82.6692185 88.2730463,82.5467305 L88.2730463,75.7282297 C89.1304625,75.1566188 89.7020734,74.1767145 89.7020734,73.0743222 L89.7020734,66.0108453 C89.7020734,62.4995215 86.8440191,59.6414673 83.3326954,59.6414673 L82.5773525,59.6414673 L81.8220096,59.6414673 C78.3106858,59.6414673 75.4526316,62.4995215 75.4526316,66.0108453 L75.4526316,73.0743222 C75.4526316,74.1767145 76.0242424,75.1566188 76.8816587,75.7282297 L76.8816587,82.5467305 C76.8816587,82.6692185 76.8204147,82.7712919 76.6979266,82.8325359 C75.738437,83.3020734 71.0226475,85.6905901 66.6334928,89.2835726 C65.8373206,89.9368421 65.3881978,90.8963317 65.3881978,91.9374801 L65.3881978,96.7757576 L82.5773525,96.7757576 L99.7665072,96.7757576 L99.7665072,91.9374801 C99.7665072,90.9167464 99.3173844,89.9368421 98.5212121,89.2835726 Z" id="Path"></path>
                    <path d="M33.1330144,89.2835726 C28.7642743,85.6905901 24.0280702,83.3020734 23.0685805,82.8325359 C22.9665072,82.7712919 22.8848485,82.6692185 22.8848485,82.5467305 L22.8848485,75.7282297 C23.7422648,75.1566188 24.3138756,74.1767145 24.3138756,73.0743222 L24.3138756,66.0108453 C24.3138756,62.4995215 21.4558214,59.6414673 17.9444976,59.6414673 L17.1891547,59.6414673 L16.4338118,59.6414673 C12.922488,59.6414673 10.0644338,62.4995215 10.0644338,66.0108453 L10.0644338,73.0743222 C10.0644338,74.1767145 10.6360447,75.1566188 11.4934609,75.7282297 L11.4934609,82.5467305 C11.4934609,82.6692185 11.4322169,82.7712919 11.3097289,82.8325359 C10.3502392,83.3020734 5.63444976,85.6905901 1.24529506,89.2835726 C0.449122807,89.9368421 0,90.8963317 0,91.9374801 L0,96.7757576 L17.1891547,96.7757576 L34.3783094,96.7757576 L34.3783094,91.9374801 C34.3783094,90.9167464 33.9291866,89.9368421 33.1330144,89.2835726 Z" id="Path"></path>
                    <path d="M49.8934609,49.3524721 C48.6277512,49.3524721 47.6070175,50.3732057 47.6070175,51.6389155 C47.6070175,52.9046252 48.6277512,53.9457735 49.8934609,53.9457735 C51.1591707,53.9457735 52.1799043,52.9250399 52.1799043,51.6389155 C52.1799043,50.3732057 51.1591707,49.3524721 49.8934609,49.3524721 Z" id="Path"></path>
                    <circle id="Oval" cx="49.8934609" cy="58.3553429" r="2.28644338"></circle>
                    <circle id="Oval" cx="49.8934609" cy="65.0513557" r="2.28644338"></circle>
                    <path d="M49.8934609,42.6360447 C49.2810207,42.6360447 48.6889952,42.8810207 48.2602871,43.3097289 C47.8315789,43.738437 47.5866029,44.3304625 47.5866029,44.9429027 C47.5866029,45.5553429 47.8315789,46.1473684 48.2602871,46.5760766 C48.6889952,47.0047847 49.2810207,47.2497608 49.8934609,47.2497608 C50.5059011,47.2497608 51.0979266,47.0047847 51.5266348,46.5760766 C51.9553429,46.1473684 52.200319,45.5553429 52.200319,44.9429027 C52.200319,44.3304625 51.9553429,43.738437 51.5266348,43.3097289 C51.0979266,42.8810207 50.5059011,42.6360447 49.8934609,42.6360447 Z" id="Path"></path>
                    <path d="M56.7732057,66.7661882 C55.7116427,66.0720893 54.2826156,66.3783094 53.6089314,67.4602871 C52.9148325,68.5218501 53.2210526,69.9508772 54.2826156,70.6245614 C55.3441786,71.3186603 56.7732057,71.0124402 57.4673046,69.9508772 C58.1409888,68.8688995 57.8347687,67.4602871 56.7732057,66.7661882 Z" id="Path"></path>
                    <circle id="Oval" cx="61.1623604" cy="72.3393939" r="2.28644338"></circle>
                    <circle id="Oval" cx="66.7968102" cy="75.9732057" r="2.28644338"></circle>
                    <path d="M43.0137161,66.7661882 C41.9521531,67.4602871 41.645933,68.8688995 42.3196172,69.9508772 C43.0137161,71.0124402 44.4223285,71.3186603 45.5043062,70.6245614 C46.5658692,69.9304625 46.8720893,68.5218501 46.1779904,67.4602871 C45.5043062,66.3783094 44.0752791,66.0720893 43.0137161,66.7661882 Z" id="Path"></path>
                    <circle id="Oval" cx="38.6245614" cy="72.3393939" r="2.28644338"></circle>
                    <circle id="Oval" cx="32.9901116" cy="75.9732057" r="2.28644338"></circle>
                </g>
            </g>
        </g>
    </g>
</svg>