<?xml version="1.0" encoding="UTF-8"?>
<svg width="100px" height="95px" viewBox="0 0 100 95" version="1.1" xmlns="http://www.w3.org/2000/svg" xmlns:xlink="http://www.w3.org/1999/xlink">
    <!-- Generator: Sketch 60.1 (88133) - https://sketch.com -->
    <title>flag</title>
    <desc>Created with Sketch.</desc>
    <g id="FINAL-DESIGNS" stroke="none" stroke-width="1" fill="none" fill-rule="evenodd">
        <g id="WEB_DESKTOP" transform="translate(-257.000000, -1710.000000)" fill="#000000" fill-rule="nonzero">
            <g id="Group-9" transform="translate(228.000000, 1710.000000)">
                <g id="flag" transform="translate(29.000000, -0.000000)">
                    <path d="M26.7921792,66.9119257 C22.7151084,52.3680893 18.6551682,37.8242529 14.6123586,23.2804166 L14.595228,23.2804166 C12.645527,24.8530289 10.2136104,25.7060145 7.7087472,25.695824 C7.43465841,25.695824 7.16056962,25.6786935 6.90361138,25.6615629 L25.353213,91.7169612 C25.8330452,93.4325129 27.6106564,94.4362502 29.3275005,93.9610631 L30.8863805,93.5156688 C31.7075565,93.287965 32.4041636,92.7424555 32.8220979,91.9998182 C33.2400323,91.257181 33.3448459,90.3786276 33.1133519,89.558512 L26.7921792,66.9119257 Z" id="Shape"></path>
                    <path d="M98.8946613,44.5051672 C92.6204462,41.3853113 86.8186322,37.3944014 81.6613287,32.650827 C81.2263166,32.2595389 81.0533026,31.6539904 81.2159344,31.0919471 C83.7797651,21.40545 85.6799553,11.5553678 86.9032768,1.61027164 C87.1088434,-0.0342610987 86.2009243,-0.51391648 85.2758746,0.616699776 C67.7341921,21.5844922 38.0298195,-0.976441312 18.8093432,13.9956588 C18.8378085,14.1826739 18.8492757,14.371883 18.8436043,14.5609669 C18.8457398,16.5386633 18.3130201,18.4801305 17.3018548,20.1797871 L17.9185546,22.3553669 C21.7557977,36.1454591 25.6101713,49.9412615 29.4816754,63.7427741 C48.5308463,44.2996006 80.1709709,69.9954246 98.5177893,48.0340604 C99.4599695,46.9034441 99.6484055,44.8306476 98.8946613,44.5051672 Z" id="Shape"></path>
                    <circle id="Oval" cx="7.7087472" cy="14.5609669" r="7.7087472"></circle>
                </g>
            </g>
        </g>
    </g>
</svg>