<?xml version="1.0" encoding="UTF-8"?>
<svg width="4967px" height="6678px" viewBox="0 0 4967 6678" version="1.1" xmlns="http://www.w3.org/2000/svg" xmlns:xlink="http://www.w3.org/1999/xlink">
    <!-- Generator: Sketch 60.1 (88133) - https://sketch.com -->
    <title>Artboard</title>
    <desc>Created with Sketch.</desc>
    <defs>
        <polygon id="path-1" points="543.998868 0 754.037505 112.301661 754.198396 112.296176 925.660349 203.970527 968 226.610332 968 455.232292 967.918061 455.353662 967.92026 679.953665 806.332312 593.561013 654.919127 512.608659 739.975458 467.134078 883.229031 543.725617 883.229031 455.334324 883.148508 455.328118 883.148508 317.255995 692.867153 418.992384 526.304292 508.044503 526.30288 758.973761 526.304292 889.616528 655.424243 820.583944 655.468198 820.654227 738.142867 776.454541 594.881133 699.865021 594.882702 608.915717 746.300287 689.864459 907.881482 776.259279 844.259467 810.275701 697.8361 888.552741 697.757931 888.692096 526.304292 980.358913 483.957894 1003 270.164608 888.692096 270.081886 888.558948 123.667467 810.275701 60.0409589 776.257256 221.620053 689.870087 373.037637 608.914273 373.037637 699.862853 229.78783 776.460743 312.43943 820.654227 312.491543 820.585243 441.618244 889.626876 441.618244 758.975784 441.611495 693.341481 441.609297 508.044503 275.055228 418.990219 84.7695394 317.258159 84.7732597 455.336489 84.6786395 455.337788 84.6868334 543.725617 227.940329 467.134078 312.996663 512.608659 161.577508 593.564473 0 679.953665 0 226.64136 42.3277828 204.011946 213.872319 112.296176 360.28454 34.0149796 423.908757 0 423.919117 172.779101 423.913152 334.687847 338.856818 289.211102 338.856818 136.030766 256.188894 180.228434 256.237397 180.29049 127.111465 249.327923 249.289724 314.657286 310.673865 347.477469 483.955696 440.119751 650.518557 351.067632 840.799912 249.331386 711.673994 180.29049 711.718732 180.226269 629.048454 136.026581 543.998868 97.1306088"></polygon>
        <linearGradient x1="29.2893653%" y1="16.4344899%" x2="72.7678375%" y2="87.3450431%" id="linearGradient-3">
            <stop stop-color="#346AB3" offset="0%"></stop>
            <stop stop-color="#36C6F5" offset="100%"></stop>
        </linearGradient>
    </defs>
    <g id="Artboard" stroke="none" stroke-width="1" fill="none" fill-rule="evenodd">
        <g id="Group-2" transform="translate(70.000000, 5723.000000)">
            <g id="Group-5" transform="translate(530.000000, 452.500000) scale(-1, 1) translate(-530.000000, -452.500000) translate(0.000000, 173.000000)">
                <g id="Group-4">
                    <path d="M437.054734,414.431034 L437.054734,414.431034 C323.378741,414.431034 223.27829,339.307452 191.113075,229.879326 L163.818182,136.982814 C446.641981,37.542939 790.181818,60.0020708 790.181818,60.0020708 C790.181818,255.744855 632.088108,414.431034 437.054734,414.431034" id="Fill-138" fill="#EEA039" fill-rule="nonzero"></path>
                    <path d="M437.054734,414.431034 L437.054734,414.431034 C323.378741,414.431034 223.27829,338.846555 191.113075,228.747068 L163.818182,135.28062 C470.6101,188.52958 790.181818,57.8275862 790.181818,57.8275862 C790.181818,254.771287 632.088108,414.431034 437.054734,414.431034" id="Fill-139" fill="#F3B43D" fill-rule="nonzero"></path>
                    <path d="M144.550241,506.036381 C88.6351445,506.036381 43.3267808,460.709572 43.3267808,404.802678 C43.3267808,348.876635 88.6351445,303.549826 144.550241,303.549826 C200.455765,303.549826 245.764128,348.876635 245.764128,404.802678 C245.764128,460.709572 200.455765,506.036381 144.550241,506.036381 Z" id="Path" fill="#2B2B2E" fill-rule="nonzero"></path>
                    <path d="M144.550241,260.224138 C64.7125582,260.224138 0,324.949365 0,404.802678 C0,484.636842 64.7125582,549.362069 144.550241,549.362069 C224.378351,549.362069 289.090909,484.636842 289.090909,404.802678 C289.090909,324.949365 224.378351,260.224138 144.550241,260.224138 L144.550241,260.224138 Z" id="Path" fill="#2B2B2E" fill-rule="nonzero"></path>
                    <path d="M149.368421,489.410747 C105.301435,489.410747 69.569378,453.684138 69.569378,409.621639 C69.569378,365.54 105.301435,329.813391 149.368421,329.813391 C193.435407,329.813391 229.157895,365.54 229.157895,409.621639 C229.157895,453.684138 193.435407,489.410747 149.368421,489.410747 Z" id="Path" fill="#BEBEB9" fill-rule="nonzero"></path>
                    <path d="M149.368421,308.413793 C93.4736842,308.413793 48.1818182,353.720455 48.1818182,409.621639 C48.1818182,465.503683 93.4736842,510.810345 149.368421,510.810345 C205.253589,510.810345 250.545455,465.503683 250.545455,409.621639 C250.545455,353.720455 205.253589,308.413793 149.368421,308.413793 L149.368421,308.413793 Z" id="Path" fill="#BEBEB9" fill-rule="nonzero"></path>
                    <path d="M149.368548,327.689655 C104.13363,327.689655 67.4545455,364.36708 67.4545455,409.621894 C67.4545455,454.857058 104.13363,491.534483 149.368548,491.534483 C194.603466,491.534483 231.272727,454.857058 231.272727,409.621894 C231.272727,364.36708 194.603466,327.689655 149.368548,327.689655" id="Fill-142" fill="#FFFFFE" fill-rule="nonzero"></path>
                    <path d="M607.090909,305.002102 L677.047867,548.902306 C681.103481,562.654573 700.274607,562.254401 703.786292,548.345969 L770.909091,192.758621" id="Stroke-143" stroke="#BEBEB9" stroke-width="4" stroke-linecap="round" stroke-linejoin="round"></path>
                    <path d="M134.909091,414.431034 L321.977735,414.431034 C392.274647,414.431034 461.092946,393.974221 520.189127,355.510336 L794.186658,177.137852 C816.974686,162.312519 830.726749,136.809821 830.726749,109.442977 C830.726749,64.9669751 866.435724,28.9137931 910.46552,28.9137931 L973.272727,28.9137931" id="Stroke-144" stroke="#A4A7A4" stroke-width="4" stroke-linecap="round"></path>
                    <path d="M1027.89493,67.4655172 L966.822948,67.4655172 C949.102678,67.4655172 934.727273,52.361297 934.727273,33.7327586 C934.727273,15.1042203 949.102678,0 966.822948,0 L1027.89493,0 C1045.63399,0 1060,15.1042203 1060,33.7327586 C1060,52.361297 1045.63399,67.4655172 1027.89493,67.4655172" id="Fill-145" fill="#2B2B2E" fill-rule="nonzero"></path>
                </g>
            </g>
            <path d="M566.70671,0 C665.4037,0 746,71.8569081 746,178.499854 C746,285.1428 665.4037,347 566.70671,347 C468.009719,347 388,277.082601 388,178.499854 C388,79.9171067 468.009719,0 566.70671,0 Z M567.045433,70 C517.900866,70 467,110.43025 467,176.985614 C467,243.54098 518.340144,280 567.484711,280 C616.629278,280 669.25459,246.024812 670.962206,175 C672.669821,103.975188 616.190001,70 567.045433,70 Z" id="Combined-Shape" fill="#343433" fill-rule="nonzero"></path>
            <path d="M290.369206,393.150268 L253.5478,305.520295 C300.323613,313.639034 346.501478,314.041953 392.693501,314.723543 C649.464445,318.512343 879.911436,228.067261 879.911436,228.067261 C879.911436,425.010962 322.534422,503.249755 290.369206,393.150268 Z" id="Fill-139" fill="#F3B43D" fill-rule="nonzero" transform="translate(566.729618, 335.693288) rotate(14.000000) translate(-566.729618, -335.693288) "></path>
        </g>
        <g id="Group-3" transform="translate(921.000000, 158.000000)" fill-rule="nonzero">
            <path d="M2504.52941,1892 C2498.75144,1892 2493.48331,1887.71602 2490.45053,1880.56975 C2488.13674,1875.11053 2487.43083,1868.66561 2488.46355,1862.44817 C2489.48319,1856.21176 2492.13686,1850.94209 2495.90168,1847.60591 L2914.84287,1475.52575 C2917.44427,1473.21317 2920.42475,1472 2923.45752,1472 C2929.24856,1472 2934.51669,1476.28398 2937.54947,1483.43025 C2939.86326,1488.88947 2940.56917,1495.33439 2939.53645,1501.55183 C2938.50374,1507.78824 2935.85007,1513.05791 2932.08524,1516.39409 L2513.15713,1888.45529 C2510.58188,1890.76789 2507.58832,1892 2504.52941,1892" id="Fill-9" fill="#F3B43D" transform="translate(2714.000000, 1682.000000) scale(-1, 1) translate(-2714.000000, -1682.000000) "></path>
            <path d="M2923.47041,2255 C2920.41153,2255 2917.41801,2253.76793 2914.82972,2251.45546 L2495.9061,1879.39209 C2492.14131,1876.075 2489.48766,1870.78663 2488.45496,1864.56945 C2487.43533,1858.31438 2488.14123,1851.90766 2490.45501,1846.42974 C2493.47467,1839.30274 2498.74276,1835 2504.53373,1835 C2507.59261,1835 2510.58614,1836.25101 2513.17442,1838.5635 L2932.09804,2210.60791 C2935.84975,2213.94394 2938.50341,2219.21337 2939.5361,2225.4495 C2940.56881,2231.66667 2939.86291,2238.1113 2937.56221,2243.55132 C2934.52947,2250.71622 2929.27446,2255 2923.47041,2255" id="Fill-10" fill="#F3B43D" transform="translate(2714.000000, 2045.000000) scale(-1, 1) translate(-2714.000000, -2045.000000) "></path>
            <path d="M2504.52957,2635 C2498.75155,2635 2493.48336,2630.73517 2490.45056,2623.58922 C2488.13674,2618.1113 2487.43083,2611.68562 2488.46354,2605.46845 C2489.4832,2599.21337 2492.1369,2593.9629 2495.90176,2590.62686 L2914.84709,2218.54454 C2917.42235,2216.25101 2920.42901,2215 2923.47489,2215 C2929.26598,2215 2934.52109,2219.28378 2937.5539,2226.44868 C2939.86772,2231.92662 2940.57363,2238.35229 2939.52784,2244.58841 C2938.50819,2250.80557 2935.85448,2256.075 2932.08962,2259.41105 L2513.15738,2631.47442 C2510.5821,2633.78689 2507.58852,2635 2504.52957,2635" id="Fill-11" fill="#F3B43D" transform="translate(2714.000000, 2425.000000) scale(-1, 1) translate(-2714.000000, -2425.000000) "></path>
            <path d="M2923.47041,3018 C2920.41153,3018 2917.41801,3016.76793 2914.82972,3014.4365 L2495.9061,2642.39209 C2492.14131,2639.05606 2489.48766,2633.78663 2488.45496,2627.5505 C2487.43533,2621.31438 2488.14123,2614.8887 2490.45501,2609.42974 C2493.47467,2602.28378 2498.72969,2598 2504.53373,2598 C2507.59261,2598 2510.57307,2599.23207 2513.17442,2601.5635 L2932.09804,2973.60791 C2935.84975,2976.925 2938.50341,2982.19443 2939.5361,2988.43055 C2940.56881,2994.66667 2939.86291,3001.09234 2937.56221,3006.55132 C2934.52947,3013.71622 2929.26139,3018 2923.47041,3018" id="Fill-12" fill="#F3B43D" transform="translate(2714.000000, 2808.000000) scale(-1, 1) translate(-2714.000000, -2808.000000) "></path>
            <path d="M2504.53374,3381 C2498.7297,3381 2493.47468,3376.71602 2490.45501,3369.5508 C2488.14123,3364.12948 2487.43533,3357.70353 2488.45496,3351.46713 C2489.48766,3345.23071 2492.14132,3339.96105 2495.9061,3336.62486 L2914.84312,2964.54471 C2917.41834,2962.25107 2920.42494,2961 2923.47076,2961 C2929.26173,2961 2934.51674,2965.26502 2937.54949,2972.4492 C2939.86326,2977.90843 2940.56916,2984.35334 2939.53646,2990.57079 C2938.50376,2996.80719 2935.8501,3002.05791 2932.08532,3005.39409 L2513.16137,3377.47425 C2510.54694,3379.78683 2507.57955,3381 2504.53374,3381" id="Fill-13" fill="#F3B43D" transform="translate(2714.000000, 3171.000000) scale(-1, 1) translate(-2714.000000, -3171.000000) "></path>
            <path d="M2923.47615,3764 C2920.44334,3764 2917.47589,3762.78683 2914.86139,3760.47425 L2495.90178,3388.37514 C2492.13692,3385.03895 2489.48321,3379.76929 2488.46355,3373.55183 C2487.43082,3367.33439 2488.13674,3360.88947 2490.45057,3355.43025 C2493.47031,3348.26502 2498.73851,3344 2504.52961,3344 C2507.58857,3344 2510.5691,3345.23211 2513.17052,3347.52575 L2932.10398,3719.60591 C2935.88192,3722.96105 2938.52256,3728.24967 2939.54221,3734.46713 C2940.56187,3740.68457 2939.86903,3747.12948 2937.5552,3752.56975 C2934.53546,3759.71602 2929.26726,3764 2923.47615,3764" id="Fill-14" fill="#F3B43D" transform="translate(2714.000000, 3554.000000) scale(-1, 1) translate(-2714.000000, -3554.000000) "></path>
            <path d="M2504.53394,4127 C2498.72983,4127 2493.47475,4122.71602 2490.45504,4115.5508 C2488.14123,4110.12948 2487.43533,4103.70353 2488.45497,4097.46713 C2489.48768,4091.23071 2492.14137,4085.94209 2495.90619,4082.60591 L2914.84824,3710.52575 C2917.4627,3708.21317 2920.44319,3707 2923.47597,3707 C2929.26702,3707 2934.53517,3711.28398 2937.56795,3718.4492 C2939.86867,3723.87052 2940.56151,3730.29647 2939.54187,3736.53287 C2938.52223,3742.75033 2935.88162,3748.03895 2932.10371,3751.37514 L2513.16168,4123.47425 C2510.58642,4125.76789 2507.59286,4127 2504.53394,4127" id="Fill-15" fill="#F3B43D" transform="translate(2714.000000, 3917.000000) scale(-1, 1) translate(-2714.000000, -3917.000000) "></path>
            <path d="M2923.47041,4510 C2920.41153,4510 2917.41801,4508.78683 2914.82972,4506.47425 L2495.9061,4134.39409 C2492.14131,4131.05791 2489.48766,4125.78824 2488.45496,4119.55183 C2487.43533,4113.31543 2488.14123,4106.88947 2490.45501,4101.41129 C2493.47467,4094.28398 2498.74276,4090 2504.53373,4090 C2507.57954,4090 2510.56,4091.23211 2513.14828,4093.54471 L2932.09804,4465.62486 C2935.84975,4468.96105 2938.50341,4474.21176 2939.5361,4480.44817 C2940.56881,4486.68457 2939.86291,4493.11053 2937.56221,4498.58871 C2934.52947,4505.73498 2929.26139,4510 2923.47041,4510" id="Fill-16" fill="#F3B43D" transform="translate(2714.000000, 4300.000000) scale(-1, 1) translate(-2714.000000, -4300.000000) "></path>
            <path d="M2504.53374,4891 C2498.75584,4891 2493.48775,4886.71602 2490.45501,4879.5508 C2488.14123,4874.12948 2487.43533,4867.68457 2488.45496,4861.46713 C2489.48766,4855.23071 2492.12824,4849.96105 2495.9061,4846.60591 L2914.84312,4474.52575 C2917.44449,4472.23211 2920.42494,4471 2923.47076,4471 C2929.26173,4471 2934.51674,4475.26502 2937.54949,4482.43025 C2939.86326,4487.88947 2940.56916,4494.33439 2939.53646,4500.55183 C2938.50376,4506.76929 2935.8501,4512.05791 2932.08532,4515.39409 L2513.16137,4887.45529 C2510.54694,4889.78683 2507.56648,4891 2504.53374,4891" id="Fill-17" fill="#F3B43D" transform="translate(2714.000000, 4681.000000) scale(-1, 1) translate(-2714.000000, -4681.000000) "></path>
            <path d="M2923.4747,5254 C2920.42886,5254 2917.46145,5252.78683 2914.86007,5250.47425 L2495.90618,4878.37514 C2492.14136,4875.05791 2489.48768,4869.76929 2488.45497,4863.53287 C2487.43533,4857.29647 2488.14123,4850.87052 2490.45503,4845.41129 C2493.47473,4838.26502 2498.74286,4834 2504.54696,4834 C2507.59281,4834 2510.56022,4835.21317 2513.14852,4837.52575 L2932.10241,5209.60591 C2935.85416,5212.92314 2938.49477,5218.17385 2939.52748,5224.41025 C2940.57326,5230.64666 2939.86736,5237.07262 2937.56664,5242.5508 C2934.50772,5249.71602 2929.25266,5254 2923.4747,5254" id="Fill-18" fill="#F3B43D" transform="translate(2714.000000, 5044.000000) scale(-1, 1) translate(-2714.000000, -5044.000000) "></path>
            <path d="M2504.53388,5637 C2498.74286,5637 2493.47473,5632.73479 2490.45503,5625.53133 C2488.14123,5620.14768 2487.43533,5613.70247 2488.45497,5607.50371 C2489.48768,5601.24806 2492.12829,5595.97815 2495.90618,5592.62286 L2914.847,5220.50695 C2917.44838,5218.21321 2920.44193,5217 2923.4747,5217 C2929.2788,5217 2934.53387,5221.28416 2937.56664,5228.44972 C2939.86736,5233.87127 2940.57326,5240.29753 2939.52748,5246.53421 C2938.50785,5252.7709 2935.86724,5258.02185 2932.10241,5261.35818 L2513.1616,5633.49305 C2510.54714,5635.78679 2507.57974,5637 2504.53388,5637" id="Fill-19" fill="#F3B43D" transform="translate(2714.000000, 5427.000000) scale(-1, 1) translate(-2714.000000, -5427.000000) "></path>
            <path d="M2923.4747,6020 C2920.42884,6020 2917.46143,6018.78683 2914.86005,6016.47425 L2495.90583,5644.41305 C2492.12793,5641.03895 2489.48733,5635.76929 2488.45462,5629.51393 C2487.43498,5623.31543 2488.14089,5616.87052 2490.46775,5611.43025 C2493.47439,5604.30292 2498.74252,5600 2504.54662,5600 C2507.5794,5600 2510.54681,5601.21317 2513.1482,5603.50679 L2932.10241,5975.62486 C2935.85416,5978.94209 2938.49477,5984.17385 2939.52748,5990.41025 C2940.57326,5996.64666 2939.86736,6003.07262 2937.56663,6008.5508 C2934.54693,6015.71602 2929.27879,6020 2923.4747,6020" id="Fill-20" fill="#F3B43D" transform="translate(2714.000000, 5810.000000) scale(-1, 1) translate(-2714.000000, -5810.000000) "></path>
            <path d="M2494.4864,2273 C2489.8016,2273 2486,2266.70674 2486,2258.90396 L2486,2229.09604 C2486,2221.31452 2489.8016,2215 2494.4864,2215 L2917.5136,2215 C2922.2112,2215 2926,2221.31452 2926,2229.09604 L2926,2258.90396 C2926,2266.70674 2922.2112,2273 2917.5136,2273 L2494.4864,2273" id="Fill-21" fill="#F3B43D" transform="translate(2706.000000, 2244.000000) scale(-1, 1) translate(-2706.000000, -2244.000000) "></path>
            <path d="M2494.4864,2638 C2489.8016,2638 2486,2631.70674 2486,2623.90396 L2486,2594.09604 C2486,2586.29326 2489.8016,2580 2494.4864,2580 L2917.5136,2580 C2922.2112,2580 2926,2586.29326 2926,2594.09604 L2926,2623.90396 C2926,2631.70674 2922.2112,2638 2917.5136,2638 L2494.4864,2638" id="Fill-22" fill="#F3B43D" transform="translate(2706.000000, 2609.000000) scale(-1, 1) translate(-2706.000000, -2609.000000) "></path>
            <path d="M2494.4864,1893 C2489.8016,1893 2486,1886.6878 2486,1878.90912 L2486,1849.09088 C2486,1841.3122 2489.8016,1835 2494.4864,1835 L2917.5136,1835 C2922.2112,1835 2926,1841.3122 2926,1849.09088 L2926,1878.90912 C2926,1886.6878 2922.2112,1893 2917.5136,1893 L2494.4864,1893" id="Fill-23" fill="#F3B43D" transform="translate(2706.000000, 1864.000000) scale(-1, 1) translate(-2706.000000, -1864.000000) "></path>
            <path d="M2494.4864,3019 C2489.8016,3019 2486,3012.68548 2486,3004.90396 L2486,2975.07478 C2486,2967.29326 2489.8016,2961 2494.4864,2961 L2917.5136,2961 C2922.2112,2961 2926,2967.29326 2926,2975.07478 L2926,3004.90396 C2926,3012.68548 2922.2112,3019 2917.5136,3019 L2494.4864,3019" id="Fill-24" fill="#F3B43D" transform="translate(2706.000000, 2990.000000) scale(-1, 1) translate(-2706.000000, -2990.000000) "></path>
            <path d="M2494.4864,3384 C2489.8016,3384 2486,3377.6878 2486,3369.90912 L2486,3340.09088 C2486,3332.3122 2489.8016,3326 2494.4864,3326 L2917.5136,3326 C2922.2112,3326 2926,3332.3122 2926,3340.09088 L2926,3369.90912 C2926,3377.6878 2922.2112,3384 2917.5136,3384 L2494.4864,3384" id="Fill-25" fill="#F3B43D" transform="translate(2706.000000, 3355.000000) scale(-1, 1) translate(-2706.000000, -3355.000000) "></path>
            <path d="M2494.4864,3764 C2489.8016,3764 2486,3757.68548 2486,3749.90396 L2486,3720.09604 C2486,3712.29326 2489.8016,3706 2494.4864,3706 L2917.5136,3706 C2922.2112,3706 2926,3712.29326 2926,3720.09604 L2926,3749.90396 C2926,3757.68548 2922.2112,3764 2917.5136,3764 L2494.4864,3764" id="Fill-26" fill="#F3B43D" transform="translate(2706.000000, 3735.000000) scale(-1, 1) translate(-2706.000000, -3735.000000) "></path>
            <path d="M2494.4864,4147 C2489.8016,4147 2486,4140.70674 2486,4132.92522 L2486,4103.09604 C2486,4095.31452 2489.8016,4089 2494.4864,4089 L2917.5136,4089 C2922.2112,4089 2926,4095.31452 2926,4103.09604 L2926,4132.92522 C2926,4140.70674 2922.2112,4147 2917.5136,4147 L2494.4864,4147" id="Fill-27" fill="#F3B43D" transform="translate(2706.000000, 4118.000000) scale(-1, 1) translate(-2706.000000, -4118.000000) "></path>
            <path d="M2494.4864,4510 C2489.8016,4510 2486,4503.70674 2486,4495.90396 L2486,4466.09604 C2486,4458.31452 2489.8016,4452 2494.4864,4452 L2917.5136,4452 C2922.2112,4452 2926,4458.31452 2926,4466.09604 L2926,4495.90396 C2926,4503.70674 2922.2112,4510 2917.5136,4510 L2494.4864,4510" id="Fill-28" fill="#F3B43D" transform="translate(2706.000000, 4481.000000) scale(-1, 1) translate(-2706.000000, -4481.000000) "></path>
            <path d="M2494.4864,4892 C2489.8016,4892 2486,4885.70674 2486,4877.88269 L2486,4848.07478 C2486,4840.29326 2489.8016,4834 2494.4864,4834 L2917.5136,4834 C2922.2112,4834 2926,4840.29326 2926,4848.07478 L2926,4877.88269 C2926,4885.70674 2922.2112,4892 2917.5136,4892 L2494.4864,4892" id="Fill-29" fill="#F3B43D" transform="translate(2706.000000, 4863.000000) scale(-1, 1) translate(-2706.000000, -4863.000000) "></path>
            <path d="M2494.4864,5254 C2489.8016,5254 2486,5247.70674 2486,5239.92522 L2486,5210.09604 C2486,5202.29326 2489.8016,5196 2494.4864,5196 L2917.5136,5196 C2922.2112,5196 2926,5202.29326 2926,5210.09604 L2926,5239.92522 C2926,5247.70674 2922.2112,5254 2917.5136,5254 L2494.4864,5254" id="Fill-30" fill="#F3B43D" transform="translate(2706.000000, 5225.000000) scale(-1, 1) translate(-2706.000000, -5225.000000) "></path>
            <path d="M2494.4864,5658 C2489.8016,5658 2486,5651.68548 2486,5643.90396 L2486,5614.09604 C2486,5606.31452 2489.8016,5600 2494.4864,5600 L2917.5136,5600 C2922.2112,5600 2926,5606.31452 2926,5614.09604 L2926,5643.90396 C2926,5651.68548 2922.2112,5658 2917.5136,5658 L2494.4864,5658" id="Fill-31" fill="#F3B43D" transform="translate(2706.000000, 5629.000000) scale(-1, 1) translate(-2706.000000, -5629.000000) "></path>
            <path d="M2494.4864,6021 C2489.8016,6021 2486,6014.6878 2486,6006.90912 L2486,5977.09088 C2486,5969.3122 2489.8016,5963 2494.4864,5963 L2917.5136,5963 C2922.2112,5963 2926,5969.3122 2926,5977.09088 L2926,6006.90912 C2926,6014.6878 2922.2112,6021 2917.5136,6021 L2494.4864,6021" id="Fill-32" fill="#F3B43D" transform="translate(2706.000000, 5992.000000) scale(-1, 1) translate(-2706.000000, -5992.000000) "></path>
            <path d="M2521.66188,1470 C2516.86715,1470 2513,1464.1249 2513,1456.88489 L2513,1273.11511 C2513,1265.8751 2516.86715,1260 2521.66188,1260 L2906.32505,1260 C2911.11979,1260 2915,1265.8751 2915,1273.11511 L2915,1456.88489 C2915,1464.1249 2911.11979,1470 2906.32505,1470 L2521.66188,1470" id="Fill-33" fill="#F3B43D" transform="translate(2714.000000, 1365.000000) scale(-1, 1) translate(-2714.000000, -1365.000000) "></path>
            <path d="M2906.50558,6096 C2896.28212,6096 2888,6084.69312 2888,6070.67411 L2888,1458.32589 C2888,1444.34508 2896.28212,1433 2906.50558,1433 L2934.48045,1433 C2944.71788,1433 2953,1444.34508 2953,1458.32589 L2953,6070.67411 C2953,6084.69312 2944.71788,6096 2934.48045,6096 L2906.50558,6096" id="Fill-34" fill="#F9D044" transform="translate(2920.500000, 3764.500000) scale(-1, 1) translate(-2920.500000, -3764.500000) "></path>
            <path d="M2478.51558,6096 C2468.29431,6096 2460,6084.69312 2460,6070.67411 L2460,1458.32589 C2460,1444.34508 2468.29431,1433 2478.51558,1433 L2506.48442,1433 C2516.71966,1433 2525,1444.34508 2525,1458.32589 L2525,6070.67411 C2525,6084.69312 2516.71966,6096 2506.48442,6096 L2478.51558,6096" id="Fill-35" fill="#F9D044" transform="translate(2492.500000, 3764.500000) scale(-1, 1) translate(-2492.500000, -3764.500000) "></path>
            <path d="M2491.29266,1566 C2481.73928,1566 2474,1555.3643 2474,1542.25768 L2474,1456.74232 C2474,1443.6357 2481.73928,1433 2491.29266,1433 L2935.69429,1433 C2945.26072,1433 2953,1443.6357 2953,1456.74232 L2953,1542.25768 C2953,1555.3643 2945.26072,1566 2935.69429,1566 L2491.29266,1566" id="Fill-36" fill="#F9D044" transform="translate(2713.500000, 1499.500000) scale(-1, 1) translate(-2713.500000, -1499.500000) "></path>
            <path d="M2028.58109,6287 C2023.84402,6287 2020,6281.4272 2020,6274.5365 L2020,5995.48232 C2020,5988.59163 2023.84402,5983 2028.58109,5983 L3384.41891,5983 C3389.16892,5983 3393,5988.59163 3393,5995.48232 L3393,6274.5365 C3393,6281.4272 3389.16892,6287 3384.41891,6287 L2028.58109,6287" id="Fill-37" fill="#F3B43D" transform="translate(2706.500000, 6135.000000) scale(-1, 1) translate(-2706.500000, -6135.000000) "></path>
            <path d="M3935.81613,21.1772253 C3933.75402,16.7616346 3929.66847,15.667336 3926.67841,18.7582495 L2745,1246.31167 C2748.22205,1250.91924 2751.46987,1255.50761 2754.76924,1260 L3934.19221,34.8079619 C3937.16939,31.7170483 3937.89112,25.6120143 3935.81613,21.1772253" id="Fill-38" fill="#464546" transform="translate(3341.000000, 638.500000) scale(-1, 1) translate(-3341.000000, -638.500000) "></path>
            <path d="M2392.55814,1280 C2390.97324,1280 2389.38835,1279.15661 2388.12823,1277.46983 L2118.3067,918.031978 L394.46277,38.9886894 C391.007184,37.2252358 389.162472,31.6665234 390.370628,26.5678423 C391.552802,21.4883291 395.346153,18.7856448 398.775757,20.5299305 L2123.89279,900.22493 C2124.7372,900.665794 2125.50367,901.336673 2126.1662,902.2184 L2392.57113,1257.09427 L2658.96305,903.445151 C2661.67816,899.822403 2665.86124,900.167427 2668.30353,904.173533 C2670.74582,908.17964 2670.52498,914.351727 2667.80988,917.955306 L2396.98804,1277.48899 C2395.72792,1279.15661 2394.14303,1280 2392.55814,1280" id="Fill-39" fill="#464546" transform="translate(1530.000000, 650.000000) scale(-1, 1) translate(-1530.000000, -650.000000) "></path>
            <path d="M664.888888,1301 C659.642587,1301 654.566367,1298.17749 650.628371,1293.04741 L380.856023,937.984062 C377.716093,933.883804 375.949882,927.990873 376,921.83095 C376.054546,915.690097 377.925421,909.854379 381.117683,905.849476 C384.58469,901.482223 388.117112,897.172183 391.662616,892.919357 C394.370806,889.658221 397.680817,888.037188 400.990826,888.037188 C404.53633,888.037188 408.042587,889.887072 410.842358,893.56777 L664.928137,1227.93911 L923.357486,889.009808 C927.243148,883.860646 932.332451,881 937.644173,881 C943.701615,881 949.484325,884.756981 953.526988,891.336466 C957.334147,897.458248 959.270443,905.448985 958.969533,913.763929 C958.668622,922.097943 956.169759,929.745403 951.904687,935.314127 L679.175571,1293.00927 C675.276824,1298.15843 670.18752,1301 664.888888,1301" id="Fill-40" fill="#F9D044" transform="translate(667.500000, 1091.000000) scale(-1, 1) translate(-667.500000, -1091.000000) "></path>
            <path d="M2844.87355,918 C2836.78374,918 2829.73905,909.428625 2828.13915,897.635794 L2712.10793,50.8338138 L2655.11806,50.8338138 L2558.98233,896.811255 C2557.56307,909.08347 2550.47965,917.980824 2542.106,917.980824 C2541.17703,917.980824 2540.23515,917.865772 2539.29328,917.635669 C2534.76454,916.504324 2530.81641,912.841834 2528.17142,907.300163 C2525.52642,901.777666 2524.48133,895.047124 2525.24257,888.354932 L2623.79105,21.1887455 C2625.19741,8.91653089 2632.28082,0 2640.66738,0 L2726.08122,0 C2734.15811,0 2741.20282,8.55219952 2742.84143,20.3258553 L2861.64666,887.511217 C2862.56273,894.145883 2861.68537,900.933952 2859.1565,906.60985 C2856.64053,912.266575 2852.76981,916.139992 2848.30559,917.501441 C2847.14437,917.827422 2846.00896,918 2844.87355,918" id="Fill-41" fill="#F3B43D" transform="translate(2693.500000, 459.000000) scale(-1, 1) translate(-2693.500000, -459.000000) "></path>
            <path d="M2770.5178,497 C2767.20451,497 2764.02979,495.166473 2761.57316,491.827527 L2594.56032,266.168715 C2588.97937,258.622307 2588.45025,245.536721 2593.36351,236.9867 C2595.92092,232.547636 2599.61216,230 2603.49237,230 C2606.78047,230 2609.95518,231.833527 2612.41181,235.153173 L2779.43724,460.831285 C2782.13323,464.498337 2783.74579,469.53571 2783.97255,475.036287 C2784.19932,480.556166 2783.0151,485.883042 2780.63406,490.032601 C2778.07665,494.471664 2774.38541,497 2770.5178,497" id="Fill-42" fill="#F3B43D" transform="translate(2687.000000, 363.500000) scale(-1, 1) translate(-2687.000000, -363.500000) "></path>
            <path d="M2630.86161,497 C2626.96697,497 2623.22761,494.568165 2620.61393,490.264204 C2618.1167,486.191846 2616.83575,480.884271 2617.01689,475.364392 C2617.1851,469.863814 2618.78953,464.787841 2621.51966,461.082188 L2787.81147,235.365477 C2790.38633,231.910727 2793.68576,230 2797.14047,230 C2801.03511,230 2804.77448,232.451135 2807.38815,236.755096 C2809.88537,240.827455 2811.15339,246.115729 2810.98518,251.635608 C2810.80404,257.174787 2809.19961,262.250759 2806.45654,265.956411 L2640.17767,491.634523 C2637.64163,495.089273 2634.32926,497 2630.86161,497" id="Fill-43" fill="#F3B43D" transform="translate(2714.000000, 363.500000) scale(-1, 1) translate(-2714.000000, -363.500000) "></path>
            <g id="Group-6" transform="translate(739.000000, 1319.000000)">
                <polygon id="Rectangle" fill="#3D6FB6" points="105 1445 190 1502.092 190 1790.93145 105 1847"></polygon>
                <g id="Group">
                    <path d="M129.493692,1499.81307 C100.928303,1499.81307 77.7,1469.23298 77.7,1431.66362 C77.7,1424.65776 82.0024723,1418.98003 87.3269394,1418.98003 C92.6514068,1418.98003 96.9664966,1424.65776 96.9664966,1431.66362 C96.9664966,1455.25445 111.564621,1474.46247 129.493692,1474.46247 C147.422762,1474.46247 162.020886,1455.25445 162.020886,1431.66362 C162.020886,1408.0562 147.422762,1388.86478 129.493692,1388.86478 C124.169224,1388.86478 119.854135,1383.18704 119.854135,1376.18117 L119.854135,1340.78662 C119.854135,1333.76416 124.169224,1328.10303 129.493692,1328.10303 C134.818159,1328.10303 139.133248,1333.76416 139.133248,1340.78662 L139.133248,1364.67629 C163.105968,1370.63625 181.3,1398.41068 181.3,1431.66362 C181.3,1469.23298 158.059079,1499.81307 129.493692,1499.81307" id="Fill-44" fill="#2B2B2E" transform="translate(129.500000, 1413.958050) scale(-1, 1) translate(-129.500000, -1413.958050) "></path>
                    <path d="M160.4875,1069.47802 C156.657563,1069.47802 153.55,1065.5618 153.55,1060.73523 L153.55,43.7207589 C153.55,38.8941913 156.657563,34.9779727 160.4875,34.9779727 C164.331066,34.9779727 167.425,38.8941913 167.425,43.7207589 L167.425,1060.73523 C167.425,1065.5618 164.331066,1069.47802 160.4875,1069.47802" id="Fill-46" fill="#464546" transform="translate(160.487500, 552.227994) scale(-1, 1) translate(-160.487500, -552.227994) "></path>
                    <path d="M95.744308,1069.47802 C91.9181305,1069.47802 88.8,1065.5618 88.8,1060.73523 L88.8,43.7207589 C88.8,38.8941913 91.9181305,34.9779727 95.744308,34.9779727 C99.5704854,34.9779727 102.675,38.8941913 102.675,43.7207589 L102.675,1060.73523 C102.675,1065.5618 99.5704854,1069.47802 95.744308,1069.47802" id="Fill-47" fill="#464546" transform="translate(95.737500, 552.227994) scale(-1, 1) translate(-95.737500, -552.227994) "></path>
                    <path d="M14.4002872,103.87398 C6.44999505,103.87398 0,94.9982797 0,84.018579 L0,19.8730814 C0,8.89338073 6.44999505,0 14.4002872,0 L244.599713,0 C252.562828,0 259,8.89338073 259,19.8730814 L259,84.018579 C259,94.9982797 252.562828,103.87398 244.599713,103.87398 L14.4002872,103.87398" id="Fill-58" fill="#F9D044" transform="translate(129.500000, 51.936990) scale(-1, 1) translate(-129.500000, -51.936990) "></path>
                    <path d="M82.9175404,1347.18192 C68.4973103,1347.18192 56.3458631,1333.38576 54.0129903,1314.36247 L25.3647999,1081.06162 C23.9676398,1069.68193 26.3646025,1058.14799 31.9404248,1049.37328 C37.5162471,1040.58144 45.6428479,1035.55998 54.2693499,1035.55998 L189.934875,1035.55998 C198.676738,1035.55998 206.867429,1040.70141 212.456069,1049.66463 C218.031891,1058.62785 220.313493,1070.33317 218.736881,1081.81569 L186.615017,1315.11655 C184.064238,1333.69424 171.951245,1347.18192 157.813011,1347.18192 L82.9175404,1347.18192" id="Fill-60" fill="#F3B43D" transform="translate(122.100000, 1191.370951) scale(-1, 1) translate(-122.100000, -1191.370951) "></path>
                </g>
                <path d="M106,1445 C131.668007,1460.24226 146.801187,1471.74227 151.399542,1479.5 C155.997897,1487.25773 154.497845,1498.75774 146.899383,1514 L106,1497.95104 L106,1445 Z" id="Rectangle" fill="#3D6FB6"></path>
            </g>
            <path d="M745.186458,1338 C727.441657,1338 713,1316.73773 713,1290.59344 C713,1284.75008 716.213525,1280 720.195223,1280 L1003.80478,1280 C1007.78648,1280 1011,1284.75008 1011,1290.59344 C1011,1316.73773 996.558346,1338 978.813538,1338 L745.186458,1338" id="Fill-45" fill="#F3B43D" transform="translate(862.000000, 1309.000000) scale(-1, 1) translate(-862.000000, -1309.000000) "></path>
            <path d="M14.532783,1299 C6.50934089,1299 0,1289.09637 0,1276.86943 L0,1245.13057 C0,1232.92332 6.50934089,1223 14.532783,1223 L3443.45428,1223 C3451.49066,1223 3458,1232.92332 3458,1245.13057 L3458,1276.86943 C3458,1289.09637 3451.49066,1299 3443.45428,1299 L14.532783,1299" id="Fill-48" fill="#F9D044" transform="translate(1729.000000, 1261.000000) scale(-1, 1) translate(-1729.000000, -1261.000000) "></path>
            <path d="M326.544751,955 C318.521846,955 312,944.348565 312,931.198384 L312,902.78044 C312,889.630259 318.521846,879 326.544751,879 L3081.45525,879 C3089.49109,879 3096,889.630259 3096,902.78044 L3096,931.198384 C3096,944.348565 3089.49109,955 3081.45525,955 L326.544751,955" id="Fill-49" fill="#F9D044" transform="translate(1704.000000, 917.000000) scale(-1, 1) translate(-1704.000000, -917.000000) "></path>
            <path d="M3071.45282,1316 C3069.59957,1316 3067.73344,1315.47428 3065.94454,1314.36441 C3060.52633,1310.97641 3057,1302.99317 3057,1294.11425 L3057,1262.72652 C3057,1256.90459 3058.53151,1251.31633 3061.27278,1247.20789 L3303.3414,883.347645 C3306.10842,879.180786 3309.78919,877 3313.53432,877 C3315.40043,877 3317.30517,877.525725 3319.09408,878.674533 C3324.47367,882.062539 3328,890.045774 3328,898.866273 L3328,924.996762 C3328,930.77974 3326.48136,936.309589 3323.79156,940.418034 L3081.72294,1309.51605 C3078.95593,1313.76079 3075.23655,1316 3071.45282,1316" id="Fill-50" fill="#F9D044" transform="translate(3192.500000, 1096.500000) scale(-1, 1) translate(-3192.500000, -1096.500000) "></path>
            <polyline id="Fill-51" fill="#F9D044" transform="translate(3192.000000, 1089.500000) scale(-1, 1) translate(-3192.000000, -1089.500000) " points="3315 898 3069 1250.5849 3069 1281 3315 923.339623 3315 898"></polyline>
            <path d="M322.530846,1316 C319.32549,1316 316.158753,1314.40335 313.545552,1311.26847 L5.4709882,942.150981 C2.0210474,938.003593 0,931.69489 0,924.996762 L0,898.866273 C0,890.513084 3.15386378,882.880333 8.13568127,879.200257 C10.1438557,877.720438 12.3065052,877 14.4691546,877 C17.6358914,877 20.7768822,878.557705 23.3643379,881.614699 L331.438901,1245.47494 C334.953206,1249.62233 337,1255.98944 337,1262.72652 L337,1294.11425 C337,1302.50638 333.82039,1310.17809 328.838573,1313.81921 C326.830398,1315.27956 324.680622,1316 322.530846,1316" id="Fill-52" fill="#F9D044" transform="translate(168.500000, 1096.500000) scale(-1, 1) translate(-168.500000, -1096.500000) "></path>
            <path d="M2804.50401,1301 C2799.25227,1301 2794.208,1298.16665 2790.31782,1293.01341 L2555.36404,981.89736 L2555.36404,1254.62068 C2555.36404,1271.73482 2545.85904,1285.67333 2534.18851,1285.67333 C2522.505,1285.67333 2513,1271.73482 2513,1254.62068 L2513,912.052655 C2513,899.806538 2517.92756,888.682347 2525.56528,883.681215 C2528.35324,881.893739 2531.23196,881 2534.18851,881 C2539.45321,881 2544.49747,883.852356 2548.40062,889.043645 L2804.52994,1228.15081 L3060.67223,890.203604 C3064.5624,885.050346 3069.5937,882.217005 3074.84544,882.217005 C3080.82335,882.217005 3086.56785,885.9631 3090.57473,892.504505 C3098.38102,905.226015 3097.68079,924.907276 3089.00569,936.354734 L2818.66425,1293.03241 C2814.80001,1298.16665 2809.76871,1301 2804.50401,1301" id="Fill-53" fill="#F9D044" transform="translate(2804.500000, 1091.000000) scale(-1, 1) translate(-2804.500000, -1091.000000) "></path>
            <path d="M2272.50939,1301 C2267.27045,1301 2262.23899,1298.1858 2258.33572,1293.03278 L1987.98541,935.097247 C1979.31004,923.631293 1978.62275,903.969938 1986.44227,891.268019 C1990.46225,884.745925 1996.19396,881 2002.1591,881 C2007.42397,881 2012.46841,883.852227 2016.35871,889.043282 L2272.53533,1228.15411 L2528.68602,890.222202 C2532.55039,885.088193 2537.59481,882.235965 2542.83376,882.235965 C2548.82483,882.235965 2554.55655,885.981891 2558.56356,892.503984 C2566.38307,905.281963 2565.68282,924.943318 2557.00744,936.371242 L2286.67011,1293.03278 C2282.76683,1298.1858 2277.73538,1301 2272.50939,1301" id="Fill-54" fill="#F9D044" transform="translate(2272.500000, 1091.000000) scale(-1, 1) translate(-2272.500000, -1091.000000) "></path>
            <path d="M1742.499,1301 C1737.26015,1301 1732.22878,1298.1858 1728.33854,1293.03278 L1457.98013,935.097247 C1449.3049,923.612278 1448.63059,903.950923 1456.437,891.268019 C1460.4569,884.745925 1466.17555,881 1472.15355,881 C1477.41834,881 1482.46267,883.852227 1486.36588,889.043282 L1742.51197,1228.15411 L1998.67103,890.222202 C2002.53533,885.088193 2007.5667,882.235965 2012.83148,882.235965 C2018.83542,882.235965 2024.58,885.981891 2028.58694,892.542014 C2036.38038,905.243933 2035.68014,924.924303 2026.99194,936.371242 L1756.65946,1293.03278 C1752.75625,1298.1858 1747.73786,1301 1742.499,1301" id="Fill-55" fill="#F9D044" transform="translate(1742.500000, 1091.000000) scale(-1, 1) translate(-1742.500000, -1091.000000) "></path>
            <path d="M1211.5065,1301 C1206.25474,1301 1201.21046,1298.16678 1197.32027,1293.01376 L926.991058,935.097247 C922.789655,929.544912 920.312901,921.919957 920.027621,913.629482 C919.742341,905.319993 921.674467,897.3908 925.473885,891.229989 C929.441879,884.76494 935.186391,881 941.17728,881 C946.442002,881 951.486284,883.871242 955.389432,889.043282 L1211.51946,1228.15411 L1467.67542,890.222202 C1471.55264,885.088193 1476.58394,882.235965 1481.82274,882.235965 C1487.82659,882.235965 1493.5711,885.981891 1497.56503,892.522999 C1505.38431,905.243933 1504.68408,924.924303 1495.99599,936.371242 L1225.66678,1293.03278 C1221.80253,1298.16678 1216.75824,1301 1211.5065,1301" id="Fill-56" fill="#F9D044" transform="translate(1211.500000, 1091.000000) scale(-1, 1) translate(-1211.500000, -1091.000000) "></path>
            <path d="M317.5,1301 C306.752908,1301 298,1287.0805 298,1269.94735 L298,912.052655 C298,894.9195 306.752908,881 317.5,881 C328.23515,881 337,894.9195 337,912.052655 L337,1269.94735 C337,1287.0805 328.23515,1301 317.5,1301" id="Fill-57" fill="#F9D044" transform="translate(317.500000, 1091.000000) scale(-1, 1) translate(-317.500000, -1091.000000) "></path>
            <path d="M3388.34036,1299 C3384.2914,1299 3381,1294.27487 3381,1288.42024 C3381,1220.93192 3419.11239,1166 3465.93656,1166 L3891.06344,1166 C3937.88761,1166 3976,1220.93192 3976,1288.42024 C3976,1294.27487 3972.7086,1299 3968.65964,1299 L3388.34036,1299" id="Fill-59" fill="#F3B43D" transform="translate(3678.500000, 1232.500000) scale(-1, 1) translate(-3678.500000, -1232.500000) "></path>
        </g>
        <g id="Fill-1-Clipped" transform="translate(1323.000000, 3511.000000)">
            <mask id="mask-2" fill="white">
                <use xlink:href="#path-1"></use>
            </mask>
            <g id="path-1"></g>
            <polygon id="Fill-1" fill="url(#linearGradient-3)" fill-rule="nonzero" mask="url(#mask-2)" points="0 1003 968 1003 968 0 0 0"></polygon>
        </g>
        <path d="M1596.39478,4908 L1596.39478,4722.26571 L1667.43044,4722.26571 L1667.43044,4675 L1474,4675 L1474,4722.26571 L1545.03566,4722.26571 L1545.03566,4908 L1596.39478,4908 Z M1758.14264,4908 L1758.14264,4814.46714 L1852.85686,4814.46714 L1852.85686,4908 L1904.21597,4908 L1904.21597,4675 L1852.85686,4675 L1852.85686,4767.20143 L1758.14264,4767.20143 L1758.14264,4675 L1706.78353,4675 L1706.78353,4908 L1758.14264,4908 Z M2138,4908 L2138,4862.39857 L2011.26971,4862.39857 L2011.26971,4813.46857 L2121.32496,4813.46857 L2121.32496,4767.86714 L2011.26971,4767.86714 L2011.26971,4720.60143 L2136.3325,4720.60143 L2136.3325,4675 L1960.2441,4675 L1960.2441,4908 L2138,4908 Z" id="path-4" fill="#000000" fill-rule="nonzero"></path>
        <path d="M1596.39478,4908 L1596.39478,4722.26571 L1667.43044,4722.26571 L1667.43044,4675 L1474,4675 L1474,4722.26571 L1545.03566,4722.26571 L1545.03566,4908 L1596.39478,4908 Z M1758.14264,4908 L1758.14264,4814.46714 L1852.85686,4814.46714 L1852.85686,4908 L1904.21597,4908 L1904.21597,4675 L1852.85686,4675 L1852.85686,4767.20143 L1758.14264,4767.20143 L1758.14264,4675 L1706.78353,4675 L1706.78353,4908 L1758.14264,4908 Z M2138,4908 L2138,4862.39857 L2011.26971,4862.39857 L2011.26971,4813.46857 L2121.32496,4813.46857 L2121.32496,4767.86714 L2011.26971,4767.86714 L2011.26971,4720.60143 L2136.3325,4720.60143 L2136.3325,4675 L1960.2441,4675 L1960.2441,4908 L2138,4908 Z" id="path-4" fill="#393939" fill-rule="nonzero"></path>
        <path d="M633.034962,5458 C650.937995,5458 667.085828,5456.50898 681.478462,5453.52693 C695.871097,5450.54489 709.122851,5446.15953 721.233726,5440.37086 C733.344601,5434.58218 744.490117,5427.65331 754.670272,5419.58425 C764.850428,5411.51519 774.679544,5402.39365 784.15762,5392.21961 L732.554761,5340.12155 C718.162127,5353.45304 703.681733,5363.9779 689.113579,5371.69613 C674.545425,5379.41436 656.730153,5383.27348 635.667761,5383.27348 C619.870968,5383.27348 605.390574,5380.20373 592.226579,5374.06423 C579.062585,5367.92472 567.829309,5359.59254 558.526753,5349.06768 C549.224197,5338.54282 541.94012,5326.26381 536.674522,5312.23066 C531.408924,5298.19751 528.776125,5283.28729 528.776125,5267.5 L528.776125,5266.44751 C528.776125,5250.66022 531.408924,5235.83771 536.674522,5221.97997 C541.94012,5208.12224 549.311957,5195.93094 558.790033,5185.40608 C568.268109,5174.88122 579.589144,5166.63674 592.753139,5160.67265 C605.917133,5154.70856 620.222008,5151.72652 635.667761,5151.72652 C654.272874,5151.72652 671.035027,5155.41022 685.954221,5162.77762 C700.873414,5170.14503 715.529328,5180.31906 729.921963,5193.29972 L781.524821,5133.83425 C773.099865,5125.41436 763.972829,5117.69613 754.143713,5110.67956 C744.314597,5103.66298 733.607881,5097.6989 722.023566,5092.78729 C710.439251,5087.87569 697.538536,5084.01657 683.321422,5081.20994 C669.104308,5078.40331 653.395274,5077 636.194321,5077 C607.760093,5077 581.783143,5081.99931 558.263473,5091.99793 C534.743803,5101.99655 514.559011,5115.67887 497.709098,5133.04489 C480.859185,5150.41091 467.69519,5170.58356 458.217114,5193.56285 C448.739038,5216.54213 444,5241.18785 444,5267.5 L444,5268.55249 C444,5294.86464 448.739038,5319.59807 458.217114,5342.75276 C467.69519,5365.90746 480.859185,5385.9924 497.709098,5403.0076 C514.559011,5420.02279 534.568283,5433.44199 557.736913,5443.26519 C580.905544,5453.0884 606.004893,5458 633.034962,5458 Z M1440.25111,5451.68508 C1469.03638,5451.68508 1495.45213,5446.9489 1519.49836,5437.47652 C1543.54459,5428.00414 1564.25594,5415.02348 1581.63241,5398.53453 C1599.00889,5382.04558 1612.43616,5362.57459 1621.91424,5340.12155 C1631.39231,5317.66851 1636.13135,5293.46133 1636.13135,5267.5 L1636.13135,5266.44751 C1636.13135,5240.48619 1631.39231,5216.36671 1621.91424,5194.08909 C1612.43616,5171.81146 1599.00889,5152.42818 1581.63241,5135.93923 C1564.25594,5119.45028 1543.54459,5106.55732 1519.49836,5097.26036 C1495.45213,5087.9634 1469.03638,5083.31492 1440.25111,5083.31492 L1296.50029,5083.31492 L1296.50029,5451.68508 L1440.25111,5451.68508 Z M1440.25111,5378.53729 L1377.5905,5378.53729 L1377.5905,5156.46271 L1440.25111,5156.46271 C1456.74998,5156.46271 1471.8447,5159.18163 1485.53525,5164.61948 C1499.22581,5170.05732 1510.89788,5177.68785 1520.55148,5187.51105 C1530.20507,5197.33425 1537.75243,5209.08702 1543.19355,5222.76934 C1548.63467,5236.45166 1551.35523,5251.36188 1551.35523,5267.5 L1551.35523,5268.55249 C1551.35523,5285.04144 1548.63467,5299.95166 1543.19355,5313.28315 C1537.75243,5326.61464 1530.20507,5338.19199 1520.55148,5348.01519 C1510.89788,5357.8384 1499.22581,5365.38122 1485.53525,5370.64365 C1471.8447,5375.90608 1456.74998,5378.53729 1440.25111,5378.53729 Z M1988.92641,5451.68508 L1988.92641,5379.58978 L1788.83369,5379.58978 L1788.83369,5302.23204 L1962.59842,5302.23204 L1962.59842,5230.13674 L1788.83369,5230.13674 L1788.83369,5155.41022 L1986.29361,5155.41022 L1986.29361,5083.31492 L1708.27004,5083.31492 L1708.27004,5451.68508 L1988.92641,5451.68508 Z M2341.72146,5451.68508 L2341.72146,5379.58978 L2141.62874,5379.58978 L2141.62874,5302.23204 L2315.39347,5302.23204 L2315.39347,5230.13674 L2141.62874,5230.13674 L2141.62874,5155.41022 L2339.08866,5155.41022 L2339.08866,5083.31492 L2061.0651,5083.31492 L2061.0651,5451.68508 L2341.72146,5451.68508 Z M2494.95036,5451.68508 L2494.95036,5333.80663 L2558.66409,5333.80663 L2637.64806,5451.68508 L2732.42882,5451.68508 L2642.3871,5320.12431 C2665.90677,5311.35359 2684.95068,5297.58356 2699.51883,5278.81423 C2714.08699,5260.04489 2721.37106,5235.75 2721.37106,5205.92956 L2721.37106,5204.87707 C2721.37106,5166.63674 2709.17243,5136.8163 2684.77516,5115.41575 C2660.37789,5094.01519 2626.23926,5083.31492 2582.35928,5083.31492 L2413.86015,5083.31492 L2413.86015,5451.68508 L2494.95036,5451.68508 Z M2577.09368,5262.23757 L2494.95036,5262.23757 L2494.95036,5156.46271 L2575.514,5156.46271 C2595.52328,5156.46271 2611.14455,5160.84807 2622.37782,5169.61878 C2633.6111,5178.3895 2639.22774,5191.54558 2639.22774,5209.08702 L2639.22774,5210.1395 C2639.22774,5225.9268 2633.87438,5238.55663 2623.16766,5248.02901 C2612.46095,5257.50138 2597.10296,5262.23757 2577.09368,5262.23757 Z M2973.5932,5458 C3002.02743,5458 3028.26766,5453.00069 3052.31389,5443.00207 C3076.36012,5433.00345 3097.07147,5419.32113 3114.44794,5401.95511 C3131.82442,5384.58909 3145.42721,5364.41644 3155.25633,5341.43715 C3165.08544,5318.45787 3170,5293.81215 3170,5267.5 L3170,5266.44751 C3170,5240.13536 3165.1732,5215.48964 3155.51961,5192.51036 C3145.86601,5169.53108 3132.35098,5149.53384 3114.9745,5132.51865 C3097.59803,5115.50345 3076.97444,5101.99655 3053.10373,5091.99793 C3029.23302,5081.99931 3003.08055,5077 2974.64632,5077 C2946.21209,5077 2919.97186,5081.99931 2895.92563,5091.99793 C2871.8794,5101.99655 2851.16805,5115.67887 2833.79158,5133.04489 C2816.41511,5150.41091 2802.81231,5170.58356 2792.98319,5193.56285 C2783.15408,5216.54213 2778.23952,5241.18785 2778.23952,5267.5 L2778.23952,5268.55249 C2778.23952,5294.86464 2783.06632,5319.51036 2792.71992,5342.48964 C2802.37351,5365.46892 2815.88855,5385.46616 2833.26502,5402.48135 C2850.64149,5419.49655 2871.26508,5433.00345 2895.13579,5443.00207 C2919.0065,5453.00069 2945.15897,5458 2973.5932,5458 Z M2974.64632,5383.27348 C2958.14745,5383.27348 2943.14049,5380.20373 2929.62546,5374.06423 C2916.11042,5367.92472 2904.35059,5359.59254 2894.34595,5349.06768 C2884.34132,5338.54282 2876.61844,5326.26381 2871.17732,5312.23066 C2865.73621,5298.19751 2863.01565,5283.28729 2863.01565,5267.5 L2863.01565,5266.44751 C2863.01565,5250.66022 2865.73621,5235.83771 2871.17732,5221.97997 C2876.61844,5208.12224 2884.1658,5195.93094 2893.81939,5185.40608 C2903.47299,5174.88122 2915.0573,5166.63674 2928.57234,5160.67265 C2942.08737,5154.70856 2957.09433,5151.72652 2973.5932,5151.72652 C2989.74103,5151.72652 3004.66023,5154.79627 3018.35078,5160.93577 C3032.04134,5167.07528 3043.88893,5175.40746 3053.89357,5185.93232 C3063.8982,5196.45718 3071.62108,5208.73619 3077.0622,5222.76934 C3082.50332,5236.80249 3085.22387,5251.71271 3085.22387,5267.5 L3085.22387,5268.55249 C3085.22387,5284.33978 3082.50332,5299.16229 3077.0622,5313.02003 C3071.62108,5326.87776 3064.07372,5339.06906 3054.42013,5349.59392 C3044.76653,5360.11878 3033.09446,5368.36326 3019.4039,5374.32735 C3005.71335,5380.29144 2990.79415,5383.27348 2974.64632,5383.27348 Z" id="path-5" fill="#000000" fill-rule="nonzero"></path>
        <path d="M633.034962,5458 C650.937995,5458 667.085828,5456.50898 681.478462,5453.52693 C695.871097,5450.54489 709.122851,5446.15953 721.233726,5440.37086 C733.344601,5434.58218 744.490117,5427.65331 754.670272,5419.58425 C764.850428,5411.51519 774.679544,5402.39365 784.15762,5392.21961 L732.554761,5340.12155 C718.162127,5353.45304 703.681733,5363.9779 689.113579,5371.69613 C674.545425,5379.41436 656.730153,5383.27348 635.667761,5383.27348 C619.870968,5383.27348 605.390574,5380.20373 592.226579,5374.06423 C579.062585,5367.92472 567.829309,5359.59254 558.526753,5349.06768 C549.224197,5338.54282 541.94012,5326.26381 536.674522,5312.23066 C531.408924,5298.19751 528.776125,5283.28729 528.776125,5267.5 L528.776125,5266.44751 C528.776125,5250.66022 531.408924,5235.83771 536.674522,5221.97997 C541.94012,5208.12224 549.311957,5195.93094 558.790033,5185.40608 C568.268109,5174.88122 579.589144,5166.63674 592.753139,5160.67265 C605.917133,5154.70856 620.222008,5151.72652 635.667761,5151.72652 C654.272874,5151.72652 671.035027,5155.41022 685.954221,5162.77762 C700.873414,5170.14503 715.529328,5180.31906 729.921963,5193.29972 L781.524821,5133.83425 C773.099865,5125.41436 763.972829,5117.69613 754.143713,5110.67956 C744.314597,5103.66298 733.607881,5097.6989 722.023566,5092.78729 C710.439251,5087.87569 697.538536,5084.01657 683.321422,5081.20994 C669.104308,5078.40331 653.395274,5077 636.194321,5077 C607.760093,5077 581.783143,5081.99931 558.263473,5091.99793 C534.743803,5101.99655 514.559011,5115.67887 497.709098,5133.04489 C480.859185,5150.41091 467.69519,5170.58356 458.217114,5193.56285 C448.739038,5216.54213 444,5241.18785 444,5267.5 L444,5268.55249 C444,5294.86464 448.739038,5319.59807 458.217114,5342.75276 C467.69519,5365.90746 480.859185,5385.9924 497.709098,5403.0076 C514.559011,5420.02279 534.568283,5433.44199 557.736913,5443.26519 C580.905544,5453.0884 606.004893,5458 633.034962,5458 Z M1440.25111,5451.68508 C1469.03638,5451.68508 1495.45213,5446.9489 1519.49836,5437.47652 C1543.54459,5428.00414 1564.25594,5415.02348 1581.63241,5398.53453 C1599.00889,5382.04558 1612.43616,5362.57459 1621.91424,5340.12155 C1631.39231,5317.66851 1636.13135,5293.46133 1636.13135,5267.5 L1636.13135,5266.44751 C1636.13135,5240.48619 1631.39231,5216.36671 1621.91424,5194.08909 C1612.43616,5171.81146 1599.00889,5152.42818 1581.63241,5135.93923 C1564.25594,5119.45028 1543.54459,5106.55732 1519.49836,5097.26036 C1495.45213,5087.9634 1469.03638,5083.31492 1440.25111,5083.31492 L1296.50029,5083.31492 L1296.50029,5451.68508 L1440.25111,5451.68508 Z M1440.25111,5378.53729 L1377.5905,5378.53729 L1377.5905,5156.46271 L1440.25111,5156.46271 C1456.74998,5156.46271 1471.8447,5159.18163 1485.53525,5164.61948 C1499.22581,5170.05732 1510.89788,5177.68785 1520.55148,5187.51105 C1530.20507,5197.33425 1537.75243,5209.08702 1543.19355,5222.76934 C1548.63467,5236.45166 1551.35523,5251.36188 1551.35523,5267.5 L1551.35523,5268.55249 C1551.35523,5285.04144 1548.63467,5299.95166 1543.19355,5313.28315 C1537.75243,5326.61464 1530.20507,5338.19199 1520.55148,5348.01519 C1510.89788,5357.8384 1499.22581,5365.38122 1485.53525,5370.64365 C1471.8447,5375.90608 1456.74998,5378.53729 1440.25111,5378.53729 Z M1988.92641,5451.68508 L1988.92641,5379.58978 L1788.83369,5379.58978 L1788.83369,5302.23204 L1962.59842,5302.23204 L1962.59842,5230.13674 L1788.83369,5230.13674 L1788.83369,5155.41022 L1986.29361,5155.41022 L1986.29361,5083.31492 L1708.27004,5083.31492 L1708.27004,5451.68508 L1988.92641,5451.68508 Z M2341.72146,5451.68508 L2341.72146,5379.58978 L2141.62874,5379.58978 L2141.62874,5302.23204 L2315.39347,5302.23204 L2315.39347,5230.13674 L2141.62874,5230.13674 L2141.62874,5155.41022 L2339.08866,5155.41022 L2339.08866,5083.31492 L2061.0651,5083.31492 L2061.0651,5451.68508 L2341.72146,5451.68508 Z M2494.95036,5451.68508 L2494.95036,5333.80663 L2558.66409,5333.80663 L2637.64806,5451.68508 L2732.42882,5451.68508 L2642.3871,5320.12431 C2665.90677,5311.35359 2684.95068,5297.58356 2699.51883,5278.81423 C2714.08699,5260.04489 2721.37106,5235.75 2721.37106,5205.92956 L2721.37106,5204.87707 C2721.37106,5166.63674 2709.17243,5136.8163 2684.77516,5115.41575 C2660.37789,5094.01519 2626.23926,5083.31492 2582.35928,5083.31492 L2413.86015,5083.31492 L2413.86015,5451.68508 L2494.95036,5451.68508 Z M2577.09368,5262.23757 L2494.95036,5262.23757 L2494.95036,5156.46271 L2575.514,5156.46271 C2595.52328,5156.46271 2611.14455,5160.84807 2622.37782,5169.61878 C2633.6111,5178.3895 2639.22774,5191.54558 2639.22774,5209.08702 L2639.22774,5210.1395 C2639.22774,5225.9268 2633.87438,5238.55663 2623.16766,5248.02901 C2612.46095,5257.50138 2597.10296,5262.23757 2577.09368,5262.23757 Z M2973.5932,5458 C3002.02743,5458 3028.26766,5453.00069 3052.31389,5443.00207 C3076.36012,5433.00345 3097.07147,5419.32113 3114.44794,5401.95511 C3131.82442,5384.58909 3145.42721,5364.41644 3155.25633,5341.43715 C3165.08544,5318.45787 3170,5293.81215 3170,5267.5 L3170,5266.44751 C3170,5240.13536 3165.1732,5215.48964 3155.51961,5192.51036 C3145.86601,5169.53108 3132.35098,5149.53384 3114.9745,5132.51865 C3097.59803,5115.50345 3076.97444,5101.99655 3053.10373,5091.99793 C3029.23302,5081.99931 3003.08055,5077 2974.64632,5077 C2946.21209,5077 2919.97186,5081.99931 2895.92563,5091.99793 C2871.8794,5101.99655 2851.16805,5115.67887 2833.79158,5133.04489 C2816.41511,5150.41091 2802.81231,5170.58356 2792.98319,5193.56285 C2783.15408,5216.54213 2778.23952,5241.18785 2778.23952,5267.5 L2778.23952,5268.55249 C2778.23952,5294.86464 2783.06632,5319.51036 2792.71992,5342.48964 C2802.37351,5365.46892 2815.88855,5385.46616 2833.26502,5402.48135 C2850.64149,5419.49655 2871.26508,5433.00345 2895.13579,5443.00207 C2919.0065,5453.00069 2945.15897,5458 2973.5932,5458 Z M2974.64632,5383.27348 C2958.14745,5383.27348 2943.14049,5380.20373 2929.62546,5374.06423 C2916.11042,5367.92472 2904.35059,5359.59254 2894.34595,5349.06768 C2884.34132,5338.54282 2876.61844,5326.26381 2871.17732,5312.23066 C2865.73621,5298.19751 2863.01565,5283.28729 2863.01565,5267.5 L2863.01565,5266.44751 C2863.01565,5250.66022 2865.73621,5235.83771 2871.17732,5221.97997 C2876.61844,5208.12224 2884.1658,5195.93094 2893.81939,5185.40608 C2903.47299,5174.88122 2915.0573,5166.63674 2928.57234,5160.67265 C2942.08737,5154.70856 2957.09433,5151.72652 2973.5932,5151.72652 C2989.74103,5151.72652 3004.66023,5154.79627 3018.35078,5160.93577 C3032.04134,5167.07528 3043.88893,5175.40746 3053.89357,5185.93232 C3063.8982,5196.45718 3071.62108,5208.73619 3077.0622,5222.76934 C3082.50332,5236.80249 3085.22387,5251.71271 3085.22387,5267.5 L3085.22387,5268.55249 C3085.22387,5284.33978 3082.50332,5299.16229 3077.0622,5313.02003 C3071.62108,5326.87776 3064.07372,5339.06906 3054.42013,5349.59392 C3044.76653,5360.11878 3033.09446,5368.36326 3019.4039,5374.32735 C3005.71335,5380.29144 2990.79415,5383.27348 2974.64632,5383.27348 Z" id="path-5" fill="#393939" fill-rule="nonzero"></path>
        <path d="M1240.10492,5912 C1264.81882,5912 1286.76528,5907.82528 1305.94429,5899.47583 C1325.12331,5891.12638 1341.6636,5881.04282 1355.56517,5869.22514 L1355.56517,5752.07597 L1238.17415,5752.07597 L1238.17415,5803.32873 L1298.02812,5803.32873 L1298.02812,5841.86464 C1282.83937,5852.6547 1264.17523,5858.04972 1242.03569,5858.04972 C1229.93618,5858.04972 1218.93077,5855.93025 1209.01947,5851.6913 C1199.10817,5847.45235 1190.48405,5841.47928 1183.14711,5833.7721 C1175.81017,5826.06492 1170.14657,5817.00898 1166.1563,5806.60428 C1162.16604,5796.19959 1160.1709,5784.83149 1160.1709,5772.5 L1160.1709,5771.72928 C1160.1709,5760.16851 1162.16604,5749.31423 1166.1563,5739.16644 C1170.14657,5729.01865 1175.68145,5720.15539 1182.76095,5712.57666 C1189.84045,5704.99793 1198.07842,5698.96064 1207.47485,5694.46478 C1216.87128,5689.96892 1226.97566,5687.72099 1237.78799,5687.72099 C1245.51109,5687.72099 1252.59059,5688.36326 1259.0265,5689.64779 C1265.46241,5690.93232 1271.44781,5692.73066 1276.98269,5695.04282 C1282.51758,5697.35497 1287.85938,5700.18094 1293.00811,5703.52072 C1298.15684,5706.8605 1303.30557,5710.71409 1308.4543,5715.08149 L1345.9113,5669.99448 C1338.96052,5664.08564 1331.7523,5658.81906 1324.28664,5654.19475 C1316.82098,5649.57044 1308.84045,5645.71685 1300.34505,5642.63398 C1291.84965,5639.5511 1282.6463,5637.17472 1272.73499,5635.50483 C1262.82369,5633.83494 1251.81828,5633 1239.71877,5633 C1219.12385,5633 1200.20227,5636.66091 1182.95403,5643.98273 C1165.70579,5651.30456 1150.77447,5661.3239 1138.16009,5674.04075 C1125.5457,5686.7576 1115.69876,5701.5297 1108.61925,5718.35704 C1101.53975,5735.18439 1098,5753.23204 1098,5772.5 L1098,5773.27072 C1098,5793.30939 1101.47539,5811.80663 1108.42618,5828.76243 C1115.37696,5845.71823 1125.09519,5860.36188 1137.58085,5872.69337 C1150.06652,5885.02486 1164.99784,5894.65884 1182.3748,5901.5953 C1199.75176,5908.53177 1218.99513,5912 1240.10492,5912 Z M1472.18388,5907.37569 L1472.18388,5821.05525 L1518.9086,5821.05525 L1576.8318,5907.37569 L1646.33964,5907.37569 L1580.30719,5811.03591 C1597.55544,5804.61326 1611.52136,5794.5297 1622.20498,5780.78522 C1632.88859,5767.04075 1638.23039,5749.25 1638.23039,5727.41298 L1638.23039,5726.64227 C1638.23039,5698.6395 1629.28448,5676.80249 1611.39264,5661.13122 C1593.50081,5645.45994 1568.46512,5637.62431 1536.28556,5637.62431 L1412.71606,5637.62431 L1412.71606,5907.37569 L1472.18388,5907.37569 Z M1532.42401,5768.64641 L1472.18388,5768.64641 L1472.18388,5691.18923 L1531.26555,5691.18923 C1545.93943,5691.18923 1557.39535,5694.40055 1565.63332,5700.8232 C1573.87128,5707.24586 1577.99027,5716.87983 1577.99027,5729.72514 L1577.99027,5730.49586 C1577.99027,5742.05663 1574.06436,5751.30525 1566.21255,5758.24171 C1558.36074,5765.17818 1547.09789,5768.64641 1532.42401,5768.64641 Z M1823.19849,5912 C1844.05084,5912 1863.29421,5908.33909 1880.92861,5901.01727 C1898.56301,5893.69544 1913.75176,5883.6761 1926.49486,5870.95925 C1939.23797,5858.2424 1949.21363,5843.4703 1956.42185,5826.64296 C1963.63007,5809.81561 1967.23418,5791.76796 1967.23418,5772.5 L1967.23418,5771.72928 C1967.23418,5752.46133 1963.69443,5734.41367 1956.61493,5717.58633 C1949.53542,5700.75898 1939.62412,5686.11533 1926.88102,5673.65539 C1914.13791,5661.19544 1899.01352,5651.30456 1881.50784,5643.98273 C1864.00216,5636.66091 1844.82315,5633 1823.9708,5633 C1803.11844,5633 1783.87507,5636.66091 1766.24067,5643.98273 C1748.60627,5651.30456 1733.41752,5661.3239 1720.67442,5674.04075 C1707.93131,5686.7576 1697.95565,5701.5297 1690.74743,5718.35704 C1683.53921,5735.18439 1679.9351,5753.23204 1679.9351,5772.5 L1679.9351,5773.27072 C1679.9351,5792.53867 1683.47485,5810.58633 1690.55435,5827.41367 C1697.63386,5844.24102 1707.54516,5858.88467 1720.28826,5871.34461 C1733.03137,5883.80456 1748.15576,5893.69544 1765.66144,5901.01727 C1783.16712,5908.33909 1802.34613,5912 1823.19849,5912 Z M1823.9708,5857.27901 C1811.87128,5857.27901 1800.86587,5855.03108 1790.95457,5850.53522 C1781.04327,5846.03936 1772.41915,5839.93785 1765.08221,5832.23066 C1757.74527,5824.52348 1752.08167,5815.53177 1748.0914,5805.25552 C1744.10114,5794.97928 1742.106,5784.06077 1742.106,5772.5 L1742.106,5771.72928 C1742.106,5760.16851 1744.10114,5749.31423 1748.0914,5739.16644 C1752.08167,5729.01865 1757.61655,5720.09116 1764.69605,5712.38398 C1771.77555,5704.6768 1780.27096,5698.6395 1790.18226,5694.2721 C1800.09356,5689.9047 1811.09897,5687.72099 1823.19849,5687.72099 C1835.04056,5687.72099 1845.98161,5689.96892 1856.02163,5694.46478 C1866.06165,5698.96064 1874.75014,5705.06215 1882.08707,5712.76934 C1889.42401,5720.47652 1895.08761,5729.46823 1899.07788,5739.74448 C1903.06814,5750.02072 1905.06328,5760.93923 1905.06328,5772.5 L1905.06328,5773.27072 C1905.06328,5784.83149 1903.06814,5795.68577 1899.07788,5805.83356 C1895.08761,5815.98135 1889.55273,5824.90884 1882.47323,5832.61602 C1875.39373,5840.3232 1866.83396,5846.3605 1856.79394,5850.7279 C1846.75392,5855.0953 1835.81287,5857.27901 1823.9708,5857.27901 Z M2132.89454,5911.61464 C2150.91509,5911.61464 2167.2623,5909.10981 2181.93618,5904.10014 C2196.61006,5899.09047 2209.09573,5891.51174 2219.39319,5881.36395 C2229.69064,5871.21616 2237.60681,5858.56354 2243.1417,5843.40608 C2248.67658,5828.24862 2251.44402,5810.39365 2251.44402,5789.84116 L2251.44402,5637.62431 L2191.9762,5637.62431 L2191.9762,5792.15331 C2191.9762,5813.73343 2186.82747,5829.91851 2176.53002,5840.70856 C2166.23256,5851.49862 2151.94484,5856.89365 2133.66685,5856.89365 C2115.38886,5856.89365 2101.10114,5851.30594 2090.80368,5840.13052 C2080.50622,5828.95511 2075.35749,5812.32044 2075.35749,5790.22652 L2075.35749,5637.62431 L2015.88967,5637.62431 L2015.88967,5791.76796 C2015.88967,5831.5884 2026.31585,5861.51796 2047.1682,5881.55663 C2068.02055,5901.5953 2096.596,5911.61464 2132.89454,5911.61464 Z M2371.53813,5907.37569 L2371.53813,5826.45028 L2416.71823,5826.45028 C2431.90698,5826.45028 2446.13034,5824.45925 2459.38832,5820.47721 C2472.6463,5816.49517 2484.23094,5810.5221 2494.14224,5802.55801 C2504.05354,5794.59392 2511.841,5784.70304 2517.5046,5772.88536 C2523.1682,5761.06768 2526,5747.3232 2526,5731.65193 L2526,5730.88122 C2526,5717.00829 2523.61871,5704.35566 2518.85614,5692.92334 C2514.09356,5681.49102 2507.2715,5671.66436 2498.38994,5663.44337 C2489.50838,5655.22238 2478.69605,5648.86395 2465.95295,5644.36809 C2453.20984,5639.87224 2438.72904,5637.62431 2422.51055,5637.62431 L2312.07031,5637.62431 L2312.07031,5907.37569 L2371.53813,5907.37569 Z M2418.649,5773.65608 L2371.53813,5773.65608 L2371.53813,5691.18923 L2417.49054,5691.18923 C2432.42185,5691.18923 2444.19957,5694.65746 2452.82369,5701.59392 C2461.44781,5708.53039 2465.75987,5718.67818 2465.75987,5732.03729 L2465.75987,5732.80801 C2465.75987,5744.36878 2461.64089,5754.06699 2453.40292,5761.90262 C2445.16495,5769.73826 2433.58031,5773.65608 2418.649,5773.65608 Z" id="path-6" fill="#000000" fill-rule="nonzero"></path>
        <path d="M1240.10492,5912 C1264.81882,5912 1286.76528,5907.82528 1305.94429,5899.47583 C1325.12331,5891.12638 1341.6636,5881.04282 1355.56517,5869.22514 L1355.56517,5752.07597 L1238.17415,5752.07597 L1238.17415,5803.32873 L1298.02812,5803.32873 L1298.02812,5841.86464 C1282.83937,5852.6547 1264.17523,5858.04972 1242.03569,5858.04972 C1229.93618,5858.04972 1218.93077,5855.93025 1209.01947,5851.6913 C1199.10817,5847.45235 1190.48405,5841.47928 1183.14711,5833.7721 C1175.81017,5826.06492 1170.14657,5817.00898 1166.1563,5806.60428 C1162.16604,5796.19959 1160.1709,5784.83149 1160.1709,5772.5 L1160.1709,5771.72928 C1160.1709,5760.16851 1162.16604,5749.31423 1166.1563,5739.16644 C1170.14657,5729.01865 1175.68145,5720.15539 1182.76095,5712.57666 C1189.84045,5704.99793 1198.07842,5698.96064 1207.47485,5694.46478 C1216.87128,5689.96892 1226.97566,5687.72099 1237.78799,5687.72099 C1245.51109,5687.72099 1252.59059,5688.36326 1259.0265,5689.64779 C1265.46241,5690.93232 1271.44781,5692.73066 1276.98269,5695.04282 C1282.51758,5697.35497 1287.85938,5700.18094 1293.00811,5703.52072 C1298.15684,5706.8605 1303.30557,5710.71409 1308.4543,5715.08149 L1345.9113,5669.99448 C1338.96052,5664.08564 1331.7523,5658.81906 1324.28664,5654.19475 C1316.82098,5649.57044 1308.84045,5645.71685 1300.34505,5642.63398 C1291.84965,5639.5511 1282.6463,5637.17472 1272.73499,5635.50483 C1262.82369,5633.83494 1251.81828,5633 1239.71877,5633 C1219.12385,5633 1200.20227,5636.66091 1182.95403,5643.98273 C1165.70579,5651.30456 1150.77447,5661.3239 1138.16009,5674.04075 C1125.5457,5686.7576 1115.69876,5701.5297 1108.61925,5718.35704 C1101.53975,5735.18439 1098,5753.23204 1098,5772.5 L1098,5773.27072 C1098,5793.30939 1101.47539,5811.80663 1108.42618,5828.76243 C1115.37696,5845.71823 1125.09519,5860.36188 1137.58085,5872.69337 C1150.06652,5885.02486 1164.99784,5894.65884 1182.3748,5901.5953 C1199.75176,5908.53177 1218.99513,5912 1240.10492,5912 Z M1472.18388,5907.37569 L1472.18388,5821.05525 L1518.9086,5821.05525 L1576.8318,5907.37569 L1646.33964,5907.37569 L1580.30719,5811.03591 C1597.55544,5804.61326 1611.52136,5794.5297 1622.20498,5780.78522 C1632.88859,5767.04075 1638.23039,5749.25 1638.23039,5727.41298 L1638.23039,5726.64227 C1638.23039,5698.6395 1629.28448,5676.80249 1611.39264,5661.13122 C1593.50081,5645.45994 1568.46512,5637.62431 1536.28556,5637.62431 L1412.71606,5637.62431 L1412.71606,5907.37569 L1472.18388,5907.37569 Z M1532.42401,5768.64641 L1472.18388,5768.64641 L1472.18388,5691.18923 L1531.26555,5691.18923 C1545.93943,5691.18923 1557.39535,5694.40055 1565.63332,5700.8232 C1573.87128,5707.24586 1577.99027,5716.87983 1577.99027,5729.72514 L1577.99027,5730.49586 C1577.99027,5742.05663 1574.06436,5751.30525 1566.21255,5758.24171 C1558.36074,5765.17818 1547.09789,5768.64641 1532.42401,5768.64641 Z M1823.19849,5912 C1844.05084,5912 1863.29421,5908.33909 1880.92861,5901.01727 C1898.56301,5893.69544 1913.75176,5883.6761 1926.49486,5870.95925 C1939.23797,5858.2424 1949.21363,5843.4703 1956.42185,5826.64296 C1963.63007,5809.81561 1967.23418,5791.76796 1967.23418,5772.5 L1967.23418,5771.72928 C1967.23418,5752.46133 1963.69443,5734.41367 1956.61493,5717.58633 C1949.53542,5700.75898 1939.62412,5686.11533 1926.88102,5673.65539 C1914.13791,5661.19544 1899.01352,5651.30456 1881.50784,5643.98273 C1864.00216,5636.66091 1844.82315,5633 1823.9708,5633 C1803.11844,5633 1783.87507,5636.66091 1766.24067,5643.98273 C1748.60627,5651.30456 1733.41752,5661.3239 1720.67442,5674.04075 C1707.93131,5686.7576 1697.95565,5701.5297 1690.74743,5718.35704 C1683.53921,5735.18439 1679.9351,5753.23204 1679.9351,5772.5 L1679.9351,5773.27072 C1679.9351,5792.53867 1683.47485,5810.58633 1690.55435,5827.41367 C1697.63386,5844.24102 1707.54516,5858.88467 1720.28826,5871.34461 C1733.03137,5883.80456 1748.15576,5893.69544 1765.66144,5901.01727 C1783.16712,5908.33909 1802.34613,5912 1823.19849,5912 Z M1823.9708,5857.27901 C1811.87128,5857.27901 1800.86587,5855.03108 1790.95457,5850.53522 C1781.04327,5846.03936 1772.41915,5839.93785 1765.08221,5832.23066 C1757.74527,5824.52348 1752.08167,5815.53177 1748.0914,5805.25552 C1744.10114,5794.97928 1742.106,5784.06077 1742.106,5772.5 L1742.106,5771.72928 C1742.106,5760.16851 1744.10114,5749.31423 1748.0914,5739.16644 C1752.08167,5729.01865 1757.61655,5720.09116 1764.69605,5712.38398 C1771.77555,5704.6768 1780.27096,5698.6395 1790.18226,5694.2721 C1800.09356,5689.9047 1811.09897,5687.72099 1823.19849,5687.72099 C1835.04056,5687.72099 1845.98161,5689.96892 1856.02163,5694.46478 C1866.06165,5698.96064 1874.75014,5705.06215 1882.08707,5712.76934 C1889.42401,5720.47652 1895.08761,5729.46823 1899.07788,5739.74448 C1903.06814,5750.02072 1905.06328,5760.93923 1905.06328,5772.5 L1905.06328,5773.27072 C1905.06328,5784.83149 1903.06814,5795.68577 1899.07788,5805.83356 C1895.08761,5815.98135 1889.55273,5824.90884 1882.47323,5832.61602 C1875.39373,5840.3232 1866.83396,5846.3605 1856.79394,5850.7279 C1846.75392,5855.0953 1835.81287,5857.27901 1823.9708,5857.27901 Z M2132.89454,5911.61464 C2150.91509,5911.61464 2167.2623,5909.10981 2181.93618,5904.10014 C2196.61006,5899.09047 2209.09573,5891.51174 2219.39319,5881.36395 C2229.69064,5871.21616 2237.60681,5858.56354 2243.1417,5843.40608 C2248.67658,5828.24862 2251.44402,5810.39365 2251.44402,5789.84116 L2251.44402,5637.62431 L2191.9762,5637.62431 L2191.9762,5792.15331 C2191.9762,5813.73343 2186.82747,5829.91851 2176.53002,5840.70856 C2166.23256,5851.49862 2151.94484,5856.89365 2133.66685,5856.89365 C2115.38886,5856.89365 2101.10114,5851.30594 2090.80368,5840.13052 C2080.50622,5828.95511 2075.35749,5812.32044 2075.35749,5790.22652 L2075.35749,5637.62431 L2015.88967,5637.62431 L2015.88967,5791.76796 C2015.88967,5831.5884 2026.31585,5861.51796 2047.1682,5881.55663 C2068.02055,5901.5953 2096.596,5911.61464 2132.89454,5911.61464 Z M2371.53813,5907.37569 L2371.53813,5826.45028 L2416.71823,5826.45028 C2431.90698,5826.45028 2446.13034,5824.45925 2459.38832,5820.47721 C2472.6463,5816.49517 2484.23094,5810.5221 2494.14224,5802.55801 C2504.05354,5794.59392 2511.841,5784.70304 2517.5046,5772.88536 C2523.1682,5761.06768 2526,5747.3232 2526,5731.65193 L2526,5730.88122 C2526,5717.00829 2523.61871,5704.35566 2518.85614,5692.92334 C2514.09356,5681.49102 2507.2715,5671.66436 2498.38994,5663.44337 C2489.50838,5655.22238 2478.69605,5648.86395 2465.95295,5644.36809 C2453.20984,5639.87224 2438.72904,5637.62431 2422.51055,5637.62431 L2312.07031,5637.62431 L2312.07031,5907.37569 L2371.53813,5907.37569 Z M2418.649,5773.65608 L2371.53813,5773.65608 L2371.53813,5691.18923 L2417.49054,5691.18923 C2432.42185,5691.18923 2444.19957,5694.65746 2452.82369,5701.59392 C2461.44781,5708.53039 2465.75987,5718.67818 2465.75987,5732.03729 L2465.75987,5732.80801 C2465.75987,5744.36878 2461.64089,5754.06699 2453.40292,5761.90262 C2445.16495,5769.73826 2433.58031,5773.65608 2418.649,5773.65608 Z" id="path-6" fill="#393939" fill-rule="nonzero"></path>
    </g>
</svg>