<?xml version="1.0" encoding="UTF-8"?>
<svg width="623px" height="589px" viewBox="0 0 623 589" version="1.1" xmlns="http://www.w3.org/2000/svg" xmlns:xlink="http://www.w3.org/1999/xlink">
    <!-- Generator: Sketch 60.1 (88133) - https://sketch.com -->
    <title>EVENTS_ICON</title>
    <desc>Created with Sketch.</desc>
    <defs>
        <path d="M237.497302,229.042605 L262.252949,243.412335 L243.874921,254.078915 L201.578707,278.624301 L201.556112,278.667994 L152.029581,307.412039 L139.797293,314.511628 L78.0404279,278.667994 L78.0165302,278.626248 L35.7228949,254.078915 L17.3435842,243.411684 L39.7730233,230.392465 L126.384837,278.274419 L127.566958,278.961115 L127.566698,278.926884 L139.80947,285.696151 L152.028279,278.610419 L152.029581,278.957873 L189.327535,257.311255 L189.340233,257.333323 L213.221823,243.473544 L212.918512,243.297209 L235.170698,230.392465 L237.497302,229.042605 Z M157.140884,0 L217.813172,35.2145581 L217.859665,35.2128 L267.388605,63.9592279 L279.61894,71.0584 L279.61894,142.747647 L279.595237,142.785674 L279.595888,213.213749 L255.260372,199.089767 L255.260893,84.9725116 L157.138605,28.3138605 L157.140884,0 Z M122.452465,0 L122.452465,28.388093 L97.8814884,42.6583256 L97.8830512,42.6552651 L74.0033488,56.5144186 L74.0098605,56.5222326 L36.7177414,78.1819907 L24.4867423,84.9725116 L24.4867423,99.4829581 L23.5180465,199.562512 L0,213.213749 L0,71.0681674 L12.2269098,63.9722512 L61.7796949,35.2128 L104.072679,10.6661767 L122.452465,0 Z" id="path-1"></path>
        <linearGradient x1="32.0522647%" y1="16.3246832%" x2="69.2497573%" y2="87.3372671%" id="linearGradient-3">
            <stop stop-color="#346AB3" offset="0%"></stop>
            <stop stop-color="#36C6F5" offset="100%"></stop>
        </linearGradient>
        <path d="M10.2407721,16.3252372 L10.2402204,18.4635261 C10.2372299,24.7021957 10.2252727,24.5674041 10.3142884,25.4327256 C11.0182605,32.2979349 16.7496,37.6682047 23.692493,37.6682047 C30.635386,37.6682047 36.3667256,32.2979349 37.0706977,25.4327256 C37.1502698,24.6592744 37.1488372,24.750307 37.1457116,20.1489953 L37.144214,16.3252372 L47.1585767,16.3252372 L47.1576,19.3089302 L47.1572586,19.8129881 C47.1538031,24.6872126 47.1500486,24.6350092 47.2321581,25.4327256 C47.9361302,32.2979349 53.6674047,37.6682047 60.6102977,37.6682047 C67.5531907,37.6682047 73.2845302,32.2979349 73.9885023,25.4327256 C74.0747814,24.5948093 74.0659256,24.7714698 74.0627349,18.8976558 L74.0620837,16.3252372 L84.0764465,16.3252372 L84.0762346,17.6774468 C84.0740387,24.71472 84.0573467,24.5324827 84.1499628,25.4327256 C84.8539349,32.2979349 90.5852744,37.6682047 97.5281674,37.6682047 C104.47106,37.6682047 110.2024,32.2979349 110.906372,25.4327256 C110.98373,24.6807628 110.984512,24.7459442 110.981647,20.5216558 L110.979888,16.3252372 L116.499144,16.3252372 C118.872437,16.3252372 120.814921,18.1980465 120.972698,20.5673023 L120.983051,20.879014 L120.983051,123.338177 C120.983051,125.747935 119.138958,127.721153 116.806102,127.881405 L116.499144,127.891888 L4.72242791,127.891888 C2.3495907,127.891888 0.406651163,126.019144 0.248874419,123.649888 L0.23852093,123.338177 L0.23852093,20.879014 C0.23852093,18.4691907 2.08254884,16.4960372 4.41546977,16.335786 L4.72242791,16.3252372 L10.2407721,16.3252372 Z M112.015237,49.8708651 L9.20633488,49.8708651 L9.20633488,118.7844 L112.015237,118.7844 L112.015237,49.8708651 Z M71.9142233,57.7643256 C74.3404558,57.7643256 76.3263721,59.6554977 76.4876651,62.0481302 L76.498214,62.3629023 L76.498214,73.9160279 L67.3302977,83.1127907 L67.3302977,66.9615442 L34.8263349,66.9615442 L34.8263349,99.5689767 L48.1308279,99.5689767 L57.2987442,108.766195 L30.2423442,108.766195 C27.8165674,108.766195 25.8303256,106.875349 25.6689674,104.482456 L25.6584186,104.167553 L25.6584186,62.3629023 C25.6584186,59.9293767 27.5436,57.9367535 29.9285488,57.7749395 L30.2423442,57.7643256 L71.9142233,57.7643256 Z M100.590716,65.5227349 C102.280158,67.2842605 102.35693,70.0901209 100.821098,71.9461953 L100.590716,72.2046419 L69.902,104.194772 C69.0168744,105.116949 67.8570233,105.578558 66.6972372,105.578558 C65.6533581,105.578558 64.6095442,105.20466 63.7658977,104.457581 L63.4924093,104.194772 L46.0507535,86.0132 C44.280893,84.1677395 44.280893,81.1761674 46.0507535,79.3312279 C46.1613209,79.215907 46.2764465,79.1082047 46.3952186,79.0070791 C48.0567256,77.5949674 50.4547628,77.5949674 52.1163349,79.0070791 L52.2916279,79.1636837 L52.4608,79.3312279 L66.6967814,94.1720093 L94.1806698,65.5227349 C95.9518977,63.6782512 98.8208558,63.678707 100.590716,65.5227349 Z M60.6107535,0.387181395 C64.0034419,0.387181395 66.7753116,3.27007442 66.9563349,6.89978605 L66.9657767,7.27785116 L66.9657767,22.1850512 C66.9657767,25.9905767 64.1203907,29.0757209 60.6107535,29.0757209 C57.2181302,29.0757209 54.4461953,26.1928279 54.2651721,22.5631163 L54.2557953,22.1850512 L54.2557953,7.27785116 C54.2557953,3.47232558 57.1011163,0.387181395 60.6107535,0.387181395 Z M25.6584186,0.387181395 C29.0510419,0.387181395 31.8229767,3.27007442 32.004,6.89978605 L32.0133767,7.27785116 L32.0133767,22.1850512 C32.0133767,25.9905767 29.1680558,29.0757209 25.6584186,29.0757209 C22.2653395,29.0757209 19.4938605,26.1928279 19.3128372,22.5631163 L19.3034605,22.1850512 L19.3034605,7.27785116 C19.3034605,3.47232558 22.1487814,0.387181395 25.6584186,0.387181395 Z M98.7406326,0.387181395 C102.133256,0.387181395 104.905191,3.27007442 105.086214,6.89978605 L105.095591,7.27785116 L105.095591,22.1850512 C105.095591,25.9905767 102.25027,29.0757209 98.7406326,29.0757209 C95.3479442,29.0757209 92.5760744,26.1928279 92.3950512,22.5631163 L92.3856744,22.1850512 L92.3856744,7.27785116 C92.3856744,3.47232558 95.2309953,0.387181395 98.7406326,0.387181395 Z" id="path-4"></path>
        <linearGradient x1="9.42885199%" y1="56.8533461%" x2="15.1778391%" y2="61.6461649%" id="linearGradient-6">
            <stop stop-color="#346AB3" offset="0%"></stop>
            <stop stop-color="#36C6F5" offset="100%"></stop>
        </linearGradient>
    </defs>
    <g id="EVENTS_ICON" stroke="none" stroke-width="1" fill="none" fill-rule="evenodd">
        <rect fill="#FFFFFF" x="0" y="0" width="623" height="589"></rect>
        <g id="Group" transform="translate(172.000000, 137.000000)">
            <g id="Events" transform="translate(0.000000, 0.000000)">
                <g id="Group-3">
                    <mask id="mask-2" fill="white">
                        <use xlink:href="#path-1"></use>
                    </mask>
                    <g id="Clip-2"></g>
                    <polygon id="Fill-1" fill="url(#linearGradient-3)" mask="url(#mask-2)" points="0 314.511628 281.302326 314.511628 281.302326 0 0 0"></polygon>
                </g>
                <g id="Group-6" transform="translate(78.139535, 93.116279)">
                    <mask id="mask-5" fill="white">
                        <use xlink:href="#path-4"></use>
                    </mask>
                    <g id="Clip-5"></g>
                    <polygon id="Fill-4" fill="url(#linearGradient-6)" mask="url(#mask-5)" points="-109.395349 322.976744 1408.46512 322.976744 1408.46512 -616.651163 -109.395349 -616.651163"></polygon>
                </g>
            </g>
        </g>
    </g>
</svg>