<?xml version="1.0" encoding="UTF-8"?>
<svg width="156px" height="175px" viewBox="0 0 156 175" version="1.1" xmlns="http://www.w3.org/2000/svg" xmlns:xlink="http://www.w3.org/1999/xlink">
    <!-- Generator: Sketch 60.1 (88133) - https://sketch.com -->
    <title>events_white</title>
    <desc>Created with Sketch.</desc>
    <defs>
        <path d="M132.319925,127.380686 L146.112357,135.372326 L135.87317,141.304482 L112.308137,154.955252 L112.295548,154.979552 L84.7021953,170.965382 L77.8870634,174.913776 L43.479667,154.979552 L43.4663524,154.956335 L19.9027557,141.304482 L9.66285405,135.371964 L22.1592559,128.131402 L70.4144094,154.760668 L71.0730195,155.142569 L71.0728746,155.123532 L77.8938476,158.888219 L84.7014695,154.947532 L84.7021953,155.140766 L105.482484,143.102128 L105.489558,143.114401 L118.795016,135.406367 L118.626028,135.3083 L131.023675,128.131402 L132.319925,127.380686 Z M87.5499211,0 L121.353053,19.5843676 L121.378956,19.5833898 L148.973652,35.5705452 L155.787695,39.5187076 L155.787695,79.3882569 L155.774489,79.4094056 L155.774852,118.577562 L142.216493,110.722593 L142.216783,47.2569581 L87.5486515,15.7465855 L87.5499211,0 Z M68.223516,0 L68.223516,15.7878695 L54.5339723,23.7241747 L54.5348429,23.7224727 L41.2304371,31.4301586 L41.2340652,31.4345044 L20.4570274,43.4804503 L13.6426135,47.2569581 L13.6426135,55.3268569 L13.1029116,110.985507 L0,118.577562 L0,39.5241397 L6.81213546,35.577788 L34.4201157,19.5833898 L57.9833495,5.93193088 L68.223516,0 Z" id="path-1"></path>
        <linearGradient x1="32.0185078%" y1="16.4344907%" x2="90.4344311%" y2="100%" id="linearGradient-3">
            <stop stop-color="#346AB3" offset="0%"></stop>
            <stop stop-color="#36C5F4" offset="100%"></stop>
        </linearGradient>
    </defs>
    <g id="Page-1" stroke="none" stroke-width="1" fill="none" fill-rule="evenodd">
        <g id="events_white">
            <g id="OUTLINE">
                <g id="Fill-1-Clipped">
                    <mask id="mask-2" fill="white">
                        <use xlink:href="#path-1"></use>
                    </mask>
                    <g id="path-1"></g>
                    <polygon id="Fill-1" fill="#FFFFFF" fill-rule="nonzero" mask="url(#mask-2)" points="0 174.913776 156.725582 174.913776 156.725582 0 0 0"></polygon>
                </g>
            </g>
            <g id="INSIDE-SHAPE" transform="translate(43.457143, 51.906780)" fill="#FFFFFF" fill-rule="nonzero">
                <path d="M5.78331409,8.95847023 L5.78300654,10.1476672 C5.78134031,13.6172661 5.77467874,13.5423027 5.824273,14.023546 C6.21648597,17.8415915 9.40966074,20.8282353 13.2778442,20.8282353 C17.1460272,20.8282353 20.3392024,17.8415915 20.7314153,14.023546 C20.7757483,13.5933957 20.7749501,13.6440229 20.7732089,11.0850306 L20.7723743,8.95847023 L26.3518053,8.95847023 L26.3512607,10.6178336 L26.3510706,10.8981624 C26.3491455,13.6089332 26.3470536,13.5799006 26.3928006,14.023546 C26.7850135,17.8415915 29.9781523,20.8282353 33.8463353,20.8282353 C37.7145188,20.8282353 40.9076935,17.8415915 41.2999065,14.023546 C41.3479764,13.5575436 41.3430424,13.6557924 41.3412647,10.3891056 L41.3409018,8.95847023 L46.9203325,8.95847023 L46.9202143,9.7104938 C46.9189912,13.6242316 46.9096914,13.5228814 46.9612917,14.023546 C47.3535047,17.8415915 50.5466795,20.8282353 54.4148629,20.8282353 C58.2830456,20.8282353 61.4762207,17.8415915 61.8684337,14.023546 C61.9115332,13.6053465 61.9119689,13.6415967 61.9103728,11.2922836 L61.9093926,8.95847023 L64.9844067,8.95847023 C66.3066701,8.95847023 67.3889112,10.000022 67.4768153,11.3176697 L67.4825836,11.4910265 L67.4825836,68.473082 C67.4825836,69.8132546 66.4551602,70.9106481 65.1554261,70.9997713 L64.9844067,71.0056015 L2.70880777,71.0056015 C1.38679877,71.0056015 0.304303629,69.9640861 0.216399486,68.646438 L0.2106312,68.473082 L0.2106312,11.4910265 C0.2106312,10.1508175 1.23801823,9.05345964 2.53778831,8.96433718 L2.70880777,8.95847023 L5.78331409,8.95847023 Z M62.4862301,27.6146722 L5.20698471,27.6146722 L5.20698471,65.9405261 L62.4862301,65.9405261 L62.4862301,27.6146722 Z M40.1442366,32.0045736 C41.4959948,32.0045736 42.6024341,33.0563377 42.6922971,34.3869861 L42.6981743,34.5620447 L42.6981743,40.9872468 L37.5903353,46.1019722 L37.5903353,37.1195522 L19.4809847,37.1195522 L19.4809847,55.2539824 L26.8934878,55.2539824 L32.0013271,60.3689606 L16.9270471,60.3689606 C15.5755429,60.3689606 14.4689224,59.3173779 14.3790229,57.9865844 L14.3731454,57.8114532 L14.3731454,34.5620447 C14.3731454,33.208654 15.4234607,32.1004684 16.7522182,32.0104765 L16.9270471,32.0045736 L40.1442366,32.0045736 Z M56.1211397,36.3193669 C57.0624002,37.2990288 57.1051732,38.8594915 56.2494953,39.8917361 L56.1211397,40.0354697 L39.0231407,57.8265907 C38.5299995,58.3394541 37.8837966,58.5961754 37.2376301,58.5961754 C36.6560406,58.5961754 36.0744871,58.3882339 35.6044553,57.9727505 L35.4520831,57.8265907 L25.7345894,47.7150173 C24.7485242,46.6886756 24.7485242,45.0249306 25.7345894,43.9988782 C25.7961912,43.9347433 25.8603325,43.8748454 25.9265054,43.8186048 C26.8522024,43.0332675 28.1882517,43.0332675 29.1139847,43.8186048 L29.2116478,43.9056996 L29.3059007,43.9988782 L37.2373764,52.2524907 L52.5498283,36.3193669 C53.5366553,35.2935681 55.1350748,35.2938217 56.1211397,36.3193669 Z M33.8465894,0.0946153072 C35.7368013,0.0946153072 37.2811289,1.69791896 37.3819847,3.71656176 L37.3872453,3.92682018 L37.3872453,12.217371 C37.3872453,14.3337917 35.8019588,16.0495763 33.8465894,16.0495763 C31.9564135,16.0495763 30.4120496,14.4462722 30.3111941,12.4276298 L30.3059696,12.217371 L30.3059696,3.92682018 C30.3059696,1.81039984 31.89122,0.0946153072 33.8465894,0.0946153072 Z M14.3731454,0.0946153072 C16.2633213,0.0946153072 17.8076853,1.69791896 17.9085407,3.71656176 L17.9137653,3.92682018 L17.9137653,12.217371 C17.9137653,14.3337917 16.3285148,16.0495763 14.3731454,16.0495763 C12.4827159,16.0495763 10.938606,14.4462722 10.8377501,12.4276298 L10.832526,12.217371 L10.832526,3.92682018 C10.832526,1.81039984 12.4177764,0.0946153072 14.3731454,0.0946153072 Z M55.0903789,0.0946153072 C56.9805548,0.0946153072 58.5249188,1.69791896 58.6257743,3.71656176 L58.6309988,3.92682018 L58.6309988,12.217371 C58.6309988,14.3337917 57.0457483,16.0495763 55.0903789,16.0495763 C53.2001671,16.0495763 51.6558395,14.4462722 51.5549836,12.4276298 L51.5497595,12.217371 L51.5497595,3.92682018 C51.5497595,1.81039984 53.1350096,0.0946153072 55.0903789,0.0946153072 Z" id="path-5"></path>
            </g>
        </g>
    </g>
</svg>