<?xml version="1.0" encoding="UTF-8"?>
<svg width="155px" height="174px" viewBox="0 0 155 174" version="1.1" xmlns="http://www.w3.org/2000/svg" xmlns:xlink="http://www.w3.org/1999/xlink">
    <!-- Generator: Sketch 60.1 (88133) - https://sketch.com -->
    <title>CODEERO EVENT</title>
    <desc>Created with Sketch.</desc>
    <defs>
        <path d="M130.838732,126.37692 L144.476771,134.305586 L134.352202,140.190996 L111.050956,153.734198 L111.038508,153.758306 L83.7540364,169.618167 L77.0151931,173.535448 L42.9929543,153.758306 L42.9797889,153.735272 L19.6799637,140.190996 L9.55468777,134.305227 L21.9112044,127.121722 L69.6261883,153.541146 L70.277426,153.920039 L70.2772825,153.901151 L77.0219014,157.636173 L83.753319,153.726538 L83.7540364,153.91825 L104.30171,141.974477 L104.308705,141.986653 L117.465221,134.339359 L117.298125,134.242064 L129.556991,127.121722 L130.838732,126.37692 Z M86.5698845,0 L119.994623,19.4300419 L120.020237,19.4290718 L147.306036,35.2902477 L154.043803,39.2072984 L154.043803,78.7626738 L154.030745,78.7836561 L154.031104,117.643165 L140.624517,109.850094 L140.624804,46.8845713 L86.5686289,15.6225017 L86.5698845,0 Z M67.4598202,0 L67.4598202,15.6634604 L53.9235172,23.5372272 L53.9243781,23.5355385 L40.7689025,31.1824876 L40.7724898,31.186799 L20.2280308,43.1378224 L13.4898978,46.8845713 L13.4898978,54.8908789 L12.9562372,110.110936 L0,117.643165 L0,39.2126877 L6.73588019,35.2974334 L34.0348159,19.4290718 L57.3342824,5.88518704 L67.4598202,0 Z" id="path-1"></path>
        <path d="M5.64170467,9.00763946 L5.64140075,10.1874652 C5.63975325,13.6297237 5.63316593,13.5553509 5.68220524,14.0328021 C6.07002782,17.8207611 9.22745821,20.7838699 13.0523409,20.7838699 C16.8772236,20.7838699 20.034654,17.8207611 20.4224766,14.0328021 C20.4663133,13.6060414 20.4655241,13.6562697 20.4638022,11.1174425 L20.4629771,9.00763946 L25.9799515,9.00763946 L25.9794134,10.6539268 L25.9792254,10.9320465 C25.9773217,13.6214566 25.9752533,13.5926527 26.020488,14.0328021 C26.4083106,17.8207611 29.5657051,20.7838699 33.3905878,20.7838699 C37.2154705,20.7838699 40.3729009,17.8207611 40.7607234,14.0328021 C40.8082551,13.570472 40.8033764,13.6679465 40.8016186,10.4270013 L40.8012599,9.00763946 L46.3182343,9.00763946 L46.3181175,9.7537368 C46.3169078,13.6366342 46.3077121,13.5360826 46.3587348,14.0328021 C46.7465574,17.8207611 49.9039878,20.7838699 53.7288705,20.7838699 C57.5537532,20.7838699 60.7111836,17.8207611 61.0990062,14.0328021 C61.1416232,13.6178979 61.1420537,13.6538624 61.1404753,11.3230622 L61.1395067,9.00763946 L64.1800989,9.00763946 C65.4875607,9.00763946 66.557687,10.0409838 66.6446072,11.3482482 L66.650311,11.5202387 L66.650311,68.0532732 C66.650311,69.3828852 65.6343887,70.4716315 64.349204,70.560052 L64.1800989,70.5658365 L2.60161473,70.5658365 C1.29440404,70.5658365 0.22402664,69.5325281 0.137106456,68.2252637 L0.131402655,68.0532732 L0.131402655,11.5202387 C0.131402655,10.1905907 1.14728903,9.10188034 2.4325096,9.0134599 L2.60161473,9.00763946 L5.64170467,9.00763946 Z M61.7098868,27.5168297 L5.07182681,27.5168297 L5.07182681,65.5406739 L61.7098868,65.5406739 L61.7098868,27.5168297 Z M39.6179903,31.8721383 C40.9546168,31.8721383 42.0486703,32.9156145 42.1375277,34.2357773 L42.1433391,34.4094565 L42.1433391,40.7840279 L37.0926773,45.8584487 L37.0926773,36.9468106 L19.1860432,36.9468106 L19.1860432,54.9383407 L26.5155707,54.9383407 L31.5662325,60.013013 L16.6606944,60.013013 C15.324319,60.013013 14.2300861,58.9697164 14.1411929,57.6494099 L14.1353815,57.4756589 L14.1353815,34.4094565 C14.1353815,33.0667305 15.1739396,31.9672774 16.4878226,31.8779947 L16.6606944,31.8721383 L39.6179903,31.8721383 Z M55.4160476,36.1529309 C56.3467716,37.1248731 56.3890658,38.6730392 55.5429661,39.6971499 L55.4160476,39.8397507 L38.509444,57.4906771 C38.0218229,57.9994988 37.3828537,58.2541971 36.7439204,58.2541971 C36.168841,58.2541971 35.5937974,58.0478947 35.1290273,57.6356851 L34.9783609,57.4906771 L25.3696448,47.4587832 C24.3946178,46.440529 24.3946178,44.7898943 25.3696448,43.7719274 C25.4305571,43.7082978 25.4939805,43.6488718 25.5594128,43.5930746 C26.4747473,42.8139255 27.7958408,42.8139255 28.7112111,43.5930746 L28.8077812,43.679483 L28.9009791,43.7719274 L36.7436693,51.9605011 L51.8847133,36.1529309 C52.8604937,35.1352155 54.4410205,35.135467 55.4160476,36.1529309 Z M33.3908389,0.213631837 C35.2598919,0.213631837 36.7869321,1.80430158 36.8866589,3.80703718 L36.8918605,4.015639 L36.8918605,12.2408599 C36.8918605,14.3406029 35.3243197,16.0428671 33.3908389,16.0428671 C31.5218217,16.0428671 29.9947457,14.4521974 29.8950188,12.4494618 L29.8898531,12.2408599 L29.8898531,4.015639 C29.8898531,1.91589601 31.457358,0.213631837 33.3908389,0.213631837 Z M14.1353815,0.213631837 C16.0043986,0.213631837 17.5314747,1.80430158 17.6312015,3.80703718 L17.6363672,4.015639 L17.6363672,12.2408599 C17.6363672,14.3406029 16.0688623,16.0428671 14.1353815,16.0428671 C12.2661132,16.0428671 10.7392883,14.4521974 10.6395614,12.4494618 L10.6343957,12.2408599 L10.6343957,4.015639 C10.6343957,1.91589601 12.2019006,0.213631837 14.1353815,0.213631837 Z M54.396825,0.213631837 C56.2658422,0.213631837 57.7929182,1.80430158 57.8926451,3.80703718 L57.8978108,4.015639 L57.8978108,12.2408599 C57.8978108,14.3406029 56.3303059,16.0428671 54.396825,16.0428671 C52.527772,16.0428671 51.0007318,14.4521974 50.901005,12.4494618 L50.8958393,12.2408599 L50.8958393,4.015639 C50.8958393,1.91589601 52.4633442,0.213631837 54.396825,0.213631837 Z" id="path-3"></path>
    </defs>
    <g id="DESKTOP" stroke="none" stroke-width="1" fill="none" fill-rule="evenodd">
        <g id="DESKTOP_DETAILS" transform="translate(-147.000000, -1777.000000)">
            <g id="OUR-COMPANIES" transform="translate(92.000000, 1370.000000)">
                <g id="ALL-COMPANIES-BRACKET" transform="translate(0.000000, 84.000000)">
                    <g id="CODEERO-EVENTS" transform="translate(0.000000, 279.700000)">
                        <g id="CODEERO-EVENT" transform="translate(55.274254, 43.705224)">
                            <g id="Group-3">
                                <mask id="mask-2" fill="white">
                                    <use xlink:href="#path-1"></use>
                                </mask>
                                <g id="Clip-2"></g>
                                <polygon id="Fill-1" fill="#FFFFFF" mask="url(#mask-2)" points="0 173.535448 154.971191 173.535448 154.971191 0 0 0"></polygon>
                            </g>
                            <g id="Group-6" transform="translate(43.047553, 51.377990)">
                                <mask id="mask-4" fill="white">
                                    <use xlink:href="#path-3"></use>
                                </mask>
                                <g id="Clip-5"></g>
                                <polygon id="Fill-4" fill="#FFFFFF" mask="url(#mask-4)" points="-60.2665741 178.206174 775.932142 178.206174 775.932142 -340.244449 -60.2665741 -340.244449"></polygon>
                            </g>
                        </g>
                    </g>
                </g>
            </g>
        </g>
    </g>
</svg>