<?xml version="1.0" encoding="UTF-8"?>
<svg width="58px" height="58px" viewBox="0 0 58 58" version="1.1" xmlns="http://www.w3.org/2000/svg" xmlns:xlink="http://www.w3.org/1999/xlink">
    <!-- Generator: Sketch 60.1 (88133) - https://sketch.com -->
    <title>Group</title>
    <desc>Created with Sketch.</desc>
    <g id="Page-1" stroke="none" stroke-width="1" fill="none" fill-rule="evenodd">
        <g id="WEB_DESKTOP" transform="translate(-738.000000, -2938.000000)">
            <g id="Group-24" transform="translate(513.000000, 2546.000000)">
                <g id="Group-3" transform="translate(227.000000, 394.000000)">
                    <g id="Group">
                        <path d="M26.91234,53.82594 L26.91234,53.82594 C12.04938,53.82594 -3.97903932e-13,41.77656 -3.97903932e-13,26.91297 C-3.97903932e-13,12.04938 12.04938,5.68434189e-14 26.91234,5.68434189e-14 C41.77656,5.68434189e-14 53.82594,12.04938 53.82594,26.91297 C53.82594,41.77656 41.77656,53.82594 26.91234,53.82594 Z" id="Stroke-4" stroke="#272C2A" stroke-width="2.52"></path>
                        <path d="M31.56867,28.12068 L27.31995,28.12068 L27.31995,41.79483 L21.01995,41.79483 L21.01995,28.12068 L18.0243,28.12068 L18.0243,22.76757 L21.01995,22.76757 L21.01995,19.30383 C21.01995,16.82667 22.19679,12.94713 27.37602,12.94713 L32.0418,12.96729 L32.0418,18.16353 L28.65618,18.16353 C28.10052,18.16353 27.31995,18.44136 27.31995,19.62261 L27.31995,22.77324 L32.11929,22.77324 L31.56867,28.12068" id="Fill-5" fill="#272C2A"></path>
                    </g>
                </g>
            </g>
        </g>
    </g>
</svg>