<?xml version="1.0" encoding="UTF-8"?>
<svg width="281px" height="211px" viewBox="0 0 281 211" version="1.1" xmlns="http://www.w3.org/2000/svg" xmlns:xlink="http://www.w3.org/1999/xlink">
    <!-- Generator: Sketch 60.1 (88133) - https://sketch.com -->
    <title>Artboard</title>
    <desc>Created with Sketch.</desc>
    <defs>
        <rect id="path-1" x="0" y="0" width="501.005128" height="344"></rect>
        <polygon id="path-3" points="8.19514914 0 11.3593071 1.89643892 11.3617303 1.89634211 13.9447438 3.44440941 14.5825765 3.82673073 14.5825765 7.68744664 14.5813415 7.68949588 14.5813758 11.4822866 12.1471109 10.0233857 9.866123 8.65635218 11.1474675 7.88843077 13.3055326 9.18182048 13.3055326 7.68916992 13.3043194 7.68906341 13.3043194 5.35745851 10.437796 7.07546792 7.92858607 8.57927802 7.92858607 15.0228363 9.87373257 13.8570903 9.87439686 13.8582778 11.1198609 13.1118848 8.96167421 11.8185274 8.96169607 10.282678 11.2427495 11.649647 13.6769114 13.1085866 12.7184689 13.6830174 10.5126537 15.0048707 10.5114749 15.0072233 7.92858607 16.5551906 7.29065357 16.937528 4.06993526 15.0072233 4.06868779 15.0049772 1.86300666 13.6830174 0.90449555 13.1085511 3.33862632 11.6497438 5.61967974 10.2826522 5.61967974 11.8184886 3.46167077 13.1119881 4.70678869 13.8582778 4.7075746 13.8571129 6.65282089 15.0230105 6.65282089 12.8167226 6.65272109 11.7083651 6.65268679 8.57927802 4.14360786 7.07543242 1.27702204 5.35749724 1.27707817 7.68920547 1.27565293 7.68922802 1.27577768 9.18182048 3.43383966 7.88843077 4.71518419 8.65635218 2.43410894 10.0234438 0 11.4822866 0 3.82724707 0.63765182 3.44511939 3.22190967 1.89634211 5.42755961 0.574401708 6.38603329 0 6.38619235 2.91770508 6.38610191 5.65183011 5.10475738 4.88386997 5.10475738 2.29712276 3.8593962 3.04349967 3.86012597 3.04453237 1.91488904 4.21037517 3.75545991 5.31357563 4.68019258 5.86780438 7.29061929 7.43224308 9.79983229 5.92843298 12.6663526 4.21043971 10.7211157 3.04453237 10.7217894 3.0434674 9.47639071 2.29705822 9.47642814 4.88394097 8.19511793 5.65186561 8.19504936 2.91770508"></polygon>
        <linearGradient x1="0%" y1="0%" x2="0%" y2="195.105742%" id="linearGradient-5">
            <stop stop-color="#346AB3" offset="0%"></stop>
            <stop stop-color="#36C4F3" offset="100%"></stop>
        </linearGradient>
        <polygon id="path-6" points="8.19514914 0 11.3593071 1.89643892 11.3617303 1.89634211 13.9447438 3.44440941 14.5825765 3.82673073 14.5825765 7.68744664 14.5813415 7.68949588 14.5813758 11.4822866 12.1471109 10.0233857 9.866123 8.65635218 11.1474675 7.88843077 13.3055326 9.18182048 13.3055326 7.68916992 13.3043194 7.68906341 13.3043194 5.35745851 10.437796 7.07546792 7.92858607 8.57927802 7.92858607 15.0228363 9.87373257 13.8570903 9.87439686 13.8582778 11.1198609 13.1118848 8.96167421 11.8185274 8.96169607 10.282678 11.2427495 11.649647 13.6769114 13.1085866 12.7184689 13.6830174 10.5126537 15.0048707 10.5114749 15.0072233 7.92858607 16.5551906 7.29065357 16.937528 4.06993526 15.0072233 4.06868779 15.0049772 1.86300666 13.6830174 0.90449555 13.1085511 3.33862632 11.6497438 5.61967974 10.2826522 5.61967974 11.8184886 3.46167077 13.1119881 4.70678869 13.8582778 4.7075746 13.8571129 6.65282089 15.0230105 6.65282089 12.8167226 6.65272109 11.7083651 6.65268679 8.57927802 4.14360786 7.07543242 1.27702204 5.35749724 1.27707817 7.68920547 1.27565293 7.68922802 1.27577768 9.18182048 3.43383966 7.88843077 4.71518419 8.65635218 2.43410894 10.0234438 0 11.4822866 0 3.82724707 0.63765182 3.44511939 3.22190967 1.89634211 5.42755961 0.574401708 6.38603329 0 6.38619235 2.91770508 6.38610191 5.65183011 5.10475738 4.88386997 5.10475738 2.29712276 3.8593962 3.04349967 3.86012597 3.04453237 1.91488904 4.21037517 3.75545991 5.31357563 4.68019258 5.86780438 7.29061929 7.43224308 9.79983229 5.92843298 12.6663526 4.21043971 10.7211157 3.04453237 10.7217894 3.0434674 9.47639071 2.29705822 9.47642814 4.88394097 8.19511793 5.65186561 8.19504936 2.91770508"></polygon>
        <linearGradient x1="33.517881%" y1="16.4344902%" x2="68.1192823%" y2="87.3450491%" id="linearGradient-8">
            <stop stop-color="#346AB3" offset="0%"></stop>
            <stop stop-color="#36C4F3" offset="100%"></stop>
        </linearGradient>
        <path d="M1.11982796,2.12884686 L1.11982796,0.44976624 L1.76524711,0.44976624 L1.76524711,0.0224738067 L0.00776381542,0.0224738067 L0.00776381542,0.44976624 L0.653182966,0.44976624 L0.653182966,2.12884686 L1.11982796,2.12884686 Z M2.58946265,2.12884686 L2.58946265,1.28328999 L3.45002363,1.28328999 L3.45002363,2.12884686 L3.9166464,2.12884686 L3.9166464,0.0224738067 L3.45002363,0.0224738067 L3.45002363,0.855997559 L2.58946265,0.855997559 L2.58946265,0.0224738067 L2.12280812,0.0224738067 L2.12280812,2.12884686 L2.58946265,2.12884686 Z M6.04078818,2.12884686 L6.04078818,1.71659899 L4.88933022,1.71659899 L4.88933022,1.274262 L5.88929058,1.274262 L5.88929058,0.862014118 L4.88933022,0.862014118 L4.88933022,0.434721686 L6.0256416,0.434721686 L6.0256416,0.0224738067 L4.42572406,0.0224738067 L4.42572406,2.12884686 L6.04078818,2.12884686 Z" id="path-9"></path>
        <path d="M2.17930139,4.37687397 C2.3853521,4.37687397 2.57120101,4.3598239 2.73684812,4.32572059 C2.90249524,4.29161729 3.05501214,4.24146668 3.19439882,4.1752656 C3.33378868,4.10906452 3.46206469,4.02982441 3.57923003,3.93754526 C3.69639537,3.84526611 3.80951845,3.74095069 3.91860561,3.624599 L3.32469755,3.02879559 C3.15904726,3.18125925 2.99239038,3.30162199 2.82472372,3.3898901 C2.65705388,3.47815505 2.45201612,3.5222891 2.20960409,3.5222891 C2.02779426,3.5222891 1.86113738,3.48718304 1.70963025,3.41697092 C1.55812313,3.3467588 1.42883417,3.25147138 1.32176972,3.13110549 C1.21470528,3.01074276 1.13087195,2.87031851 1.07026974,2.70983277 C1.00966434,2.54934702 0.979364822,2.37883052 0.979364822,2.19828327 L0.979364822,2.18624699 C0.979364822,2.00570289 1.00966434,1.83618915 1.07026974,1.67770893 C1.13087195,1.5192287 1.21571505,1.37980722 1.32479904,1.25944449 C1.4338862,1.1390786 1.56418176,1.04479393 1.71568889,0.976587336 C1.86719601,0.908380734 2.03183335,0.87427743 2.20960409,0.87427743 C2.42373297,0.87427743 2.61665346,0.916405967 2.78836239,1.00065988 C2.96006814,1.08491695 3.12874774,1.20126864 3.29439486,1.34971811 L3.88830292,0.669660787 C3.79133937,0.573367447 3.68629447,0.485102493 3.57316822,0.40485962 C3.46004197,0.324616747 3.33681799,0.256410147 3.20348994,0.20023982 C3.07016507,0.144069493 2.92168726,0.0999354402 2.75805969,0.0678408133 C2.59443212,0.0357430333 2.41363207,0.0196925667 2.21566272,0.0196925667 C1.88840758,0.0196925667 1.58943242,0.0768656532 1.31874041,0.191211827 C1.04804839,0.305558 0.815737258,0.462032707 0.621806991,0.660632793 C0.427876726,0.859232877 0.2763696,1.08993075 0.167285612,1.3527264 C0.0581984492,1.61552204 0.00365804308,1.89737328 0.00365804308,2.19828327 L0.00365804308,2.21031954 C0.00365804308,2.51122953 0.0581984492,2.79408668 0.167285612,3.05888785 C0.2763696,3.32368901 0.427876726,3.55338412 0.621806991,3.74797317 C0.815737258,3.94256222 1.04602567,4.09602548 1.3126786,4.20836614 C1.57933152,4.32070364 1.86820578,4.37687397 2.17930139,4.37687397 Z M6.72452153,4.37687397 C7.05177666,4.37687397 7.35378116,4.31970088 7.63053498,4.2053547 C7.9072856,4.09100853 8.14565855,3.93453698 8.34564749,3.73593689 C8.54563636,3.53733366 8.70219549,3.30663579 8.81532175,3.04384329 C8.92844487,2.78104765 8.985008,2.49919326 8.985008,2.19828327 L8.985008,2.18624699 C8.985008,1.885337 8.92945462,1.60348577 8.81835105,1.34069012 C8.70724436,1.07789447 8.55169818,0.849202127 8.35170924,0.65461308 C8.15171716,0.460027187 7.91435716,0.305558 7.63962291,0.191211827 C7.36489178,0.0768656532 7.06389711,0.0196925667 6.73664197,0.0196925667 C6.40938366,0.0196925667 6.10737918,0.0768656532 5.83062853,0.191211827 C5.55387471,0.305558 5.31550176,0.462032707 5.11551286,0.660632793 C4.91552396,0.859232877 4.7589648,1.08993075 4.64584172,1.3527264 C4.53271547,1.61552204 4.47615234,1.89737328 4.47615234,2.19828327 L4.47615234,2.21031954 C4.47615234,2.51122953 4.5317057,2.79308392 4.64280923,3.05587957 C4.75391594,3.31867206 4.90946215,3.54736441 5.10945105,3.74195345 C5.30944313,3.9365425 5.54680313,4.09100853 5.8215374,4.2053547 C6.0962685,4.31970088 6.39726321,4.37687397 6.72452153,4.37687397 Z M6.73664197,3.5222891 C6.54675079,3.5222891 6.3740321,3.48718304 6.21848588,3.41697092 C6.06293967,3.3467588 5.92759207,3.25147138 5.81244628,3.13110549 C5.69730048,3.01074276 5.60841511,2.87031851 5.54579335,2.70983277 C5.48317159,2.54934702 5.45185913,2.37883052 5.45185913,2.19828327 L5.45185913,2.18624699 C5.45185913,2.00570289 5.48317159,1.83618915 5.54579335,1.67770893 C5.60841511,1.5192287 5.69528094,1.37980722 5.80638447,1.25944449 C5.91749118,1.1390786 6.05081922,1.04479393 6.20636544,0.976587336 C6.36191166,0.908380734 6.53463035,0.87427743 6.72452153,0.87427743 C6.91037044,0.87427743 7.08207618,0.909386646 7.23964512,0.979598764 C7.39721404,1.04981088 7.53356822,1.14509831 7.64871404,1.26546104 C7.76385985,1.38582693 7.85274524,1.52625118 7.91536698,1.68673692 C7.97799193,1.84722266 8.00930116,2.01773917 8.00930116,2.19828327 L8.00930116,2.21031954 C8.00930116,2.39086679 7.97799193,2.56038054 7.91536698,2.71885761 C7.85274524,2.87733783 7.76587942,3.01675932 7.65477585,3.1371252 C7.54366916,3.25748794 7.40933447,3.3517726 7.25176556,3.4199792 C7.09419663,3.4881858 6.92249088,3.5222891 6.73664197,3.5222891 Z M11.4697274,4.30465633 C11.8010248,4.30465633 12.1050488,4.25049152 12.3818026,4.14216506 C12.6585564,4.0338386 12.8969263,3.88538913 13.0969151,3.69681664 C13.2969072,3.5082473 13.4514436,3.28557467 13.5605276,3.02879559 C13.6696148,2.77201965 13.7241552,2.49518221 13.7241552,2.19828327 L13.7241552,2.18624699 C13.7241552,1.8893512 13.6696148,1.61351652 13.5605276,1.35874296 C13.4514436,1.10397254 13.2969072,0.882302669 13.0969151,0.693733333 C12.8969263,0.505160847 12.6585564,0.357717286 12.3818026,0.251393193 C12.1050488,0.145072253 11.8010248,0.0919133598 11.4697274,0.0919133598 L9.81526945,0.0919133598 L9.81526945,4.30465633 L11.4697274,4.30465633 Z M11.4697274,3.46812429 L10.7485531,3.46812429 L10.7485531,0.928442241 L11.4697274,0.928442241 C11.6596185,0.928442241 11.8333471,0.959537258 11.9909128,1.02172415 C12.1484817,1.08391419 12.2828164,1.17117638 12.3939231,1.28351703 C12.5050266,1.39585769 12.5918924,1.53026221 12.6545142,1.68673692 C12.7171391,1.84321163 12.7484484,2.01372497 12.7484484,2.19828327 L12.7484484,2.21031954 C12.7484484,2.39889203 12.7171391,2.56940537 12.6545142,2.72186904 C12.5918924,2.87432955 12.5050266,3.00672856 12.3939231,3.11906921 C12.2828164,3.23140987 12.1484817,3.3176693 11.9909128,3.37785382 C11.8333471,3.43803519 11.6596185,3.46812429 11.4697274,3.46812429 Z M17.7845671,4.30465633 L17.7845671,3.48016057 L15.4816512,3.48016057 L15.4816512,2.5954866 L17.4815402,2.5954866 L17.4815402,1.77099083 L15.4816512,1.77099083 L15.4816512,0.916405967 L17.7542422,0.916405967 L17.7542422,0.0919133598 L14.5544167,0.0919133598 L14.5544167,4.30465633 L17.7845671,4.30465633 Z M21.8449314,4.30465633 L21.8449314,3.48016057 L19.5420473,3.48016057 L19.5420473,2.5954866 L21.5419362,2.5954866 L21.5419362,1.77099083 L19.5420473,1.77099083 L19.5420473,0.916405967 L21.8146383,0.916405967 L21.8146383,0.0919133598 L18.6148032,0.0919133598 L18.6148032,4.30465633 L21.8449314,4.30465633 Z M23.6084766,4.30465633 L23.6084766,2.95657795 L24.3417999,2.95657795 L25.2508172,4.30465633 L26.3416889,4.30465633 L25.3053703,2.80010324 C25.5760719,2.69980201 25.7952369,2.54232455 25.962929,2.32767715 C26.1305893,2.11302659 26.2144194,1.83518639 26.2144194,1.4941534 L26.2144194,1.48211712 C26.2144194,1.04479393 26.0740357,0.703764087 25.7932364,0.459021273 C25.5124372,0.214281613 25.1195151,0.0919133598 24.6145019,0.0919133598 L22.6751993,0.0919133598 L22.6751993,4.30465633 L23.6084766,4.30465633 Z M24.5538838,2.1381019 L23.6084766,2.1381019 L23.6084766,0.928442241 L24.5357206,0.928442241 C24.7659995,0.928442241 24.9457898,0.978596009 25.0750914,1.07889724 C25.2043614,1.17920162 25.2690122,1.3296566 25.2690122,1.53026221 L25.2690122,1.54229849 C25.2690122,1.72284574 25.2074097,1.86728417 25.084173,1.97561064 C24.9609364,2.08393709 24.7841945,2.1381019 24.5538838,2.1381019 Z M29.1172926,4.37687397 C29.4445477,4.37687397 29.7465585,4.31970088 30.023325,4.2053547 C30.3000598,4.09100853 30.5384359,3.93453698 30.7384217,3.73593689 C30.9384074,3.53733366 31.0949856,3.30663579 31.2080928,3.04384329 C31.3212318,2.78104765 31.3777854,2.49919326 31.3777854,2.19828327 L31.3777854,2.18624699 C31.3777854,1.885337 31.3222479,1.60348577 31.2111412,1.34069012 C31.1000345,1.07789447 30.9444724,0.849202127 30.7444866,0.65461308 C30.5445009,0.460027187 30.3071409,0.305558 30.0324066,0.191211827 C29.7576724,0.0768656532 29.4566777,0.0196925667 29.1294225,0.0196925667 C28.8021674,0.0196925667 28.5001566,0.0768656532 28.22339,0.191211827 C27.9466553,0.305558 27.7082791,0.462032707 27.5082934,0.660632793 C27.3083077,0.859232877 27.1517295,1.08993075 27.0386223,1.3527264 C26.9254833,1.61552204 26.8689297,1.89737328 26.8689297,2.19828327 L26.8689297,2.21031954 C26.8689297,2.51122953 26.9244672,2.79308392 27.0355739,3.05587957 C27.1466806,3.31867206 27.3022427,3.54736441 27.5022284,3.74195345 C27.7022142,3.9365425 27.9395742,4.09100853 28.2143084,4.2053547 C28.4890427,4.31970088 28.7900374,4.37687397 29.1172926,4.37687397 Z M29.1294225,3.5222891 C28.9395345,3.5222891 28.7668254,3.48718304 28.6112633,3.41697092 C28.4557012,3.3467588 28.3203663,3.25147138 28.2052268,3.13110549 C28.0900874,3.01074276 28.0012084,2.87031851 27.938558,2.70983277 C27.8759394,2.54934702 27.8446302,2.37883052 27.8446302,2.19828327 L27.8446302,2.18624699 C27.8446302,2.00570289 27.8759394,1.83618915 27.938558,1.67770893 C28.0012084,1.5192287 28.0880551,1.37980722 28.1991618,1.25944449 C28.3102686,1.1390786 28.443603,1.04479393 28.5991333,0.976587336 C28.7546954,0.908380734 28.9274046,0.87427743 29.1172926,0.87427743 C29.3031478,0.87427743 29.4748409,0.909386646 29.6324352,0.979598764 C29.7899978,1.04981088 29.9263488,1.14509831 30.0414882,1.26546104 C30.1566277,1.38582693 30.2455067,1.52625118 30.308157,1.68673692 C30.3707756,1.84722266 30.4020849,2.01773917 30.4020849,2.19828327 L30.4020849,2.21031954 C30.4020849,2.39086679 30.3707756,2.56038054 30.308157,2.71885761 C30.2455067,2.87733783 30.1586599,3.01675932 30.0475532,3.1371252 C29.9364465,3.25748794 29.802096,3.3517726 29.6445334,3.4199792 C29.4869708,3.4881858 29.3152778,3.5222891 29.1294225,3.5222891 Z" id="path-11"></path>
        <path d="M1.34030762,2.64518754 C1.57302203,2.64518754 1.77967924,2.60606918 1.96027289,2.52783246 C2.14086971,2.44959573 2.29661915,2.35510989 2.42752438,2.24437491 L2.42752438,1.14665291 L1.32212537,1.14665291 L1.32212537,1.62690558 L1.88573391,1.62690558 L1.88573391,1.98799945 C1.74271141,2.08910509 1.56696022,2.13965807 1.3584867,2.13965807 C1.2445539,2.13965807 1.14092204,2.11979806 1.04759431,2.08007773 C0.954266582,2.04035771 0.873059302,1.98438825 0.80396928,1.91216998 C0.734882436,1.83995108 0.681551852,1.75509488 0.643977526,1.65760012 C0.606406375,1.56010536 0.587617625,1.45358261 0.587617625,1.33803186 L0.587617625,1.33081073 C0.587617625,1.22248426 0.606406375,1.12077666 0.643977526,1.02568789 C0.681551852,0.930599121 0.733672618,0.847549777 0.800333462,0.776533557 C0.866997491,0.705520493 0.94456896,0.648949693 1.03305105,0.60682116 C1.12152997,0.564692626 1.21667719,0.54362836 1.31848955,0.54362836 C1.39121221,0.54362836 1.45787623,0.549648073 1.51847845,0.561684347 C1.57908066,0.57372062 1.63544374,0.590572033 1.68756133,0.612238587 C1.73967892,0.633901987 1.78998018,0.66038368 1.83846196,0.69167736 C1.88694373,0.722971037 1.93542868,0.759083014 1.98391045,0.800006971 L2.33661947,0.377526527 C2.27116844,0.3221603 2.20329142,0.272810633 2.13299158,0.22948068 C2.06269174,0.186147573 1.98754626,0.150038753 1.9075488,0.121151067 C1.82755451,0.0922633797 1.74089191,0.0699976934 1.64756418,0.0543508533 C1.55423328,0.03870086 1.4506046,0.03087744 1.3366718,0.03087744 C1.14274154,0.03087744 0.964567535,0.0651825534 0.80215296,0.133789626 C0.639738388,0.2023967 0.499138708,0.296280893 0.380357095,0.415442207 C0.261575483,0.53460352 0.168851077,0.67302224 0.102190228,0.830698368 C0.0355262031,0.988374494 0.00219419077,1.15748776 0.00219419077,1.33803186 L0.00219419077,1.34525615 C0.00219419077,1.53302138 0.0349197046,1.7063475 0.100370732,1.8652282 C0.16582176,2.02410859 0.257333169,2.16132367 0.374901785,2.27687316 C0.4924704,2.39242264 0.63307008,2.48269596 0.796697651,2.54769246 C0.960325222,2.61268898 1.14152854,2.64518754 1.34030762,2.64518754 Z M3.52564859,2.60185633 L3.52564859,1.79301056 L3.96562353,1.79301056 L4.51104982,2.60185633 L5.16556327,2.60185633 L4.54377534,1.69912637 C4.70619308,1.63894185 4.83770164,1.54445852 4.938301,1.41566693 C5.03890353,1.28687849 5.08920162,1.12017437 5.08920162,0.915554568 L5.08920162,0.908333436 C5.08920162,0.64593826 5.00496502,0.441321613 4.83648864,0.294477187 C4.66801226,0.14763276 4.43226853,0.0742105469 4.1292511,0.0742105469 L2.96567586,0.0742105469 L2.96567586,2.60185633 L3.52564859,2.60185633 Z M4.09288977,1.30192304 L3.52564859,1.30192304 L3.52564859,0.576126613 L4.08198233,0.576126613 C4.22015601,0.576126613 4.32803018,0.606218873 4.40560165,0.66640024 C4.48317312,0.726584762 4.52196044,0.816855231 4.52196044,0.937221119 L4.52196044,0.944442251 C4.52196044,1.05276872 4.48499262,1.13943177 4.41105696,1.20442828 C4.3371213,1.26942479 4.23106663,1.30192304 4.09288977,1.30192304 Z M6.83091914,2.64518754 C7.02728492,2.64518754 7.20847237,2.61088369 7.37454502,2.54227598 C7.54058582,2.4736686 7.68360516,2.37978441 7.80360298,2.26062404 C7.92360073,2.14146367 8.01752858,2.00304495 8.08541833,1.8453685 C8.15327629,1.68769238 8.18722116,1.51857911 8.18722116,1.33803186 L8.18722116,1.33081073 C8.18722116,1.15026347 8.15387964,0.981153362 8.08722829,0.823477236 C8.02057702,0.665797953 7.92725244,0.528583807 7.80725462,0.41183164 C7.68725687,0.295079473 7.54484087,0.2023967 7.38000662,0.133789626 C7.21514068,0.0651825534 7.03455655,0.03087744 6.83819077,0.03087744 C6.64185674,0.03087744 6.46063754,0.0651825534 6.29459668,0.133789626 C6.12855582,0.2023967 5.98550474,0.296280893 5.86553871,0.415442207 C5.74554092,0.53460352 5.65159717,0.67302224 5.58372332,0.830698368 C5.5158463,0.988374494 5.48191097,1.15748776 5.48191097,1.33803186 L5.48191097,1.34525615 C5.48191097,1.52580025 5.5152398,1.69491352 5.58190383,1.85258964 C5.64856785,2.01026671 5.74188923,2.14748181 5.86188702,2.26423492 C5.9818848,2.38098803 6.1243008,2.4736686 6.28913502,2.54227598 C6.45396923,2.61088369 6.63458511,2.64518754 6.83091914,2.64518754 Z M6.83819077,2.13243631 C6.72425797,2.13243631 6.62064517,2.11137267 6.52732062,2.06924509 C6.43399606,2.0271175 6.35276972,1.96994472 6.28367335,1.89772614 C6.21460874,1.82550882 6.16126228,1.74125175 6.12369748,1.64496156 C6.08613268,1.54867137 6.0673344,1.44636148 6.0673344,1.33803186 L6.0673344,1.33081073 C6.0673344,1.22248426 6.08613268,1.12077666 6.12369748,1.02568789 C6.16126228,0.930599121 6.21340209,0.846947494 6.28005342,0.774729851 C6.34670474,0.70250906 6.42672443,0.64593826 6.52004898,0.6050143 C6.61337354,0.56409034 6.71698634,0.54362836 6.83091914,0.54362836 C6.94243865,0.54362836 7.04547988,0.564692626 7.14001108,0.60682116 C7.23454228,0.648949693 7.31637193,0.70612278 7.38543658,0.77834042 C7.45453295,0.850558063 7.50787942,0.934811973 7.54544422,1.03110531 C7.58300902,1.1273955 7.60180727,1.2297054 7.60180727,1.33803186 L7.60180727,1.34525615 C7.60180727,1.45358261 7.58300902,1.55529022 7.54544422,1.65037899 C7.50787942,1.7454646 7.45573956,1.82911938 7.38908822,1.90133702 C7.32240516,1.9735556 7.24181391,2.03012672 7.14728271,2.07105068 C7.05275151,2.11197432 6.94971028,2.13243631 6.83819077,2.13243631 Z M9.74712887,2.64157635 C9.91682138,2.64157635 10.0707641,2.61810545 10.208925,2.57116336 C10.3471178,2.52422158 10.4646705,2.45320661 10.5616468,2.35811911 C10.658623,2.26303129 10.7331493,2.14447258 10.7852574,2.00244298 C10.8373972,1.86041306 10.8634353,1.69310665 10.8634353,1.50052313 L10.8634353,0.0742105469 L10.303488,0.0742105469 L10.303488,1.52218968 C10.303488,1.72440033 10.2549999,1.8760599 10.1580236,1.97716649 C10.0610791,2.07827244 9.92653811,2.12882542 9.75440051,2.12882542 C9.58229462,2.12882542 9.4477536,2.07646685 9.35080909,1.97175 C9.25383287,1.86703191 9.20534473,1.71116264 9.20534473,1.50413685 L9.20534473,0.0742105469 L8.64539738,0.0742105469 L8.64539738,1.51857911 C8.64539738,1.89170674 8.74354858,2.17215632 8.93991433,2.35992439 C9.13628015,2.54769246 9.40533047,2.64157635 9.74712887,2.64157635 Z M11.994285,2.60185633 L11.994285,1.84356165 L12.4197231,1.84356165 C12.5627424,1.84356165 12.6966801,1.82490653 12.8215362,1.78759313 C12.9463606,1.75027974 13.0554668,1.69431123 13.1487914,1.61968444 C13.2421159,1.5450608 13.3154356,1.45237803 13.368782,1.34164242 C13.4220967,1.23090998 13.44877,1.10211838 13.44877,0.955273952 L13.44877,0.94805282 C13.44877,0.818059804 13.4263518,0.69950078 13.3815153,0.592378893 C13.3366471,0.485253854 13.2724091,0.393173366 13.1887695,0.316140587 C13.1051616,0.239107807 13.003327,0.179528727 12.8833292,0.137400194 C12.7633632,0.0952748131 12.6269804,0.0742105469 12.4742762,0.0742105469 L11.4343377,0.0742105469 L11.4343377,2.60185633 L11.994285,2.60185633 Z M12.437918,1.34886671 L11.994285,1.34886671 L11.994285,0.576126613 L12.4269947,0.576126613 C12.5676007,0.576126613 12.6785169,0.60862802 12.7597115,0.673624527 C12.8409061,0.738621036 12.8815193,0.833706647 12.8815193,0.958884521 L12.8815193,0.966108809 C12.8815193,1.07443527 12.8427478,1.16531118 12.7651732,1.23873339 C12.6875985,1.31215561 12.5785241,1.34886671 12.437918,1.34886671 Z" id="path-13"></path>
    </defs>
    <g id="Artboard" stroke="none" stroke-width="1" fill="none" fill-rule="evenodd">
        <g id="findus" transform="translate(-96.000000, -8.000000)">
            <g id="MAP-SHAPE">
                <g id="Mask" fill="#000000" fill-rule="nonzero">
                    <rect id="path-1" x="0" y="0" width="501.005128" height="344"></rect>
                </g>
                <g id="Shape-Clipped">
                    <mask id="mask-2" fill="white">
                        <use xlink:href="#path-1"></use>
                    </mask>
                    <g id="path-1"></g>
                    <path d="M497.476923,301.220513 L505.415385,312.687179 L505.415385,350.174359 L494.830769,350.174359 L474.54359,312.687179 L497.476923,301.220513 Z M467.046154,316.215385 L487.774359,350.174359 L452.051282,350.174359 L439.261538,330.328205 L467.046154,316.215385 Z M392.953846,331.651282 L398.687179,340.912821 L392.953846,344.441026 L390.307692,350.174359 L369.579487,350.174359 L367.374359,344.441026 L392.953846,331.651282 Z M419.85641,316.215385 L443.230769,350.174359 L398.687179,350.174359 L408.389744,343.558974 L398.687179,329.446154 L419.85641,316.215385 Z M349.733333,325.917949 L363.405128,350.174359 L346.205128,350.174359 L338.707692,329.887179 L349.733333,325.917949 Z M22.4923077,312.246154 L33.9589744,340.912821 L39.2512821,350.174359 L-4.41025641,350.174359 L-4.41025641,325.917949 L22.4923077,312.246154 Z M13.6717949,271.230769 L86,265.938462 L86.7379244,267.40967 C90.7353444,275.422537 93.7235576,282.135553 95.7025641,287.548718 C97.8015104,293.289953 99.2715958,299.758329 100.112821,306.953846 L95.7025641,312.246154 L47.6307692,350.174359 L39.2512821,338.266667 L13.6717949,271.230769 Z M100.994872,323.271795 L102.758974,350.174359 L65.7128205,350.174359 L100.994872,323.271795 Z M126.133333,298.574359 L127.446258,301.958142 C131.951771,313.635348 135.042335,322.356993 136.717949,328.123077 C138.481113,334.190437 139.908104,341.21968 140.998921,349.210807 L141.128205,350.174359 L115.548718,350.174359 L110.697436,301.220513 C111.682689,301.606044 113.299783,301.606044 115.548718,301.220513 L116.032268,301.133663 C118.290386,300.710957 121.657408,299.857856 126.133333,298.574359 Z M284.020513,231.097436 L311.805128,301.220513 L216.984615,350.174359 L193.169231,350.174359 L158.769231,284.461538 L210.369231,256.676923 L284.020513,231.097436 Z M315.774359,306.953846 L322.389744,322.389744 L271.230769,350.174359 L233.74359,350.174359 L315.774359,306.953846 Z M326.358974,329.005128 L333.85641,350.174359 L284.020513,350.174359 L326.358974,329.005128 Z M153.035897,287.548718 L185.230769,350.174359 L145.979487,350.174359 L144.215385,328.564103 L132.307692,297.251282 L153.035897,287.548718 Z M372.225641,290.194872 L389.866667,325.917949 L363.405128,338.266667 L355.025641,322.389744 L348.851282,319.302564 L336.061538,324.153846 L331.210256,311.364103 L372.225641,290.194872 Z M437.938462,250.94359 L447.641026,269.025641 L451.610256,287.548718 L463.517949,310.041026 L434.410256,324.153846 L401.333333,271.671795 L437.938462,250.94359 Z M396.041026,274.758974 L417.210256,309.158974 L396.041026,322.389744 L377.076923,286.225641 L396.041026,274.758974 Z M6.61538462,271.230769 L20.2871795,306.071795 L-4.41025641,318.861538 L-4.41025641,274.758974 L6.61538462,271.230769 Z M470.133333,231.097436 L482.041026,239.035897 L505.415385,250.502564 L505.415385,300.779487 L500.123077,294.164103 L494.830769,294.164103 L470.133333,306.953846 L456.461538,285.34359 L455.138462,265.938462 L443.230769,247.415385 L470.133333,231.097436 Z M374.871795,242.564103 L392.071795,269.025641 L327.682051,304.307692 L314.892308,274.758974 L374.871795,242.564103 Z M236.389744,139.805128 L252.707692,167.148718 L230.503814,177.645097 C229.442158,178.14697 228.988365,179.414461 229.490239,180.476117 C229.510083,180.518095 229.531297,180.559411 229.553846,180.6 C230.180172,181.727386 231.557756,182.198324 232.743162,181.690293 L255.353846,172 L280.051282,223.158974 L245.210256,235.507692 L238.650505,217.468377 C237.151543,213.346231 235.052248,209.467955 232.420513,205.958974 C229.792245,202.454617 226.605668,199.406247 222.988291,196.935843 L212.49286,189.768232 C211.386976,189.012994 209.878238,189.297249 209.123,190.403133 C209.096215,190.442353 209.070589,190.482352 209.046154,190.523077 C208.290295,191.782841 208.590786,193.408301 209.747069,194.314578 L219.419743,201.895862 C222.482307,204.29625 225.156682,207.154244 227.348718,210.369231 C229.54501,213.59046 231.324665,217.076777 232.645238,220.745034 L238.594872,237.271795 L205.076923,250.94359 L153.035897,280.492308 L126.133333,292.4 C123.173622,293.814632 120.674477,294.696683 118.635897,295.046154 C116.597318,295.395625 113.951164,295.395625 110.697436,295.046154 L110.697436,290.194872 L118.635897,283.579487 L129.661538,261.087179 L161.415385,228.451282 L166.266667,225.364103 L236.389744,139.805128 Z M115.548718,265.938462 L109.374359,276.964103 L105.846154,280.492308 L104.964103,273.435897 L98.7897436,265.938462 L115.548718,265.938462 Z M322.389744,201.107692 L342.235897,235.066667 L352.820513,236.830769 L357.230769,244.328205 L312.246154,267.702564 L291.076923,216.984615 L322.389744,201.107692 Z M418.974359,219.189744 L434.410256,244.328205 L398.687179,265.938462 L382.369231,239.035897 L418.974359,219.189744 Z M-4.41025641,250.94359 L-0.441025641,258.882051 L-4.41025641,261.087179 L-4.41025641,250.94359 Z M3.08717949,144.215385 L76.7384615,251.825641 L6.61538462,256.676923 L-4.41025641,239.476923 L-4.41025641,148.625641 L3.08717949,144.215385 Z M100.112821,198.461538 L131.425641,242.564103 L123.928205,248.738462 L115.548718,250.94359 L90.4102564,250.94359 L70.1230769,219.189744 L100.112821,198.461538 Z M454.697436,195.374359 L505.415385,219.189744 L505.415385,242.564103 L482.041026,231.097436 L472.779487,225.364103 L449.405128,198.902564 L454.697436,195.374359 Z M444.553846,203.312821 L464.841026,227.128205 L437.938462,242.564103 L421.620513,216.102564 L444.553846,203.312821 Z M355.025641,185.230769 L383.251282,228.892308 L367.374359,239.476923 L363.405128,239.476923 L357.230769,231.097436 L347.528205,228.892308 L329.005128,198.461538 L355.025641,185.230769 Z M128.338462,178.615385 L153.035897,216.54359 L135.394872,237.271795 L105.846154,194.492308 L128.338462,178.615385 Z M409.271795,157.005128 L439.261538,198.020513 L390.748718,225.364103 L362.523077,181.702564 L409.271795,157.005128 Z M21.1692308,84.2358974 L95.7025641,192.728205 L66.1538462,212.574359 L-4.41025641,111.138462 L-4.41025641,100.994872 L21.1692308,84.2358974 Z M290.635897,147.74359 L318.861538,195.374359 L287.989744,211.251282 L261.528205,160.092308 L290.635897,147.74359 Z M470.133333,172 L505.415385,189.2 L505.415385,211.251282 L458.225641,189.2 L470.133333,172 Z M87.3230769,54.2461538 L175.528205,180.820513 L157.005128,208.605128 L61.3025641,71.4461538 L87.3230769,54.2461538 Z M430.441026,120.4 L458.225641,160.092308 L464.841026,166.266667 L451.610256,186.553846 L444.553846,192.728205 L404.861538,138.482051 L430.441026,120.4 Z M314.892308,107.169231 L351.05641,178.174359 L324.153846,191.846154 L284.020513,122.605128 L314.892308,107.169231 Z M48.5128205,66.1538462 L123.928205,172.882051 L102.317949,188.317949 L27.3435897,80.7076923 L48.5128205,66.1538462 Z M490.420513,148.184615 L505.415385,154.8 L505.415385,179.938462 L474.984615,165.384615 L490.420513,148.184615 Z M364.287179,90.8512821 L405.74359,150.830769 L358.553846,175.087179 L320.625641,104.964103 L364.287179,90.8512821 Z M141.128205,120.4 C146.778257,118.472749 153.241688,119.279834 160.518499,122.821255 L160.974359,123.046154 C168.018097,126.568023 179.806873,134.623164 196.340687,147.211576 L199.34359,149.507692 L179.938462,175.087179 L141.128205,120.4 Z M418.533333,44.9846154 L484.687179,144.215385 L470.133333,160.092308 L464.841026,155.682051 L401.333333,62.625641 L418.533333,44.9846154 Z M277.405128,125.251282 L287.107692,141.569231 L258.441026,154.358974 L249.179487,137.158974 L277.405128,125.251282 Z M505.415385,125.251282 L505.415385,148.184615 L494.830769,142.892308 L505.415385,125.251282 Z M150.389744,58.6564103 L158.769231,68.3589744 L213.45641,121.723077 L216.984615,127.45641 L205.076923,142.892308 L203.150028,141.453943 C184.053896,127.246253 170.142348,118.317161 161.415385,114.666667 C152.397522,110.894489 144.459061,110.894489 137.6,114.666667 L115.548718,82.9128205 L150.389744,58.6564103 Z M-4.41025641,133.189744 L-0.441025641,138.923077 L-4.41025641,139.805128 L-4.41025641,133.189744 Z M440.14359,22.4923077 L505.415385,115.107692 L490.420513,138.923077 L423.825641,40.574359 L440.14359,22.4923077 Z M395.158974,68.3589744 L427.794872,114.666667 L401.333333,133.630769 L369.579487,87.7641026 L395.158974,68.3589744 Z M241.241026,40.574359 L249.179487,56.4512821 L238.594872,102.758974 L232.861538,109.374359 L232.861538,118.194872 L217.425641,109.374359 L171.117949,63.5076923 L241.241026,40.574359 Z M296.369231,8.37948718 L338.707692,85.1179487 L272.553846,103.2 L243.446154,118.194872 L247.85641,108.933333 L272.553846,19.4051282 L276.964103,19.4051282 L296.369231,8.37948718 Z M463.076923,-2.64615385 L505.415385,43.6615385 L505.415385,103.2 L444.553846,17.6410256 L463.076923,-2.64615385 Z M-4.41025641,44.9846154 L17.2,79.3846154 L-4.41025641,93.0564103 L-4.41025641,44.9846154 Z M344.441026,-6.17435897 L381.046154,61.3025641 L361.2,77.1794872 L344.441026,82.9128205 L303.425641,4.85128205 L323.271795,-6.17435897 L344.441026,-6.17435897 Z M109.374359,-6.17435897 L145.979487,52.4820513 L112.461538,75.8564103 L63.5076923,8.37948718 L82.0307692,-6.17435897 L109.374359,-6.17435897 Z M-1.32307692,-6.17435897 L44.9846154,60.8615385 L23.374359,74.974359 L-4.41025641,34.8410256 L-4.41025641,-6.17435897 L-1.32307692,-6.17435897 Z M44.1025641,-6.17435897 L83.3538462,50.2769231 L58.6564103,66.1538462 L6.61538462,-6.17435897 L44.1025641,-6.17435897 Z M220.953846,-6.17435897 L238.594872,33.5179487 L166.707692,58.6564103 L156.123077,48.0717949 L141.128205,18.9641026 L213.45641,-6.17435897 L220.953846,-6.17435897 Z M418.974359,-6.17435897 L430.882051,9.7025641 L386.779487,56.4512821 L361.2,7.93846154 L386.779487,-6.17435897 L418.974359,-6.17435897 Z M268.14359,-6.17435897 L253.148718,48.0717949 L228.451282,-6.17435897 L268.14359,-6.17435897 Z M505.415385,-6.17435897 L505.415385,33.5179487 L470.133333,-6.17435897 L505.415385,-6.17435897 Z M288.871795,-6.17435897 L293.282051,2.20512821 L274.317949,13.6717949 L279.169231,-6.17435897 L288.871795,-6.17435897 Z M193.169231,-6.17435897 L136.717949,13.6717949 L123.928205,-6.17435897 L193.169231,-6.17435897 Z M447.641026,-6.17435897 L435.292308,4.85128205 L427.794872,-6.17435897 L447.641026,-6.17435897 Z M372.225641,-6.17435897 L357.671795,2.20512821 L352.820513,-6.17435897 L372.225641,-6.17435897 Z M70.1230769,-6.17435897 L58.2153846,2.20512821 L52.4820513,-6.17435897 L70.1230769,-6.17435897 Z M308.717949,-6.17435897 L299.897436,-0.441025641 L296.369231,-6.17435897 L308.717949,-6.17435897 Z" id="Shape" stroke="#E4E4E4" stroke-width="0.882051282" fill="#FFFFFF" fill-rule="nonzero" mask="url(#mask-2)"></path>
                </g>
            </g>
            <g id="STREET-NAMES" transform="translate(169.810384, 38.268367)" fill="#FFFFFF" font-family="Helvetica" font-size="4.41025641" font-weight="normal">
                <g id="Gladstonos" transform="translate(122.284984, 66.462633) rotate(-16.000000) translate(-122.284984, -66.462633) translate(110.284984, 63.462633)">
                    <text>
                        <tspan x="0.788396" y="4.217432">Gladstonos</tspan>
                    </text>
                </g>
                <g id="Thesalonikis" transform="translate(12.305113, 43.726658) rotate(45.000000) translate(-12.305113, -43.726658) translate(-0.694887, 40.726658)">
                    <text>
                        <tspan x="0.18961593" y="4.7316334">Thesalonikis</tspan>
                    </text>
                </g>
                <g id="Gladstonos" transform="translate(15.705991, 153.029507) rotate(-51.000000) translate(-15.705991, -153.029507) translate(3.705991, 150.029507)">
                    <text>
                        <tspan x="0.43219877" y="4.774683">Gladstonos</tspan>
                    </text>
                </g>
                <g id="Agias-Zonis" transform="translate(88.257503, 13.468506) rotate(-74.000000) translate(-88.257503, -13.468506) translate(75.757503, 10.468506)">
                    <text>
                        <tspan x="0.1896159" y="4.7316334">Agias Zonis</tspan>
                    </text>
                </g>
            </g>
        </g>
        <g id="TCG-LOGO-(PIN)" transform="translate(97.000000, 63.000000)">
            <g id="Group-14">
                <g id="Group-10">
                    <g id="Fill-8-Clipped">
                        <mask id="mask-4" fill="white">
                            <use xlink:href="#path-3"></use>
                        </mask>
                        <g id="path-3"></g>
                        <polygon id="Fill-8" fill="url(#linearGradient-5)" fill-rule="nonzero" mask="url(#mask-4)" points="0 16.937528 14.5825765 16.937528 14.5825765 0 0 0"></polygon>
                    </g>
                </g>
                <g id="Group-13">
                    <g id="Fill-11-Clipped">
                        <mask id="mask-7" fill="white">
                            <use xlink:href="#path-6"></use>
                        </mask>
                        <g id="path-6"></g>
                        <polygon id="Fill-11" fill="url(#linearGradient-8)" fill-rule="nonzero" mask="url(#mask-7)" points="0 16.937528 14.5825765 16.937528 14.5825765 0 0 0"></polygon>
                    </g>
                </g>
            </g>
            <g id="Group-5" transform="translate(18.000000, 2.000000)">
                <g id="THE" transform="translate(12.638031, 0.000000)">
                    <g id="Fill-15-Clipped">
                        <mask id="mask-10" fill="white">
                            <use xlink:href="#path-9"></use>
                        </mask>
                        <g id="path-9"></g>
                        <polygon id="Fill-15" fill="#232323" fill-rule="nonzero" mask="url(#mask-10)" points="-0.151005415 -0.13519286 6.19955742 -0.13519286 6.19955742 2.28651354 -0.151005415 2.28651354"></polygon>
                    </g>
                </g>
                <g id="CODEERO" transform="translate(0.000000, 3.878600)">
                    <g id="Fill-18-Clipped">
                        <mask id="mask-12" fill="white">
                            <use xlink:href="#path-11"></use>
                        </mask>
                        <g id="path-11"></g>
                        <polygon id="Fill-18" fill="#232323" fill-rule="nonzero" mask="url(#mask-12)" points="-0.155111188 -0.1379741 31.5365546 -0.1379741 31.5365546 4.53454063 -0.155111188 4.53454063"></polygon>
                    </g>
                </g>
                <g id="GROUP" transform="translate(9.018092, 10.027600)">
                    <g id="Fill-21-Clipped">
                        <mask id="mask-14" fill="white">
                            <use xlink:href="#path-13"></use>
                        </mask>
                        <g id="path-13"></g>
                        <polygon id="Fill-21" fill="#232323" fill-rule="nonzero" mask="url(#mask-14)" points="-0.15657504 -0.126789227 13.6075392 -0.126789227 13.6075392 2.80285421 -0.15657504 2.80285421"></polygon>
                    </g>
                </g>
            </g>
        </g>
    </g>
</svg>