<?xml version="1.0" encoding="UTF-8"?>
<svg width="623px" height="589px" viewBox="0 0 623 589" version="1.1" xmlns="http://www.w3.org/2000/svg" xmlns:xlink="http://www.w3.org/1999/xlink">
    <!-- Generator: Sketch 60.1 (88133) - https://sketch.com -->
    <title>ICON_COLOR</title>
    <desc>Created with Sketch.</desc>
    <defs>
        <path d="M347.323743,334.197606 L383.444969,355.164576 L356.629465,370.728255 L294.914774,406.542593 L294.881805,406.606346 L222.617312,448.546975 L204.769097,458.906032 L114.659145,406.606346 L114.624371,406.545434 L52.9133952,370.728255 L26.0960193,355.163626 L58.8229648,336.167196 L185.198798,406.032077 L186.923638,407.03404 L186.923258,406.984093 L204.786769,416.861176 L222.615316,406.522336 L222.617312,407.029309 L277.038911,375.444583 L277.057439,375.476783 L311.903228,355.253887 L311.460664,354.996595 L343.928979,336.167196 L347.323743,334.197606 Z M230.075247,0 L318.602591,51.3817987 L318.67043,51.3792334 L390.938344,93.3233398 L408.783708,103.68179 L408.783708,208.284052 L408.749218,208.339538 L408.750168,311.101616 L373.241958,290.493219 L373.242718,123.983963 L230.071827,41.3129443 L230.075247,0 Z M179.461047,0 L179.461047,41.4212575 L143.60937,62.2430499 L143.611745,62.2385843 L108.768711,82.4605684 L108.778117,82.4719698 L54.3649825,114.075869 L36.5186494,123.983963 L36.5186494,145.156254 L35.1052189,291.183003 L0.789876094,311.101616 L0.789876094,103.696041 L18.6302453,93.3423421 L90.9330474,51.3792334 L152.643073,15.5630903 L179.461047,0 Z" id="path-1"></path>
        <linearGradient x1="32.0522647%" y1="16.3246832%" x2="69.2497573%" y2="87.3372671%" id="linearGradient-3">
            <stop stop-color="#346AB3" offset="0%"></stop>
            <stop stop-color="#36C6F5" offset="100%"></stop>
        </linearGradient>
        <path d="M15.5543492,43.7635785 L16.1969126,43.792272 C21.9227868,44.2107981 26.404484,48.9074116 26.6346021,54.6031671 L26.6433432,55.175992 L26.2670972,93.1952642 L42.6837717,114.28784 C45.1735507,117.486785 49.2248454,118.865308 53.0032667,118.126878 L53.5972792,117.992722 L35.7350032,94.7231457 C32.5998104,90.638692 33.1208541,84.7216545 36.9215081,81.2519259 C38.9497208,79.3994847 41.5755564,78.484998 44.3105603,78.6764464 C46.8368238,78.853168 49.1377197,79.950457 50.8553394,81.7835158 L51.2723454,82.2570536 L78.2561151,114.858004 C82.4943926,119.978749 84.8850745,126.398778 85.044884,133.034959 L85.0521049,134.03182 L84.6327237,177.324521 C84.6171418,178.935158 83.3983329,180.253539 81.8373874,180.42418 L81.4980059,180.442897 L36.5673999,180.50418 C35.6847421,180.50418 34.8460747,180.134679 34.2513021,179.48518 C33.7408048,178.927367 33.4505443,178.207274 33.4262213,177.458773 L33.4364826,177.082717 L35.2703965,155.891519 L5.44283457,116.124699 C2.36645394,112.022573 0.771874246,107.00026 0.90508051,101.88702 L0.950401044,100.927403 L4.13832529,54.2909589 C4.34507053,51.2700651 5.71447274,48.5132085 7.99380104,46.5285111 C9.94856972,44.8270434 12.3707005,43.8714167 14.9156812,43.7707994 L15.5543492,43.7635785 Z M177.942287,45.5123621 C180.05886,47.3553021 181.390733,49.8639884 181.735815,52.6316763 L181.797763,53.2748099 L184.985307,99.9117292 C185.356992,105.353139 183.761557,110.750463 180.492018,115.10855 C176.880912,119.922978 174.172606,123.533894 172.367101,125.941107 C167.716568,132.141279 160.823952,141.330802 151.689061,153.509769 L150.664836,154.875275 L152.498845,176.066568 C152.575424,176.94704 152.279463,177.818202 151.683931,178.469031 C151.174573,179.025704 150.485549,179.376772 149.743034,179.465608 L149.367833,179.488031 L104.437227,179.426748 C102.831816,179.424373 101.507069,178.21326 101.323982,176.648704 L101.302509,176.308372 L100.883603,133.015671 C100.819375,126.360299 103.005212,119.867111 107.057742,114.619145 L107.679593,113.841475 L134.663267,81.2412846 C136.416041,79.123951 138.888338,77.8526008 141.625052,77.6607724 C144.363097,77.4684689 146.986367,78.3837157 149.01496,80.2361568 C152.674047,83.5769548 153.292762,89.1876748 150.534005,93.2458103 L150.200705,93.7069966 L132.338809,116.976573 C136.085781,117.9398 140.197313,116.767832 142.846047,113.76157 L143.251841,113.27169 L159.668611,92.1791151 L159.292365,54.1598429 C159.233742,48.2091713 163.822518,43.2086158 169.739175,42.776123 C172.749238,42.5556961 175.662578,43.5276647 177.942287,45.5123621 Z M15.3698367,50.0599973 C14.1704102,50.0599973 13.0240002,50.4878346 12.1087535,51.2846969 C11.2254306,52.0536258 10.6509905,53.0842166 10.4598271,54.225971 L10.401585,54.7217415 L7.21366079,101.358661 C6.96321021,105.027724 7.95028573,108.669329 10.0034864,111.698868 L10.4597321,112.338392 L41.0101423,153.0692 C41.3982647,153.586253 41.6158413,154.208104 41.6388341,154.848767 L41.6291429,155.234799 L39.9876275,174.201585 L78.3854259,174.149139 L78.7745934,133.970918 C78.8250445,128.795066 77.1452394,123.743869 74.0276238,119.639368 L73.4262954,118.88108 L46.4426206,86.2806049 C45.7959717,85.4992295 44.8835753,85.0297771 43.873697,84.9592785 C42.8633436,84.88954 41.8957455,85.2258811 41.146959,85.9098696 C39.8376042,87.1050205 39.5829731,89.0865825 40.4953695,90.5709487 L40.7087655,90.8809716 L60.9788255,117.286881 C61.5099404,117.97923 61.7309374,118.862268 61.5882299,119.724213 C61.4455225,120.586159 60.9520323,121.349862 60.2263336,121.832711 C53.1681118,126.527424 43.6251466,125.129518 38.1797468,118.710535 L37.7355675,118.164028 L20.6433606,96.2031414 C20.2930528,95.7537365 20.0730059,95.2193913 20.0026973,94.6586328 L19.9782794,94.234026 L20.3654516,55.1138544 C20.3913898,52.4788027 18.3602318,50.2648423 15.7406669,50.073394 C15.6163918,50.0646529 15.4929717,50.0599973 15.3698367,50.0599973 Z M170.694327,49.0460335 L170.195421,49.05772 C167.721319,49.2389071 165.771491,51.2237944 165.584698,53.6632173 L165.570256,54.0980854 L165.957428,93.218257 C165.962749,93.7886116 165.814056,94.3470898 165.530256,94.8353544 L165.292347,95.1874674 L148.20014,117.148259 C142.843386,124.031469 132.9637,125.642866 125.709754,120.816562 C124.984056,120.333713 124.490565,119.57001 124.347858,118.708064 C124.225483,117.969254 124.370091,117.215242 124.748617,116.578949 L124.957262,116.271207 L145.226942,89.8648225 C146.384184,88.3579385 146.19207,86.1742869 144.789509,84.8941006 C144.040817,84.2101121 143.071889,83.8713007 142.062011,83.9435095 C141.19674,84.0040319 140.402823,84.35719 139.786388,84.9489223 L139.493467,85.2644558 L112.509792,117.864931 C109.213555,121.847438 107.336886,126.828516 107.172231,131.985935 L107.161494,132.954769 L107.550282,173.13337 L145.94846,173.185911 L144.306945,154.219125 C144.251173,153.574281 144.395021,152.931148 144.71388,152.375615 L144.925945,152.053431 L175.475976,111.322718 C177.680625,108.383249 178.83131,104.79067 178.756821,101.128543 L178.722047,100.342892 L175.534503,53.7059725 C175.442912,52.3683042 174.836833,51.1477852 173.827334,50.2690229 C173.070567,49.6102124 172.158836,49.2039428 171.185632,49.082708 L170.694327,49.0460335 Z M119.005641,0.815294548 C128.440483,0.815294548 137.309911,4.50088956 143.981245,11.1938868 C150.65258,17.8864089 154.326868,26.7845304 154.326868,36.249111 C154.326868,45.3755454 150.910346,53.9754254 144.684521,60.5784466 L143.981245,61.3038602 L95.0558763,110.385618 C94.4427665,111.000723 93.6391584,111.308086 92.8360253,111.308086 C92.1475712,111.308086 91.4588321,111.081958 90.8899977,110.630273 L90.6161742,110.385618 L41.6908055,61.3043353 C27.9191589,47.4883183 27.9191589,25.0089536 41.6903304,11.1934117 C48.362045,4.50088956 57.231948,0.815294548 66.666315,0.815294548 C75.7642458,0.815294548 84.3367625,4.24226798 90.9188812,10.4879506 L91.6419195,11.1934117 L92.8360253,12.391318 L94.029656,11.1934117 C100.701371,4.50088956 109.571274,0.815294548 119.005641,0.815294548 Z M119.005641,7.11323353 C111.571458,7.11323353 104.563212,9.89650336 99.1639879,14.9719281 L98.4689781,15.6468905 L95.0558763,19.0712986 C94.4669944,19.6616057 93.668897,19.9937662 92.8360253,19.9937662 C92.1221081,19.9937662 91.4337491,19.7500615 90.8810666,19.3083526 L90.6165543,19.0712986 L87.2030725,15.6468905 C81.7173877,10.1438186 74.4242022,7.11323353 66.666315,7.11323353 C58.9089978,7.11323353 51.6153372,10.1438186 46.1300325,15.6465104 C35.01187,26.8001123 34.8097803,44.8208676 45.5236684,56.22416 L46.1300325,56.8508565 L92.8364053,103.706113 L139.541923,56.8512365 C145.027608,51.3481646 148.048882,44.0316063 148.048882,36.249111 C148.048882,28.4665208 145.027608,21.1500574 139.541923,15.6468905 C134.056713,10.1438186 126.763528,7.11323353 119.005641,7.11323353 Z" id="path-4"></path>
        <linearGradient x1="35.207571%" y1="56.9110213%" x2="41.2163586%" y2="61.5401463%" id="linearGradient-6">
            <stop stop-color="#346AB3" offset="0%"></stop>
            <stop stop-color="#36C6F5" offset="100%"></stop>
        </linearGradient>
    </defs>
    <g id="ICON_COLOR" stroke="none" stroke-width="1" fill="none" fill-rule="evenodd">
        <g id="Group" transform="translate(107.000000, 66.000000)">
            <g id="Group-3">
                <mask id="mask-2" fill="white">
                    <use xlink:href="#path-1"></use>
                </mask>
                <g id="Clip-2"></g>
                <polygon id="Fill-1" fill="url(#linearGradient-3)" mask="url(#mask-2)" points="0.789876094 458.906032 411.239992 458.906032 411.239992 0 0.789876094 0"></polygon>
            </g>
            <g id="Group-6" transform="translate(111.163573, 138.716937)">
                <mask id="mask-5" fill="white">
                    <use xlink:href="#path-4"></use>
                </mask>
                <g id="Clip-5"></g>
                <polygon id="Fill-4" fill="url(#linearGradient-6)" mask="url(#mask-5)" points="-727.788863 468.407193 1486.93155 468.407193 1486.93155 -902.610209 -727.788863 -902.610209"></polygon>
            </g>
        </g>
    </g>
</svg>