<?xml version="1.0" encoding="UTF-8"?>
<svg width="155px" height="174px" viewBox="0 0 155 174" version="1.1" xmlns="http://www.w3.org/2000/svg" xmlns:xlink="http://www.w3.org/1999/xlink">
    <!-- Generator: Sketch 60.1 (88133) - https://sketch.com -->
    <title>CODEERO FOUNDATION</title>
    <desc>Created with Sketch.</desc>
    <defs>
        <path d="M130.832682,125.815245 L144.439114,133.708672 L134.338036,139.567925 L111.090853,153.050935 L111.078434,153.074936 L83.8572673,168.864309 L77.1340594,172.764179 L43.1907227,153.074936 L43.1776236,153.052004 L19.9318404,139.567925 L9.83005703,133.708315 L22.1579043,126.556736 L69.7621626,152.858741 L70.4118894,153.23595 L70.4117462,153.217146 L77.1407163,156.935568 L83.8565158,153.043309 L83.8572673,153.234169 L104.35723,141.343479 L104.364209,141.355601 L117.4902,133.742295 L117.323491,133.645433 L129.553915,126.556736 L130.832682,125.815245 Z M86.6665821,0 L120.013769,19.3436862 L120.039323,19.3427204 L147.261778,35.1334022 L153.983913,39.0330438 L153.983913,78.4126175 L153.970921,78.4335066 L153.971279,117.120307 L140.595762,109.361872 L140.596049,46.6761955 L86.6652937,15.5530684 L86.6665821,0 Z M67.6008209,0 L67.6008209,15.593845 L54.0959246,23.4326173 L54.0968194,23.4309361 L40.9718668,31.0438988 L40.97541,31.048191 L20.4786359,42.9460988 L13.7561366,46.6761955 L13.7561366,54.6469195 L13.2237143,109.621554 L0.297536837,117.120307 L0.297536837,39.0384091 L7.01778961,35.140556 L34.2533867,19.3427204 L57.498812,5.85903066 L67.6008209,0 Z" id="path-1"></path>
        <path d="M5.85913651,16.4756577 L6.10118245,16.48646 C8.25805046,16.6440223 9.94625197,18.4121546 10.0329347,20.5564335 L10.0362273,20.7720847 L9.89450002,35.0851856 L16.0784641,43.0258994 C17.016334,44.2302052 18.542408,44.7491774 19.9656939,44.4711808 L20.1894513,44.420675 L13.4609465,35.6603866 C12.279957,34.1227138 12.4762279,31.895129 13.9078886,30.5888816 C14.671892,29.8914937 15.6610127,29.5472173 16.6912558,29.6192918 C17.6428689,29.6858221 18.5095888,30.0989181 19.1565955,30.789009 L19.3136766,30.9672816 L29.4781386,43.240549 C31.0746468,45.1683541 31.975188,47.5852999 32.0353863,50.0836201 L32.0381063,50.4589083 L31.8801304,66.757295 C31.8742609,67.3636507 31.4151503,67.8599811 30.8271608,67.9242222 L30.6993199,67.9312687 L13.7745003,67.9543397 C13.4420137,67.9543397 13.1260978,67.8152341 12.9020541,67.5707174 C12.7097559,67.3607177 12.6004183,67.0896246 12.5912561,66.8078365 L12.5951214,66.6662629 L13.2859347,58.6884209 L2.05025041,43.7174211 C0.891414776,42.1730953 0.290755757,40.282347 0.340932957,38.3573677 L0.358004658,37.996101 L1.55885743,20.4388966 C1.63673588,19.3016219 2.15257324,18.2637491 3.01116884,17.5165709 C3.74750672,16.8760199 4.65989428,16.5162555 5.61855795,16.4783762 L5.85913651,16.4756577 Z M67.0287221,17.1340216 C67.8260099,17.8278325 68.3277103,18.7722767 68.4576986,19.8142271 L68.4810335,20.0563474 L69.6817431,37.6137306 C69.8217525,39.6622559 69.2207714,41.6941845 67.9891753,43.3348718 C66.628915,45.1473577 65.6087288,46.5067578 64.9286166,47.4130007 C63.1768167,49.7471771 60.5804509,53.206753 57.1394474,57.791764 L56.7536341,58.3058358 L57.4444832,66.2837136 C57.4733298,66.6151848 57.3618448,66.9431506 57.1375147,67.1881681 C56.945646,67.3977386 56.6860989,67.5299049 56.4064022,67.5633489 L56.2650685,67.5717904 L39.3402489,67.5487194 C38.7355099,67.5478252 38.2364937,67.091878 38.1675269,66.5028702 L38.1594384,66.3747457 L38.0016415,50.076359 C37.9774476,47.5708134 38.8008261,45.1263255 40.3273654,43.1506258 L40.5616092,42.8578567 L50.7260353,30.5848754 C51.3862843,29.7877637 52.3175688,29.3091389 53.3484561,29.2369214 C54.3798445,29.164525 55.367999,29.5090876 56.1321455,30.2064754 C57.5104795,31.4641843 57.7435422,33.5764499 56.7043516,35.1042147 L56.5788013,35.2778373 L49.8504396,44.0381258 C51.2618792,44.4007517 52.8106439,43.9595413 53.8083899,42.827775 L53.9612479,42.6433501 L60.1452478,34.7026363 L60.0035204,20.3895354 C59.9814382,18.1492884 61.7099747,16.2667311 63.9387085,16.1039107 C65.0725629,16.0209267 66.1699833,16.3868433 67.0287221,17.1340216 Z M5.78963286,18.8460681 C5.33782332,18.8460681 4.90598445,19.0071358 4.56122199,19.3071303 C4.22848488,19.5966086 4.01210018,19.9845948 3.94009125,20.4144306 L3.91815215,20.6010732 L2.71729937,38.1584564 C2.62295765,39.5397472 2.99477714,40.9107007 3.76819318,42.0512304 L3.94005546,42.2919914 L15.448028,57.6259033 C15.5942291,57.8205581 15.6761876,58.0546661 15.6848487,58.2958563 L15.6811981,58.4411857 L15.062859,65.5816043 L29.5268484,65.5618598 L29.6734431,50.4359804 C29.6924475,48.4874294 29.0596851,46.5858072 27.8853167,45.0405873 L27.6588035,44.755115 L17.4943774,32.4820264 C17.2507925,32.1878623 16.9071037,32.0111278 16.5266947,31.9845872 C16.1461067,31.9583328 15.7816241,32.084955 15.4995652,32.3424559 C15.006347,32.7923939 14.9104305,33.5383917 15.2541193,34.0972105 L15.334503,34.2139247 L22.9699911,44.1549473 C23.1700557,44.4155958 23.2533026,44.7480328 23.1995465,45.072529 C23.1457903,45.3970252 22.9598984,45.6845362 22.6865365,45.8663142 C20.0277891,47.6337311 16.4330687,47.1074621 14.381852,44.6909097 L14.214535,44.4851665 L7.77610597,36.21756 C7.64414924,36.0483727 7.56126022,35.8472079 7.53477583,35.6360994 L7.52557786,35.4762478 L7.67142101,20.7486918 C7.68119161,19.7566748 6.91607878,18.923186 5.92932017,18.8511115 C5.8825072,18.8478208 5.83601635,18.8460681 5.78963286,18.8460681 Z M64.2985026,18.4643415 L64.1105708,18.4687411 C63.1786062,18.5369526 62.4441294,19.2842024 62.3737668,20.202571 L62.3683268,20.3662856 L62.5141699,35.0938417 C62.5161741,35.3085629 62.4601632,35.5188129 62.3532593,35.7026297 L62.2636418,35.8351896 L55.8252127,44.1027603 C53.8073878,46.6940799 50.0858287,47.3007219 47.3533545,45.4837649 C47.0799925,45.301987 46.8941007,45.0144759 46.8403445,44.6899797 C46.7942473,44.4118401 46.8487193,44.1279775 46.9913056,43.8884326 L47.0698998,43.7725769 L54.7052448,33.8313755 C55.1411637,33.2640794 55.0687968,32.4420009 54.5404689,31.9600497 C54.2584458,31.7025488 53.8934621,31.5749966 53.5130531,31.602181 C53.187116,31.6249659 52.8880571,31.7579192 52.6558533,31.9806884 L52.5455136,32.0994772 L42.3810874,44.3725658 C41.1394344,45.8718584 40.4325156,47.747083 40.370492,49.6886948 L40.3664478,50.0534311 L40.5128994,65.1794537 L54.977032,65.1992339 L54.3586928,58.0588153 C54.3376842,57.8160512 54.3918699,57.573931 54.5119802,57.3647897 L54.5918629,57.2434971 L66.0996923,41.909621 C66.9301572,40.8030003 67.3636066,39.4505036 67.3355474,38.071824 L67.3224484,37.7760503 L66.1217388,20.218667 C66.0872375,19.7150755 65.8589348,19.2555872 65.4786689,18.9247599 C65.1936038,18.6767378 64.8501655,18.5237896 64.4835713,18.4781484 L64.2985026,18.4643415 Z M44.8279954,0.306933628 C48.381987,0.306933628 51.722994,1.69444818 54.2360056,4.21415829 C56.7490172,6.73368955 58.1330776,10.0835619 58.1330776,13.646689 C58.1330776,17.0825143 56.8461148,20.3201078 54.5009212,22.8059447 L54.2360056,23.0790409 L35.8064069,41.5568316 C35.5754557,41.7883999 35.2727462,41.9041126 34.9702156,41.9041126 C34.7108833,41.9041126 34.4514435,41.8189824 34.2371704,41.6489367 L34.1340244,41.5568316 L15.7044257,23.0792197 C10.5168118,17.8779091 10.5168118,9.41511123 15.7042467,4.21397944 C18.2174015,1.69444818 21.5585874,0.306933628 25.1124001,0.306933628 C28.5394814,0.306933628 31.7686454,1.59708501 34.2480505,3.94839476 L34.5204103,4.21397944 L34.9702156,4.66495476 L35.419842,4.21397944 C37.9329968,1.69444818 41.2741827,0.306933628 44.8279954,0.306933628 Z M44.8279954,2.67791631 C42.0276281,2.67791631 39.3877061,3.72573285 37.3538832,5.63647605 L37.0920813,5.8905789 L35.8064069,7.17976452 C35.5845821,7.4019972 35.2839484,7.52704555 34.9702156,7.52704555 C34.7012916,7.52704555 34.441995,7.43529812 34.2338062,7.26900812 L34.1341676,7.17976452 L32.84835,5.8905789 C30.7819584,3.81883951 28.034703,2.67791631 25.1124001,2.67791631 C22.1903119,2.67791631 19.4428776,3.81883951 17.3766292,5.89043582 C13.1885509,10.0894281 13.1124261,16.873695 17.1482191,21.1666881 L17.3766292,21.4026203 L34.9703588,39.0422006 L52.5637663,21.4027633 C54.6301579,19.331024 55.7682355,16.576562 55.7682355,13.646689 C55.7682355,10.7167802 54.6301579,7.96235406 52.5637663,5.8905789 C50.4975537,3.81883951 47.7502983,2.67791631 44.8279954,2.67791631 Z" id="path-3"></path>
    </defs>
    <g id="DESKTOP" stroke="none" stroke-width="1" fill="none" fill-rule="evenodd">
        <g id="DESKTOP_DETAILS" transform="translate(-432.000000, -1497.000000)">
            <g id="OUR-COMPANIES" transform="translate(92.000000, 1370.000000)">
                <g id="ALL-COMPANIES-BRACKET" transform="translate(0.000000, 84.000000)">
                    <g id="CODEERO-FOUNDATION" transform="translate(285.000000, 0.000000)">
                        <g transform="translate(55.274254, 43.705224)">
                            <g id="Group-3">
                                <mask id="mask-2" fill="white">
                                    <use xlink:href="#path-1"></use>
                                </mask>
                                <g id="Clip-2"></g>
                                <polygon id="Fill-1" fill="#FFFFFF" mask="url(#mask-2)" points="0.297536837 172.764179 154.909165 172.764179 154.909165 0 0.297536837 0"></polygon>
                            </g>
                            <g id="Group-6" transform="translate(41.873983, 52.222713)">
                                <mask id="mask-4" fill="white">
                                    <use xlink:href="#path-3"></use>
                                </mask>
                                <g id="Clip-5"></g>
                                <polygon id="Fill-4" fill="#FFFFFF" mask="url(#mask-4)" points="-274.149323 176.341077 560.109257 176.341077 560.109257 -339.805321 -274.149323 -339.805321"></polygon>
                            </g>
                        </g>
                    </g>
                </g>
            </g>
        </g>
    </g>
</svg>