<?xml version="1.0" encoding="UTF-8"?>
<svg width="509px" height="175px" viewBox="0 0 509 175" version="1.1" xmlns="http://www.w3.org/2000/svg" xmlns:xlink="http://www.w3.org/1999/xlink">
    <!-- Generator: Sketch 60.1 (88133) - https://sketch.com -->
    <title>TCG_HORIZONTAL_NO_BACKGROUND</title>
    <desc>Created with Sketch.</desc>
    <defs>
        <polygon id="path-1" points="87.5920396 0 121.411434 19.5881696 121.43734 19.587213 149.045307 35.5774729 155.86263 39.5264111 155.86263 79.4036997 155.849437 79.4248696 155.849791 118.60063 129.831689 103.531628 105.451877 89.4115481 119.147233 81.4796637 142.213223 94.8391104 142.213223 79.4214965 142.200257 79.4204141 142.200257 55.3372424 111.562083 73.0825691 84.7429455 88.6154472 84.742718 132.383677 84.7429455 155.170986 105.533209 143.130007 105.540286 143.142266 118.852158 135.432754 95.7848531 122.07366 95.7851059 106.209866 120.165625 120.329316 146.18264 135.398696 135.938534 141.331996 112.362159 154.985435 112.349572 155.009742 84.7429455 170.998688 77.9245352 174.94785 43.500585 155.009742 43.4872656 154.986518 19.9123314 141.331996 9.66750181 135.398343 35.684178 120.330298 60.0646975 106.209614 60.0646975 122.073282 36.9993136 135.433836 50.3074703 143.142266 50.3158613 143.130233 71.1072118 155.172791 71.1072118 132.384029 71.106125 120.935794 71.1057711 88.6154472 44.2880488 73.0821915 13.649177 55.33762 13.649776 79.4218741 13.6345408 79.4221007 13.6358601 94.8391104 36.701838 81.4796637 50.3971932 89.4115481 26.0164209 103.532232 0 118.60063 0 39.5318232 6.81541276 35.5846973 34.4366757 19.587213 58.0112561 5.9330484 68.2557166 0 68.2573847 30.1369216 68.2564243 58.3777859 54.5610691 50.4455239 54.5610691 23.7271088 41.2502839 31.4362682 41.2580936 31.4470923 20.466867 43.4889173 40.1394132 54.8839638 50.0231877 60.6086103 77.9241814 76.7677011 104.743319 61.2348229 135.381493 43.4895214 114.590269 31.4470923 114.597472 31.4358906 101.286308 23.7263788 101.286687 50.4462539 87.5916857 58.3781635 87.5909528 30.1369216"></polygon>
        <linearGradient x1="32.351356%" y1="16.4344899%" x2="69.401697%" y2="87.3450431%" id="linearGradient-3">
            <stop stop-color="#346AB3" offset="0%"></stop>
            <stop stop-color="#36C6F5" offset="100%"></stop>
        </linearGradient>
        <path d="M147.755289,0 L147.755289,-17.7492546 L154.530542,-17.7492546 L154.530542,-22.26609 L136.081496,-22.26609 L136.081496,-17.7492546 L142.856749,-17.7492546 L142.856749,0 L147.755289,0 Z M163.182508,0 L163.182508,-8.9382447 L172.216179,-8.9382447 L172.216179,0 L177.114719,0 L177.114719,-22.26609 L172.216179,-22.26609 L172.216179,-13.4550801 L163.182508,-13.4550801 L163.182508,-22.26609 L158.283968,-22.26609 L158.283968,0 L163.182508,0 Z M199.412618,0 L199.412618,-4.3577919 L187.325311,-4.3577919 L187.325311,-9.0336708 L197.822182,-9.0336708 L197.822182,-13.3914627 L187.325311,-13.3914627 L187.325311,-17.9082981 L199.253574,-17.9082981 L199.253574,-22.26609 L182.45858,-22.26609 L182.45858,0 L199.412618,0 Z" id="path-4"></path>
        <path d="M26.2103688,64.7634088 C28.3733604,64.7634088 30.324294,64.5831595 32.0631696,64.2226609 C33.8020452,63.8621623 35.4030831,63.3320173 36.8662833,62.6322259 C38.3294835,61.9324345 39.6760518,61.0948054 40.9059882,60.1193386 C42.1359246,59.1438718 43.3234494,58.0411702 44.4685626,56.8112338 L38.2340574,50.5131112 C36.4951818,52.124752 34.7457033,53.3971 32.9856219,54.3301552 C31.2255405,55.2632104 29.0731518,55.729738 26.5284558,55.729738 C24.6199338,55.729738 22.8704553,55.3586365 21.2800203,54.6164335 C19.6895853,53.8742305 18.3324141,52.866955 17.2085067,51.594607 C16.0845993,50.322259 15.2045586,48.837853 14.5683846,47.141389 C13.9322106,45.444925 13.6141236,43.642432 13.6141236,41.73391 L13.6141236,41.6066752 C13.6141236,39.6981532 13.9322106,37.9062631 14.5683846,36.2310049 C15.2045586,34.5557467 16.0952022,33.0819436 17.2403154,31.8095956 C18.3854286,30.5372476 19.7532027,29.540575 21.3436377,28.8195778 C22.9340727,28.0985806 24.6623454,27.738082 26.5284558,27.738082 C28.7762706,27.738082 30.8014245,28.1834038 32.6039175,29.0740474 C34.4064105,29.964691 36.1770948,31.1946274 37.9159704,32.7638566 L44.1504756,25.5750904 C43.1325972,24.557212 42.0298956,23.6241568 40.8423708,22.7759248 C39.654846,21.9276928 38.3612922,21.2066956 36.9617094,20.6129332 C35.5621266,20.0191708 34.0035003,19.5526432 32.2858305,19.2133504 C30.5681607,18.8740576 28.6702416,18.7044112 26.5920732,18.7044112 C23.1567336,18.7044112 20.0182752,19.3087765 17.176698,20.5175071 C14.3351208,21.7262377 11.8964538,23.3802901 9.860697,25.4796643 C7.8249402,27.5790385 6.2345052,30.0177055 5.089392,32.7956653 C3.9442788,35.5736251 3.3717222,38.55304 3.3717222,41.73391 L3.3717222,41.8611448 C3.3717222,45.0420148 3.9442788,48.0320326 5.089392,50.8311982 C6.2345052,53.6303638 7.8249402,56.0584279 9.860697,58.1153905 C11.8964538,60.1723531 14.313915,61.7945968 17.1130806,62.9821216 C19.9122462,64.1696464 22.9446756,64.7634088 26.2103688,64.7634088 Z M73.9234188,64.7634088 C77.3587584,64.7634088 80.5290255,64.1590435 83.4342201,62.9503129 C86.3394147,61.7415823 88.8416991,60.0875299 90.9410733,57.9881557 C93.0404475,55.8887815 94.683897,53.4501145 95.8714218,50.6721547 C97.0589466,47.8941949 97.652709,44.91478 97.652709,41.73391 L97.652709,41.6066752 C97.652709,38.4258052 97.0695495,35.4463903 95.9032305,32.6684305 C94.7369115,29.8904707 93.1040649,27.4730095 91.0046907,25.4160469 C88.9053165,23.3590843 86.413635,21.7262377 83.5296462,20.5175071 C80.6456574,19.3087765 77.4859932,18.7044112 74.0506536,18.7044112 C70.615314,18.7044112 67.4450469,19.3087765 64.5398523,20.5175071 C61.6346577,21.7262377 59.1323733,23.3802901 57.0329991,25.4796643 C54.9336249,27.5790385 53.2901754,30.0177055 52.1026506,32.7956653 C50.9151258,35.5736251 50.3213634,38.55304 50.3213634,41.73391 L50.3213634,41.8611448 C50.3213634,45.0420148 50.9045229,48.0214297 52.0708419,50.7993895 C53.2371609,53.5773493 54.8700075,55.9948105 56.9693817,58.0517731 C59.0687559,60.1087357 61.5604374,61.7415823 64.4444262,62.9503129 C67.328415,64.1590435 70.4880792,64.7634088 73.9234188,64.7634088 Z M74.0506536,55.729738 C72.0573084,55.729738 70.2442125,55.3586365 68.6113659,54.6164335 C66.9785193,53.8742305 65.5577307,52.866955 64.3490001,51.594607 C63.1402695,50.322259 62.2072143,48.837853 61.5498345,47.141389 C60.8924547,45.444925 60.5637648,43.642432 60.5637648,41.73391 L60.5637648,41.6066752 C60.5637648,39.6981532 60.8924547,37.9062631 61.5498345,36.2310049 C62.2072143,34.5557467 63.1190637,33.0819436 64.2853827,31.8095956 C65.4517017,30.5372476 66.8512845,29.540575 68.4841311,28.8195778 C70.1169777,28.0985806 71.9300736,27.738082 73.9234188,27.738082 C75.8743524,27.738082 77.6768454,28.1091835 79.3308978,28.8513865 C80.9849502,29.5935895 82.4163417,30.600865 83.6250723,31.873213 C84.8338029,33.145561 85.7668581,34.629967 86.4242379,36.326431 C87.0816177,38.022895 87.4103076,39.825388 87.4103076,41.73391 L87.4103076,41.8611448 C87.4103076,43.7696668 87.0816177,45.5615569 86.4242379,47.2368151 C85.7668581,48.9120733 84.8550087,50.3858764 83.6886897,51.6582244 C82.5223707,52.9305724 81.112185,53.927245 79.4581326,54.6482422 C77.8040802,55.3692394 76.0015872,55.729738 74.0506536,55.729738 Z M123.735843,64 C127.213594,64 130.405067,63.4274434 133.310262,62.2823302 C136.215456,61.137217 138.717741,59.5679878 140.817115,57.5746426 C142.916489,55.5812974 144.538733,53.2274536 145.683846,50.5131112 C146.828959,47.7987688 147.401516,44.8723684 147.401516,41.73391 L147.401516,41.6066752 C147.401516,38.4682168 146.828959,35.5524193 145.683846,32.8592827 C144.538733,30.1661461 142.916489,27.8229052 140.817115,25.82956 C138.717741,23.8362148 136.215456,22.2775885 133.310262,21.1536811 C130.405067,20.0297737 127.213594,19.46782 123.735843,19.46782 L106.368293,19.46782 L106.368293,64 L123.735843,64 Z M123.735843,55.1571814 L116.165372,55.1571814 L116.165372,28.3106386 L123.735843,28.3106386 C125.729188,28.3106386 127.552887,28.6393285 129.206939,29.2967083 C130.860992,29.9540881 132.271177,30.8765404 133.437497,32.0640652 C134.603816,33.25159 135.515665,34.6723786 136.173045,36.326431 C136.830425,37.9804834 137.159114,39.7829764 137.159114,41.73391 L137.159114,41.8611448 C137.159114,43.85449 136.830425,45.656983 136.173045,47.2686238 C135.515665,48.8802646 134.603816,50.2798474 133.437497,51.4673722 C132.271177,52.654897 130.860992,53.5667464 129.206939,54.2029204 C127.552887,54.8390944 125.729188,55.1571814 123.735843,55.1571814 Z M190.025174,64 L190.025174,55.2844162 L165.850562,55.2844162 L165.850562,45.9326584 L186.844304,45.9326584 L186.844304,37.2170746 L165.850562,37.2170746 L165.850562,28.1834038 L189.707087,28.1834038 L189.707087,19.46782 L156.1171,19.46782 L156.1171,64 L190.025174,64 Z M232.648832,64 L232.648832,55.2844162 L208.47422,55.2844162 L208.47422,45.9326584 L229.467962,45.9326584 L229.467962,37.2170746 L208.47422,37.2170746 L208.47422,28.1834038 L232.330745,28.1834038 L232.330745,19.46782 L198.740758,19.46782 L198.740758,64 L232.648832,64 Z M251.161495,64 L251.161495,49.7497024 L258.859201,49.7497024 L268.401811,64 L279.852943,64 L268.974367,48.09565 C271.815944,47.03536 274.116774,45.3707047 275.876855,43.1016841 C277.636937,40.8326635 278.516977,37.8956602 278.516977,34.2906742 L278.516977,34.1634394 C278.516977,29.540575 277.043174,25.935589 274.095568,23.3484814 C271.147962,20.7613738 267.023434,19.46782 261.721984,19.46782 L241.364416,19.46782 L241.364416,64 L251.161495,64 Z M261.08581,41.097736 L251.161495,41.097736 L251.161495,28.3106386 L260.894957,28.3106386 C263.312419,28.3106386 265.199735,28.8407836 266.556906,29.9010736 C267.914077,30.9613636 268.592663,32.5517986 268.592663,34.6723786 L268.592663,34.7996134 C268.592663,36.7081354 267.945886,38.234953 266.652332,39.3800662 C265.358778,40.5251794 263.503271,41.097736 261.08581,41.097736 Z M308.989712,64.7634088 C312.425051,64.7634088 315.595319,64.1590435 318.500513,62.9503129 C321.405708,61.7415823 323.907992,60.0875299 326.007366,57.9881557 C328.106741,55.8887815 329.75019,53.4501145 330.937715,50.6721547 C332.12524,47.8941949 332.719002,44.91478 332.719002,41.73391 L332.719002,41.6066752 C332.719002,38.4258052 332.135843,35.4463903 330.969524,32.6684305 C329.803205,29.8904707 328.170358,27.4730095 326.070984,25.4160469 C323.97161,23.3590843 321.479928,21.7262377 318.595939,20.5175071 C315.71195,19.3087765 312.552286,18.7044112 309.116947,18.7044112 C305.681607,18.7044112 302.51134,19.3087765 299.606145,20.5175071 C296.700951,21.7262377 294.198666,23.3802901 292.099292,25.4796643 C289.999918,27.5790385 288.356468,30.0177055 287.168944,32.7956653 C285.981419,35.5736251 285.387656,38.55304 285.387656,41.73391 L285.387656,41.8611448 C285.387656,45.0420148 285.970816,48.0214297 287.137135,50.7993895 C288.303454,53.5773493 289.936301,55.9948105 292.035675,58.0517731 C294.135049,60.1087357 296.62673,61.7415823 299.510719,62.9503129 C302.394708,64.1590435 305.554372,64.7634088 308.989712,64.7634088 Z M309.116947,55.729738 C307.123601,55.729738 305.310506,55.3586365 303.677659,54.6164335 C302.044812,53.8742305 300.624024,52.866955 299.415293,51.594607 C298.206563,50.322259 297.273507,48.837853 296.616128,47.141389 C295.958748,45.444925 295.630058,43.642432 295.630058,41.73391 L295.630058,41.6066752 C295.630058,39.6981532 295.958748,37.9062631 296.616128,36.2310049 C297.273507,34.5557467 298.185357,33.0819436 299.351676,31.8095956 C300.517995,30.5372476 301.917578,29.540575 303.550424,28.8195778 C305.183271,28.0985806 306.996367,27.738082 308.989712,27.738082 C310.940645,27.738082 312.743138,28.1091835 314.397191,28.8513865 C316.051243,29.5935895 317.482635,30.600865 318.691365,31.873213 C319.900096,33.145561 320.833151,34.629967 321.490531,36.326431 C322.147911,38.022895 322.476601,39.825388 322.476601,41.73391 L322.476601,41.8611448 C322.476601,43.7696668 322.147911,45.5615569 321.490531,47.2368151 C320.833151,48.9120733 319.921302,50.3858764 318.754983,51.6582244 C317.588664,52.9305724 316.178478,53.927245 314.524426,54.6482422 C312.870373,55.3692394 311.06788,55.729738 309.116947,55.729738 Z" id="path-5"></path>
        <path d="M112.069755,111.458045 C114.512663,111.458045 116.682017,111.044532 118.577815,110.217506 C120.473614,109.39048 122.108581,108.391687 123.482717,107.221126 L123.482717,95.6173127 L111.878903,95.6173127 L111.878903,100.693981 L117.795321,100.693981 L117.795321,104.511025 C116.293951,105.579798 114.449046,106.114184 112.260607,106.114184 C111.0646,106.114184 109.976743,105.904246 108.997035,105.484371 C108.017327,105.064497 107.164854,104.472855 106.439615,103.709446 C105.714377,102.946037 105.154544,102.049032 104.760116,101.01843 C104.365688,99.9878281 104.168474,98.8618001 104.168474,97.640346 L104.168474,97.5640051 C104.168474,96.4188919 104.365688,95.3437579 104.760116,94.3386029 C105.154544,93.333448 105.701654,92.4555279 106.401445,91.7048426 C107.101236,90.9541573 107.915539,90.3561537 108.844353,89.9108319 C109.773167,89.4655101 110.77196,89.2428492 111.840733,89.2428492 C112.604141,89.2428492 113.303933,89.3064666 113.940107,89.4337014 C114.576281,89.5609362 115.167923,89.7390649 115.715032,89.9680876 C116.262142,90.1971102 116.790166,90.4770268 117.299106,90.8078372 C117.808045,91.1386477 118.316984,91.5203521 118.825923,91.9529504 L122.528456,87.487009 C121.841388,86.9017289 121.128873,86.3800662 120.390911,85.9220209 C119.652949,85.4639756 118.864094,85.0822712 118.024344,84.7769077 C117.184594,84.4715442 116.274865,84.2361598 115.295157,84.0707546 C114.315449,83.9053493 113.227592,83.8226467 112.031585,83.8226467 C109.995828,83.8226467 108.125476,84.1852659 106.42053,84.9105043 C104.715584,85.6357426 103.23966,86.6281741 101.992759,87.8877986 C100.745858,89.1474231 99.7725118,90.6106233 99.0727204,92.2773992 C98.372929,93.9441751 98.0230333,95.731824 98.0230333,97.640346 L98.0230333,97.7166869 C98.0230333,99.7015498 98.3665673,101.533731 99.0536352,103.21323 C99.7407031,104.89273 100.701326,106.343206 101.935503,107.56466 C103.169681,108.786114 104.645605,109.740375 106.363274,110.427443 C108.080944,111.114511 109.983105,111.458045 112.069755,111.458045 Z M135.01019,111 L135.01019,102.449821 L139.628813,102.449821 L145.354379,111 L152.225058,111 L145.697913,101.45739 C147.402859,100.821216 148.783357,99.8224228 149.839406,98.4610105 C150.895454,97.0995981 151.423479,95.3373961 151.423479,93.1744045 L151.423479,93.0980636 C151.423479,90.324345 150.539197,88.1613534 148.770633,86.6090888 C147.00207,85.0568243 144.527353,84.280692 141.346483,84.280692 L129.131942,84.280692 L129.131942,111 L135.01019,111 Z M140.964778,97.2586416 L135.01019,97.2586416 L135.01019,89.5863832 L140.850267,89.5863832 C142.300744,89.5863832 143.433133,89.9044702 144.247436,90.5406442 C145.061739,91.1768182 145.46889,92.1310792 145.46889,93.4034272 L145.46889,93.479768 C145.46889,94.6248812 145.080824,95.5409718 144.304692,96.2280397 C143.52856,96.9151076 142.415255,97.2586416 140.964778,97.2586416 Z M169.70712,111.458045 C171.768323,111.458045 173.670484,111.095426 175.4136,110.370188 C177.156717,109.644949 178.658088,108.652518 179.917712,107.392893 C181.177337,106.133269 182.163407,104.670069 182.875921,103.003293 C183.588436,101.336517 183.944694,99.548868 183.944694,97.640346 L183.944694,97.5640051 C183.944694,95.6554831 183.594798,93.8678342 182.895007,92.2010583 C182.195215,90.5342824 181.215507,89.0838057 179.955883,87.8496281 C178.696258,86.6154506 177.201249,85.6357426 175.470856,84.9105043 C173.740463,84.1852659 171.844664,83.8226467 169.783461,83.8226467 C167.722257,83.8226467 165.820096,84.1852659 164.07698,84.9105043 C162.333863,85.6357426 160.832492,86.6281741 159.572868,87.8877986 C158.313243,89.1474231 157.327174,90.6106233 156.614659,92.2773992 C155.902144,93.9441751 155.545886,95.731824 155.545886,97.640346 L155.545886,97.7166869 C155.545886,99.6252089 155.895782,101.412858 156.595574,103.079634 C157.295365,104.74641 158.275073,106.196886 159.534697,107.431064 C160.794322,108.665241 162.289331,109.644949 164.019724,110.370188 C165.750117,111.095426 167.645916,111.458045 169.70712,111.458045 Z M169.783461,106.037843 C168.587453,106.037843 167.499596,105.815182 166.519888,105.36986 C165.54018,104.924538 164.687707,104.320173 163.962468,103.556764 C163.23723,102.793355 162.677397,101.902712 162.282969,100.884833 C161.888541,99.866955 161.691327,98.7854592 161.691327,97.640346 L161.691327,97.5640051 C161.691327,96.4188919 161.888541,95.3437579 162.282969,94.3386029 C162.677397,93.333448 163.224507,92.4491662 163.924298,91.6857574 C164.624089,90.9223486 165.463839,90.324345 166.443547,89.8917467 C167.423255,89.4591484 168.511113,89.2428492 169.70712,89.2428492 C170.87768,89.2428492 171.959176,89.4655101 172.951607,89.9108319 C173.944038,90.3561537 174.802873,90.960519 175.528112,91.7239278 C176.25335,92.4873366 176.813183,93.3779802 177.207611,94.3958586 C177.602039,95.413737 177.799253,96.4952328 177.799253,97.640346 L177.799253,97.7166869 C177.799253,98.8618001 177.602039,99.9369341 177.207611,100.942089 C176.813183,101.947244 176.266074,102.831526 175.566282,103.594935 C174.866491,104.358343 174.020379,104.956347 173.027948,105.388945 C172.035516,105.821544 170.954021,106.037843 169.783461,106.037843 Z M200.319813,111.419875 C202.1011,111.419875 203.716982,111.171767 205.167458,110.675551 C206.617935,110.179336 207.852113,109.42865 208.869991,108.423495 C209.887869,107.41834 210.670364,106.165078 211.217473,104.663707 C211.764583,103.162336 212.038138,101.393773 212.038138,99.3580158 L212.038138,84.280692 L206.15989,84.280692 L206.15989,99.5870384 C206.15989,101.724583 205.650951,103.327742 204.633072,104.396514 C203.615194,105.465286 202.202888,105.999672 200.396153,105.999672 C198.589419,105.999672 197.177113,105.446201 196.159235,104.339258 C195.141356,103.232315 194.632417,101.584625 194.632417,99.3961862 L194.632417,84.280692 L188.754169,84.280692 L188.754169,99.548868 C188.754169,103.493147 189.784771,106.457718 191.845975,108.442581 C193.907179,110.427443 196.731791,111.419875 200.319813,111.419875 Z M223.909144,111 L223.909144,102.984208 L228.375086,102.984208 C229.876457,102.984208 231.282401,102.786994 232.59292,102.392566 C233.903438,101.998138 235.048551,101.406496 236.028259,100.61764 C237.007967,99.8287846 237.777738,98.8490766 238.337571,97.6785164 C238.897404,96.5079563 239.17732,95.1465439 239.17732,93.5942794 L239.17732,93.5179385 C239.17732,92.1438026 238.941936,90.8905399 238.471167,89.7581501 C238.000399,88.6257604 237.326054,87.6524142 236.448134,86.8381115 C235.570214,86.0238088 234.501442,85.3939965 233.241817,84.9486747 C231.982192,84.5033529 230.550801,84.280692 228.947643,84.280692 L218.030897,84.280692 L218.030897,111 L223.909144,111 Z M228.565938,97.7548573 L223.909144,97.7548573 L223.909144,89.5863832 L228.451427,89.5863832 C229.92735,89.5863832 231.091549,89.9299171 231.944022,90.616985 C232.796495,91.304053 233.222732,92.3092079 233.222732,93.6324498 L233.222732,93.7087907 C233.222732,94.8539039 232.81558,95.8145266 232.001278,96.5906589 C231.186975,97.3667912 230.041862,97.7548573 228.565938,97.7548573 Z" id="path-6"></path>
    </defs>
    <g id="Page-1" stroke="none" stroke-width="1" fill="none" fill-rule="evenodd">
        <g id="TCG_HORIZONTAL_NO_BACKGROUND">
            <g id="REGULAR-LOGO-NO-NAME">
                <g id="Fill-1-Clipped">
                    <mask id="mask-2" fill="white">
                        <use xlink:href="#path-1"></use>
                    </mask>
                    <g id="path-1"></g>
                    <polygon id="Fill-1" fill="url(#linearGradient-3)" fill-rule="nonzero" mask="url(#mask-2)" points="0 174.94785 155.86263 174.94785 155.86263 0 0 0"></polygon>
                </g>
            </g>
            <g id="XT_TCG" transform="translate(176.000000, 38.170440)" fill-rule="nonzero">
                <g id="THE">
                    <use fill="#000000" xlink:href="#path-4"></use>
                    <use fill="#232323" xlink:href="#path-4"></use>
                </g>
                <g id="CODEERO">
                    <use fill="#000000" xlink:href="#path-5"></use>
                    <use fill="#232323" xlink:href="#path-5"></use>
                </g>
                <g id="GROUP">
                    <use fill="#000000" xlink:href="#path-6"></use>
                    <use fill="#232323" xlink:href="#path-6"></use>
                </g>
            </g>
        </g>
    </g>
</svg>