<?xml version="1.0" encoding="UTF-8"?>
<svg width="58px" height="58px" viewBox="0 0 58 58" version="1.1" xmlns="http://www.w3.org/2000/svg" xmlns:xlink="http://www.w3.org/1999/xlink">
    <!-- Generator: Sketch 60.1 (88133) - https://sketch.com -->
    <title>Group 2</title>
    <desc>Created with Sketch.</desc>
    <g id="Page-1" stroke="none" stroke-width="1" fill="none" fill-rule="evenodd">
        <g id="WEB_DESKTOP" transform="translate(-807.000000, -2938.000000)">
            <g id="Group-24" transform="translate(513.000000, 2546.000000)">
                <g id="Group-3" transform="translate(227.000000, 394.000000)">
                    <g id="Group-2" transform="translate(69.000000, 0.000000)">
                        <path d="M26.91297,53.82531 L26.91297,53.82531 C12.04938,53.82531 2.84217094e-14,41.77593 2.84217094e-14,26.91234 C2.84217094e-14,12.04875 12.04938,-9.66338121e-13 26.91297,-9.66338121e-13 C41.77656,-9.66338121e-13 53.82594,12.04875 53.82594,26.91234 C53.82594,41.77593 41.77656,53.82531 26.91297,53.82531 Z" id="Stroke-8" stroke="#272C2A" stroke-width="2.52"></path>
                        <path d="M39.11355,33.44922 C39.11355,36.59985 36.55953,39.15387 33.40953,39.15387 L20.41578,39.15387 C17.26578,39.15387 14.71176,36.59985 14.71176,33.44922 L14.71176,20.4561 C14.71176,17.30547 17.26578,14.75208 20.41578,14.75208 L33.40953,14.75208 C36.55953,14.75208 39.11355,17.30547 39.11355,20.4561 L39.11355,33.44922 Z M33.44229,12.39966 L20.38302,12.39966 C15.95223,12.39966 12.35934,15.99192 12.35934,20.42334 L12.35934,33.48261 C12.35934,37.91403 15.95223,41.50566 20.38302,41.50566 L33.44229,41.50566 C37.87308,41.50566 41.46597,37.91403 41.46597,33.48261 L41.46597,20.42334 C41.46597,15.99192 37.87308,12.39966 33.44229,12.39966 L33.44229,12.39966 Z" id="Fill-9" fill="#272C2A"></path>
                        <path d="M26.91234,31.95549 C24.14916,31.95549 21.91014,29.71647 21.91014,26.95329 C21.91014,24.19011 24.14916,21.94983 26.91234,21.94983 C29.67615,21.94983 31.91517,24.19011 31.91517,26.95329 C31.91517,29.71647 29.67615,31.95549 26.91234,31.95549 Z M26.91234,19.28241 C22.67622,19.28241 19.24209,22.71654 19.24209,26.95329 C19.24209,31.18941 22.67622,34.62354 26.91234,34.62354 C31.14909,34.62354 34.58322,31.18941 34.58322,26.95329 C34.58322,22.71654 31.14909,19.28241 26.91234,19.28241 L26.91234,19.28241 Z" id="Fill-10" fill="#272C2A"></path>
                        <path d="M36.56394,19.02789 C36.56394,19.97793 35.79408,20.74779 34.84404,20.74779 C33.89337,20.74779 33.12288,19.97793 33.12288,19.02789 C33.12288,18.07722 33.89337,17.30673 34.84404,17.30673 C35.79408,17.30673 36.56394,18.07722 36.56394,19.02789" id="Fill-11" fill="#272C2A"></path>
                    </g>
                </g>
            </g>
        </g>
    </g>
</svg>