<?xml version="1.0" encoding="UTF-8"?>
<svg width="154px" height="173px" viewBox="0 0 154 173" version="1.1" xmlns="http://www.w3.org/2000/svg" xmlns:xlink="http://www.w3.org/1999/xlink">
    <!-- Generator: Sketch 60.1 (88133) - https://sketch.com -->
    <title>CODEERO LABS LOG</title>
    <desc>Created with Sketch.</desc>
    <defs>
        <path d="M130.772341,125.815245 L144.378737,133.708672 L134.277658,139.567925 L111.030476,153.050935 L111.018057,153.074936 L83.7968901,168.864309 L77.0736821,172.764179 L43.1303812,153.074936 L43.1172464,153.052004 L19.871481,139.567925 L9.76969407,133.708315 L22.0975413,126.556736 L69.7018212,152.858741 L70.3515479,153.23595 L70.3514047,153.217146 L77.0803748,156.935568 L83.7961743,153.043309 L83.7968901,153.234169 L104.296853,141.343479 L104.303832,141.355601 L117.429858,133.742295 L117.26315,133.645433 L129.493574,126.556736 L130.772341,125.815245 Z M86.6062048,0 L119.953392,19.3436862 L119.978946,19.3427204 L147.201437,35.1334022 L153.923571,39.0330438 L153.923571,78.4126175 L153.910544,78.4335066 L153.910902,117.120307 L140.535421,109.361872 L140.535707,46.6761955 L86.6049522,15.5530684 L86.6062048,0 Z M67.5404794,0 L67.5404794,15.593845 L54.0355831,23.4326173 L54.0364421,23.4309361 L40.9114896,31.0438988 L40.9150685,31.048191 L20.4182729,42.9460988 L13.6957736,46.6761955 L13.6957736,54.6469195 L13.1633513,109.621554 L0.23717635,117.120307 L0.23717635,39.0384091 L6.95742666,35.140556 L34.1930274,19.3427204 L57.4384348,5.85903066 L67.5404794,0 Z" id="path-1"></path>
        <path d="M29.1216013,1.60820916 L29.2574949,1.61511258 C29.8799857,1.67881713 30.3747787,2.17775865 30.4378402,2.8050035 L30.4446402,2.94128332 L30.4446402,24.2233621 L35.7367601,24.2233621 L35.7367601,17.3122942 C34.606413,16.9095355 33.7171457,16.0135583 33.3176249,14.8746381 C32.5869776,12.7920607 33.6701895,10.5072098 35.736939,9.77101259 C37.8038316,9.03485119 40.0715404,10.1262701 40.8021877,12.2086687 C41.5092496,14.2240719 40.5175878,16.4289077 38.579753,17.2362851 L38.3828379,17.3122942 L38.3828379,24.2235052 L41.0289157,24.2235052 L41.1648093,24.2304444 C41.7872642,24.294292 42.2820572,24.7930905 42.3451545,25.4203353 L42.3519546,25.5565794 L42.3519546,28.2226919 L46.3210355,28.2226919 L46.3210355,23.9777365 C45.1906885,23.5749778 44.3014211,22.6790006 43.9018646,21.5400805 C43.1712173,19.4575031 44.254286,17.1726521 46.3212145,16.4364549 C48.3881071,15.7002935 50.6558159,16.7917124 51.3864274,18.8741468 C52.0935251,20.8895142 51.1018633,23.09435 49.1640284,23.9017274 L48.9671133,23.9777365 L48.9671133,29.5562668 C48.9669702,30.2462505 48.4463012,30.8136896 47.7793238,30.8817937 L47.6440744,30.8886256 L42.3519546,30.8886256 L42.3519546,36.2208507 L50.5339161,36.2208507 C51.0909116,34.6275215 52.5828065,33.5599247 54.2592332,33.5547382 C55.937342,33.5517693 57.4351779,34.6140365 57.9984725,36.2066862 C58.7329135,38.2836121 57.6574679,40.5671396 55.5963374,41.3071641 C53.6015611,42.0234379 51.4147013,41.0317429 50.6098977,39.0846942 L50.534095,38.8868202 L42.3519546,38.8868202 L42.3519546,41.5529327 L42.345083,41.6898564 C42.2816993,42.3170297 41.7866558,42.8155778 41.1641293,42.8791393 L41.0289157,42.8859711 L35.7367601,42.8859711 L35.7367601,45.5520837 L39.7061989,45.5520837 L39.8417704,45.5590229 C40.4642611,45.6228705 40.9590183,46.1216689 41.0221156,46.7489138 L41.0289157,46.8851578 L41.0289157,49.796896 C42.1591195,50.1994759 43.0483511,51.0952742 43.4479077,52.2342301 C44.1787339,54.3164498 43.0956651,56.6014797 41.0289157,57.3376411 C38.9623452,58.0740171 36.6946364,56.9825624 35.9638459,54.9003427 C35.256605,52.8852614 36.2481237,50.6802825 38.1859228,49.8729051 L38.3828379,49.796896 L38.3828379,48.2181962 L34.4137569,48.2181962 L34.2778633,48.2112928 C33.6553726,48.1474452 33.1605796,47.6486467 33.0975181,47.0214019 L33.090718,46.8851578 L33.090718,42.8859711 L30.4446402,42.8859711 L30.4446402,68.2608798 L40.0288433,68.2608798 C40.0847468,68.258376 40.1406504,68.2570526 40.196554,68.2569095 C42.2920784,68.2529034 43.9939873,69.9611941 43.99796,72.0726013 C43.9987832,72.9995902 43.6890231,73.8997167 43.1188211,74.627222 C43.8959235,75.3774048 44.3356719,76.4143833 44.336495,77.4986485 C44.336674,77.5131349 44.3368172,77.5276213 44.3369961,77.5421435 C44.3502741,79.693147 42.6861949,81.4604208 40.5795041,81.584718 L40.3673783,81.5916214 L17.8758243,81.5916214 C15.6847055,81.5892965 13.9090339,79.8001678 13.9067076,77.5924705 C13.8999433,76.4840255 14.3378664,75.4198984 15.1209457,74.6413865 C14.5579733,73.9408867 14.2490363,73.0677301 14.2452426,72.1664234 C14.2222656,70.9116833 14.8174488,69.7267642 15.8345571,69.0024066 C15.5439803,65.6261009 12.8714539,61.7474199 10.4699631,58.2982886 C9.33431918,56.6657923 8.26134311,55.1244354 7.43889514,53.6585867 C2.85920565,45.4922779 0.0148527375,35.9330893 0.0148527375,28.7132635 C0.0148527375,13.5145584 12.8001607,1.60820916 29.1216013,1.60820916 Z M40.3673783,76.1655743 L17.8758243,76.1655743 C17.1454991,76.1662539 16.5534296,76.762809 16.5527854,77.4986485 C16.5521412,77.5141364 16.5516401,77.5296244 16.5509132,77.5451481 C16.5395074,78.2479728 17.0599974,78.8350849 17.738177,78.9161732 L17.8758243,78.9255089 L40.3673783,78.9255089 C41.0977035,78.9248293 41.689773,78.32831 41.6904172,77.5924705 L41.6922898,77.5459708 L41.6922898,77.5459708 C41.7044826,76.7962887 41.1114468,76.1782365 40.3673783,76.1655743 Z M16.8913204,72.0726013 C16.8906404,72.0880893 16.8901752,72.1035773 16.8894483,72.119101 C16.8780424,72.8220688 17.3985325,73.4090735 18.076712,73.490126 L18.2143593,73.4994618 L40.0288433,73.4994618 C40.7591685,73.4988179 41.351238,72.9022628 41.3522195,72.1664234 C41.3527054,72.1212471 41.351059,72.0761067 41.3469432,72.0311093 C41.2896796,71.4043652 40.7716949,70.9318927 40.1610148,70.922092 L40.0288433,70.9271712 L40.0288433,70.9269924 L18.2143593,70.9269924 C18.1885549,70.9243455 18.1627505,70.9223424 18.136803,70.9211621 C17.4772699,70.8925111 16.9195943,71.4080852 16.8913204,72.0726013 Z M27.7985624,4.30297267 C13.5986296,4.91869991 2.66093055,15.4191851 2.66093055,28.7132635 C2.66093055,35.3980211 5.44079037,44.6747779 9.74246525,52.3463659 C10.5015654,53.7002576 11.5383223,55.1894276 12.6366017,56.7672689 C15.0287514,60.2038453 17.6784081,64.0369209 18.3544403,67.8242837 L18.4235503,68.2610587 L27.7989203,68.2610587 L27.7989203,53.493799 C27.4476441,53.4672942 27.0891026,53.4351379 26.7052578,53.3878155 C26.1901362,53.324576 25.7639163,52.9647758 25.6069068,52.47517 L25.5709023,52.3385325 L25.1683752,50.4079375 L24.6707906,50.2810649 L24.1747808,50.1384898 L22.8562156,51.6200052 C22.4778108,52.044583 21.873537,52.1800759 21.3522596,51.9570921 C19.8707796,51.3133935 18.4725106,50.4902419 17.1886615,49.5057723 C16.7748249,49.1906475 16.5851035,48.6647004 16.6921506,48.1619316 L16.7287635,48.0255803 L17.3360078,46.1639836 L16.9662641,45.8022519 L16.6066847,45.4297895 L14.7584315,46.0416537 C14.2207624,46.2176371 13.6313772,46.0318173 13.2893705,45.5782666 C12.3124541,44.2843595 11.4958041,42.875312 10.8571364,41.3824578 C10.6539939,40.9010073 10.7500177,40.3491277 11.0922749,39.9669361 L11.1916987,39.8671049 L12.6632292,38.5392172 L12.5228261,38.0442103 L12.3978126,37.5485953 L10.3403327,37.1346767 C9.76583594,37.0192501 9.34076133,36.5391589 9.28299671,35.9623125 L9.27626824,35.8276065 L9.27626824,31.2819056 C9.27626824,30.6917531 9.66029203,30.1777529 10.2103444,30.0078145 L10.3401537,29.9748355 L12.3976337,29.5609168 L12.5225398,29.0649799 L12.6630503,28.5702949 L11.1920208,27.2424072 C10.7698094,26.8616464 10.6352042,26.2522503 10.8574585,25.7270543 C11.495983,24.2340213 12.3127762,22.8251527 13.2896926,21.5312455 C13.603497,21.1159319 14.1246312,20.9252117 14.6234327,21.0314456 L14.7587536,21.0678584 L16.6070426,21.6797226 L16.9663715,21.3072602 L17.3363657,20.9455285 L16.7290856,19.0812492 C16.5526064,18.5393491 16.7376751,17.9443321 17.1896636,17.6010572 C18.4735128,16.6180898 19.8711375,15.7957609 21.3519375,15.15242 C21.8297662,14.9468199 22.3779217,15.0436466 22.7568991,15.3891392 L22.8558935,15.4895069 L24.1744587,16.9710223 L24.6706475,16.8285545 L25.1680531,16.7015746 L25.5712602,14.7696562 C25.6880063,14.2117674 26.1439674,13.7905161 26.7055799,13.7216966 C26.9611543,13.6901483 27.2055982,13.6653246 27.4442799,13.6444713 L27.7985624,13.6157131 L27.7985624,4.30297267 Z M42.8483939,63.4821797 L44.7952836,64.5672318 C44.5354144,65.0351974 44.2979853,65.5153959 44.083748,66.0061821 L43.8773128,66.5004021 L41.8099191,65.6740314 C42.1094434,64.9218455 42.4563174,64.1897259 42.8483939,63.4821797 Z M46.031425,58.9548282 L47.780648,60.1844227 C47.5104356,60.5767369 47.2407242,60.9728426 46.9762381,61.3720245 L46.5840542,61.9730506 L44.7952836,60.8044065 C45.1948401,60.1800947 45.6126852,59.5622928 46.031425,58.9548282 Z M48.961387,54.427441 L50.7660125,55.5758041 C50.4844189,56.0292833 50.1785956,56.4940654 49.8577049,56.9683263 L49.53209,57.4456992 L47.780648,56.2152104 C48.2007479,55.6020943 48.6016644,55.0047166 48.961387,54.427441 Z M39.7058768,52.2173829 C38.9755516,52.2182056 38.3835179,52.8145819 38.3828379,53.5504571 C38.3828379,54.2866185 38.9752295,54.8834955 39.7058768,54.8834955 C40.4365241,54.8834955 41.0289157,54.2866185 41.0289157,53.5504571 C41.0289157,52.8142599 40.4365241,52.2173829 39.7058768,52.2173829 Z M50.265851,49.9000895 L52.2586947,50.8553001 C52.0381942,51.3195815 51.8109294,51.7799641 51.5768646,52.2364836 L51.220721,52.9183119 L49.2733302,51.8721765 C49.6185222,51.2223614 49.9493624,50.5650349 50.265851,49.9000895 Z M27.7982403,17.0535772 L27.5792787,18.1021091 C27.4686527,18.63335 27.0494118,19.0437633 26.519187,19.1397314 C25.7349624,19.2833797 24.9639801,19.4928428 24.2142926,19.765939 C23.7533567,19.9313705 23.2437468,19.8269967 22.8845253,19.5037166 L22.7814508,19.4002012 L21.5373283,18.0019917 C21.0205962,18.262533 20.5172494,18.5490783 20.0292207,18.8604472 L19.5463099,19.1800789 L20.1200192,20.9413793 C20.2876941,21.4559161 20.1292888,22.0216383 19.7194606,22.372067 C19.109711,22.8947949 18.5429448,23.4663474 18.0249959,24.081395 C17.7071473,24.4557174 17.2146448,24.6212563 16.7435446,24.5225697 L16.60307,24.4849765 L14.8549922,23.9055905 C14.5299141,24.3872556 14.2289225,24.8849094 13.9531268,25.3966562 L13.6857776,25.9130173 L15.0734527,27.1653966 C15.4746914,27.527486 15.618244,28.0982159 15.436468,28.6091042 C15.1660765,29.3651174 14.9582098,30.1424489 14.8151583,30.9329792 C14.7266145,31.4268057 14.3714014,31.8246999 13.902377,31.9698862 L13.7717803,32.0030798 L11.9221671,32.3753276 L11.9221671,34.7341846 L13.7717803,35.1067543 C14.3047967,35.2137393 14.7185618,35.6381382 14.8151583,36.1768906 C14.9582098,36.9668844 15.1660765,37.7437151 15.4366469,38.4992275 C15.601566,38.9635089 15.4982052,39.4772588 15.1770998,39.8391335 L15.0743117,39.9429351 L13.6854555,41.1964948 C13.9440363,41.7176489 14.2285288,42.2252107 14.5378236,42.7171773 L14.8553501,43.2039216 L16.6027478,42.6245357 C17.1140757,42.4570653 17.6752229,42.6163803 18.0246738,43.0281171 C18.5412985,43.6426639 19.1077425,44.2130361 19.7178143,44.733439 C20.0918885,45.0526056 20.2574876,45.5504025 20.1581711,46.02613 L20.1203413,46.167954 L19.5459878,47.9292902 C20.0236375,48.2572202 20.5172852,48.5606842 21.0251415,48.8383588 L21.5376504,49.1073773 L22.7818087,47.7091679 C23.0325158,47.4267002 23.3908783,47.265239 23.7669568,47.265239 C23.9194211,47.265561 24.070919,47.2919227 24.2146505,47.3433943 C24.9643022,47.6163474 25.7352845,47.8258105 26.5195449,47.9696018 C27.0057125,48.0580227 27.3985048,48.4107049 27.5456722,48.8781697 L27.5796008,49.0083688 L27.7985624,50.0576519 L27.7985624,45.4734635 C21.7766184,44.7887736 17.2227333,39.6606463 17.2142869,33.5545951 C17.2225902,27.553812 21.6209331,22.4976876 27.4884086,21.6751084 L27.7985624,21.6357267 L27.7982403,17.0535772 Z M53.1058376,45.372738 L55.2440591,46.1781839 C55.0591336,46.671617 54.8666922,47.1639413 54.6667708,47.6550852 L54.3611981,48.3909604 L52.2586947,47.4936955 C52.5576463,46.7900481 52.8404567,46.0808208 53.1058376,45.372738 Z M27.7985624,24.3296675 C23.7314176,24.9163861 20.5359317,28.1360594 19.9536328,32.2338612 C19.2429561,37.2360102 22.6157802,41.8783589 27.5243057,42.7357772 L27.7985624,42.7795226 L27.7985624,24.3296675 Z M39.7058768,26.8892958 L30.4446402,26.8892958 L30.4446402,40.2198586 L39.7058768,40.2198586 L39.7058768,26.8892958 Z M54.2592332,36.2207076 C53.5285858,36.2207076 52.93623,36.8175846 52.93623,37.553746 C52.93623,38.2899432 53.5285858,38.8868202 54.2592332,38.8868202 C54.9895584,38.8861406 55.5816279,38.2897644 55.5822721,37.553746 C55.5822721,36.8175846 54.9898805,36.2207076 54.2592332,36.2207076 Z M58.2279562,28.7723896 L58.2294236,29.0551434 C58.2294236,29.7088573 58.2064824,30.3898987 58.1609936,31.08768 L58.107989,31.7906478 L55.2440591,31.5522475 C55.2998195,30.9037201 55.3346787,30.2684273 55.3486009,29.6575288 L55.3555799,29.0551434 L55.3541483,28.7945664 L58.2279562,28.7723896 Z M57.7504138,22.735909 C57.9077813,23.4074717 58.0370896,24.0852223 58.1379808,24.7672295 L58.2294236,25.4506316 L55.6726769,25.7541314 C55.5995227,25.1402284 55.5008146,24.5296519 55.3766601,23.9240831 L55.2440591,23.3203027 L57.7504138,22.735909 Z M47.6440744,18.8909582 C46.9137492,18.8917809 46.3217155,19.4881571 46.3210355,20.2240323 C46.3210355,20.9601937 46.9134271,21.5570707 47.6440744,21.5570707 C48.3747217,21.5570707 48.9671133,20.9601937 48.9671133,20.2240323 C48.9671133,19.4878352 48.3747217,18.8909582 47.6440744,18.8909582 Z M55.7922504,16.6994285 C56.0595997,17.2495554 56.303793,17.8106992 56.5242219,18.3812144 L56.7367414,18.9548058 L54.5983408,19.7176509 C54.4145606,19.2009322 54.2095212,18.6920469 53.983867,18.19239 L53.7513769,17.6958808 L55.7922504,16.6994285 Z M53.9237045,12.1720412 C54.2782733,12.6223727 54.6148399,13.0866898 54.9325811,13.5638838 L55.2440591,14.0453343 L53.4472358,15.1902994 C53.172478,14.7534528 52.8806128,14.3279093 52.5723559,13.9145987 L52.2586947,13.5053658 L53.9237045,12.1720412 Z M37.059799,12.2256589 C36.3295095,12.2265174 35.7374401,12.8228936 35.7367601,13.5587331 C35.7367601,14.2949303 36.3291516,14.8918072 37.059799,14.8918072 C37.7904463,14.8918072 38.3828379,14.2949303 38.3828379,13.5587331 C38.3828379,12.8225359 37.7904463,12.2256589 37.059799,12.2256589 Z M50.6077503,7.64468973 C51.0395176,8.00627836 51.4573984,8.38428496 51.860534,8.77806567 L52.2586947,9.17706866 L50.7657261,10.6629479 C50.4104773,10.2974962 50.0414494,9.94599445 49.6595014,9.60922949 L49.2733302,9.27743642 L50.6077503,7.64468973 Z M45.8174382,4.62646733 C46.3235408,4.90485731 46.8213759,5.20241947 47.3037141,5.51468267 L47.780648,5.83163162 L46.5810121,7.64468973 C46.1528238,7.35195639 45.7077785,7.07124143 45.2529984,6.80694443 L44.7952836,6.54833469 L45.8174382,4.62646733 Z M39.5185891,1.60820916 C40.1050038,1.79846437 40.6854416,2.00925098 41.2504541,2.23831554 L41.8099191,2.47331774 L40.9132791,4.62646733 C40.4091807,4.40791886 39.8880107,4.2041072 39.3576785,4.01846619 L38.8245547,3.83901321 L39.5185891,1.60820916 Z M33.178725,0.0990800779 C33.8492813,0.188645607 34.5205535,0.301139053 35.1817687,0.434915042 L35.8391903,0.575701752 L35.2898537,3.11733825 C34.6918073,2.98105843 34.0812704,2.8647377 33.4678344,2.76952067 L32.8538258,2.68138591 L33.178725,0.0990800779 Z" id="path-3"></path>
    </defs>
    <g id="DESKTOP" stroke="none" stroke-width="1" fill="none" fill-rule="evenodd">
        <g id="CODEERO-LABS-LOG">
            <g id="Group-3">
                <mask id="mask-2" fill="white">
                    <use xlink:href="#path-1"></use>
                </mask>
                <g id="Clip-2"></g>
                <polygon id="Fill-1" fill="#FFFFFF" mask="url(#mask-2)" points="0.23717635 172.764179 154.848805 172.764179 154.848805 0 0.23717635 0"></polygon>
            </g>
            <g id="Group-6" transform="translate(47.958237, 45.426606)">
                <mask id="mask-4" fill="white">
                    <use xlink:href="#path-3"></use>
                </mask>
                <g id="Clip-5"></g>
                <polygon id="Fill-4" fill="#FFFFFF" mask="url(#mask-4)" points="-495.687745 183.137184 338.570835 183.137184 338.570835 -333.009215 -495.687745 -333.009215"></polygon>
            </g>
        </g>
    </g>
</svg>