<?xml version="1.0" encoding="UTF-8"?>
<svg width="623px" height="589px" viewBox="0 0 623 589" version="1.1" xmlns="http://www.w3.org/2000/svg" xmlns:xlink="http://www.w3.org/1999/xlink">
    <!-- Generator: Sketch 60.1 (88133) - https://sketch.com -->
    <title>ICON_COLOR</title>
    <desc>Created with Sketch.</desc>
    <defs>
        <path d="M356.065183,342.766775 L393.112497,364.27136 L365.609415,380.234108 L302.312297,416.966762 L302.278483,417.032149 L228.161053,460.048179 L209.855193,470.672854 L117.434826,417.032149 L117.399063,416.969676 L54.1058032,380.234108 L26.6007926,364.270385 L60.1668905,344.786868 L189.783188,416.443155 L191.552255,417.470811 L191.551865,417.419582 L209.873415,427.549924 L228.159104,416.945986 L228.161053,417.465958 L283.978079,385.071368 L283.997081,385.104393 L319.73645,364.362961 L319.282538,364.099072 L352.583374,344.786868 L356.065183,342.766775 Z M235.810218,0 L326.607494,52.6992807 L326.677072,52.6966497 L400.798107,95.7162459 L419.101044,106.340297 L419.101044,213.624668 L419.065573,213.681578 L419.066548,319.07858 L382.647968,297.941763 L382.648747,127.163039 L235.806807,42.3722506 L235.810218,0 Z M183.898316,0 L183.898316,42.4833411 L147.127364,63.8390255 L147.129703,63.8344455 L111.393258,84.574942 L111.403002,84.5866357 L55.5946009,117.000891 L37.2906696,127.163039 L37.2906696,148.878209 L35.8409972,298.649234 L0.645780599,319.07858 L0.645780599,106.354914 L18.9435884,95.7357355 L93.1003183,52.6966497 L156.392603,15.9621439 L183.898316,0 Z" id="path-1"></path>
        <linearGradient x1="32.0522647%" y1="16.3246832%" x2="69.2497573%" y2="87.3372671%" id="linearGradient-3">
            <stop stop-color="#346AB3" offset="0%"></stop>
            <stop stop-color="#36C6F5" offset="100%"></stop>
        </linearGradient>
        <path d="M79.2919072,4.38135035 L79.6619165,4.40015777 C81.356826,4.5737123 82.7040418,5.9330116 82.8757448,7.64185615 L82.8942599,8.01313225 L82.8942599,65.9933039 L97.3035731,65.9933039 L97.3035731,47.1650255 C94.2258794,46.0677633 91.804594,43.6267935 90.7167842,40.5239582 C88.7273875,34.8502552 91.6767425,28.6254849 97.3040603,26.6198144 C102.931768,24.6142413 109.106255,27.5876659 111.095652,33.2608817 C113.020831,38.7515777 110.320747,44.7583573 105.044436,46.957949 L104.508278,47.1650255 L104.508278,65.9936937 L111.712984,65.9936937 L112.082993,66.0125986 C113.777805,66.1865429 115.125021,67.5454524 115.296821,69.254297 L115.315336,69.6254756 L115.315336,76.888942 L126.122297,76.888942 L126.122297,65.3241299 C123.044603,64.2268677 120.623318,61.7858979 119.535411,58.6830626 C117.546014,53.0093596 120.494979,46.7845893 126.122784,44.7789188 C131.750492,42.7733457 137.924979,45.7467703 139.914278,51.4200835 C141.839555,56.9106821 139.139471,62.9174617 133.86316,65.1170534 L133.327002,65.3241299 L133.327002,80.5220882 C133.326613,82.4018561 131.908942,83.947768 130.092905,84.1333086 L129.72465,84.1519211 L115.315336,84.1519211 L115.315336,98.6788538 L137.593072,98.6788538 C139.109652,94.3380418 143.171763,91.4295174 147.736316,91.4153875 C152.305448,91.4072993 156.383735,94.3013039 157.917466,98.6402645 C159.917193,104.298571 156.988984,110.519735 151.376965,112.535833 C145.945615,114.487225 139.991262,111.785485 137.799954,106.481012 L137.593559,105.94193 L115.315336,105.94193 L115.315336,113.205397 L115.296626,113.578427 C115.124046,115.287077 113.776148,116.645304 112.081142,116.818469 L111.712984,116.837081 L97.3035731,116.837081 L97.3035731,124.100548 L108.111508,124.100548 L108.48064,124.119452 C110.17555,124.293397 111.522668,125.652306 111.694469,127.361151 L111.712984,127.732329 L111.712984,135.66497 C114.790288,136.761745 117.211476,139.202227 118.299383,142.30516 C120.289267,147.977889 117.340302,154.203146 111.712984,156.208719 C106.086153,158.214877 99.9116659,155.241355 97.9218794,149.568626 C95.9962135,144.078807 98.6959072,138.071638 103.972121,135.872046 L104.508278,135.66497 L104.508278,131.364014 L93.7013179,131.364014 L93.3313086,131.345206 C91.6363991,131.171262 90.2891833,129.812353 90.1174803,128.103508 L90.0989652,127.732329 L90.0989652,116.837081 L82.8942599,116.837081 L82.8942599,185.967619 L108.99,185.967619 C109.142213,185.960798 109.294427,185.957193 109.44664,185.956803 C115.152306,185.945889 119.786241,190.599898 119.797058,196.352144 C119.799299,198.877601 118.955889,201.329875 117.40335,203.311865 C119.519234,205.355638 120.716575,208.180747 120.718817,211.134682 C120.719304,211.174148 120.719694,211.213615 120.720181,211.253179 C120.756334,217.113299 116.225401,221.928 110.489332,222.266631 L109.911759,222.285439 L48.6720557,222.285439 C42.7061067,222.279104 37.8713318,217.404863 37.8649977,211.390288 C37.84658,208.370478 39.0389513,205.471406 41.171109,203.350455 C39.6382552,201.442037 38.7970858,199.063239 38.7867564,196.607749 C38.7241949,193.189378 40.3447517,189.961225 43.1141206,187.98781 C42.322942,178.789517 35.0462227,168.222571 28.5074756,158.825875 C25.4153596,154.378357 22.4938747,150.179137 20.2545244,146.185629 C7.78500696,123.937615 0.0404408353,97.8948863 0.0404408353,78.2254385 C0.0404408353,36.8186032 34.8521067,4.38135035 79.2919072,4.38135035 Z M109.911759,207.5029 L48.6720557,207.5029 C46.683536,207.504752 45.0714571,209.129986 45.069703,211.134682 C45.067949,211.176877 45.0665847,211.219072 45.0646056,211.261364 C45.0335499,213.176116 46.4507332,214.775624 48.2972715,214.996538 L48.6720557,215.021972 L109.911759,215.021972 C111.900278,215.020121 113.512357,213.394984 113.514111,211.390288 L113.51921,211.263606 L113.51921,211.263606 C113.552408,209.221197 111.937698,207.537397 109.911759,207.5029 Z M45.9914617,196.352144 C45.9896102,196.394339 45.9883434,196.436534 45.9863643,196.478826 C45.9553086,198.393968 47.3724919,199.993183 49.2190302,200.214 L49.5938144,200.239434 L108.99,200.239434 C110.97852,200.23768 112.590599,198.612445 112.593271,196.607749 C112.594594,196.484673 112.590111,196.361694 112.578905,196.239104 C112.422988,194.531624 111.012626,193.244436 109.349875,193.217735 L108.99,193.231573 L108.99,193.231086 L49.5938144,193.231086 C49.5235545,193.223875 49.4532947,193.218418 49.382645,193.215202 C47.586877,193.137146 46.0684455,194.541759 45.9914617,196.352144 Z M75.6895545,11.7228724 C37.0261671,13.4003387 7.24514617,42.0075035 7.24514617,78.2254385 C7.24514617,96.4371647 14.8141114,121.710445 26.5266543,142.610659 C28.593522,146.299155 31.4163898,150.3562 34.4067703,154.654817 C40.9200835,164.017309 48.1345336,174.460009 49.9752251,184.778172 L50.1633968,185.968107 L75.690529,185.968107 L75.690529,145.736687 C74.7340789,145.664478 73.7578469,145.576872 72.7127193,145.447949 C71.3101531,145.275661 70.1496473,144.295434 69.7221439,142.961568 L69.6241114,142.589318 L68.528116,137.329671 L67.1732993,136.984023 L65.8227703,136.595596 L62.2325986,140.631787 C61.2022831,141.788492 59.5569745,142.157624 58.1376473,141.550135 C54.1038933,139.796464 50.2967053,137.553898 46.801058,134.871842 C45.6742691,134.013327 45.1576984,132.580455 45.4491647,131.210729 L45.5488538,130.839258 L47.2022506,125.767587 L46.1955174,124.782097 L45.2164594,123.767374 L40.1840603,125.434316 C38.7201021,125.913759 37.1153318,125.407517 36.1841206,124.171879 C33.5241856,120.646803 31.3006218,116.808042 29.5616659,112.740961 C29.0085522,111.429313 29.2700046,109.925791 30.2018979,108.884561 L30.4726079,108.612585 L34.4792715,104.994933 L34.0969838,103.646353 L33.7565986,102.296116 L28.1545197,101.16845 C26.5902877,100.853986 25.4329002,99.5460418 25.2756195,97.9745012 L25.2572993,97.6075128 L25.2572993,85.2233596 C25.2572993,83.6155684 26.3029142,82.2152436 27.8005893,81.7522691 L28.1540325,81.6624223 L33.7561114,80.5347564 L34.0962042,79.1836427 L34.4787842,77.8359397 L30.4734849,74.2182877 C29.3238933,73.1809559 28.9573921,71.5207378 29.5625429,70.0899118 C31.301109,66.0223434 33.5250626,62.1840696 36.1849977,58.658993 C37.03942,57.5275267 38.4583573,57.007935 39.8164872,57.297355 L40.1849374,57.3965568 L45.2174339,59.0634988 L46.1958097,58.0487749 L47.2032251,57.0632854 L45.5497309,51.9843063 C45.0692158,50.5079722 45.5731183,48.8869281 46.8037865,47.9517216 C50.2994339,45.2737587 54.1048677,43.0334339 58.1367703,41.2807378 C59.4377958,40.7206079 60.9303063,40.9843991 61.962181,41.9256473 L62.2317216,42.1990858 L65.8218933,46.2352761 L67.1729095,45.8471415 L68.527239,45.5012019 L69.6250858,40.237949 C69.9429606,38.7180557 71.1844455,37.570413 72.7135963,37.3829234 C73.409471,37.2969745 74.0750394,37.2293457 74.7249188,37.1725336 L75.6895545,37.0941856 L75.6895545,11.7228724 Z M116.667035,172.948691 L121.968,175.90477 C121.260432,177.17968 120.613963,178.487916 120.03064,179.824998 L119.468561,181.171434 L113.83949,178.920097 C114.65503,176.870868 115.599494,174.876306 116.667035,172.948691 Z M125.333749,160.614529 L130.09651,163.964394 C129.36078,165.033202 128.626413,166.112339 127.906274,167.199856 L126.838441,168.837271 L121.968,165.653457 C123.055907,163.952603 124.19361,162.269485 125.333749,160.614529 Z M133.311411,148.280269 L138.225021,151.408831 C137.458302,152.644274 136.62561,153.91051 135.751893,155.202571 L134.865313,156.503109 L130.09651,153.150807 C131.240353,151.480455 132.331963,149.852979 133.311411,148.280269 Z M108.110631,142.259262 C106.122111,142.261503 104.51013,143.886251 104.508278,145.891044 C104.508278,147.896617 106.121234,149.522729 108.110631,149.522729 C110.100028,149.522729 111.712984,147.896617 111.712984,145.891044 C111.712984,143.885374 110.100028,142.259262 108.110631,142.259262 Z M136.863188,135.946107 L142.289276,138.54845 C141.6889,139.813323 141.070107,141.067573 140.432798,142.311299 L139.463095,144.168849 L134.160766,141.318794 C135.10065,139.548459 136.001457,137.757661 136.863188,135.946107 Z M75.6886775,46.4601856 L75.0924919,49.3167703 C74.7912807,50.764065 73.6497773,51.882181 72.2060882,52.1436334 C70.0708121,52.5349838 67.9715916,53.1056381 65.9303527,53.849652 C64.6753225,54.300348 63.2877633,54.0159954 62.3096798,53.1352622 L62.0290302,52.8532483 L58.6415499,49.0440139 C57.2345986,49.7538237 55.8640928,50.534478 54.5352947,51.382761 L53.2204316,52.2535545 L54.7825197,57.0519814 C55.2390626,58.453768 54.8077587,59.9950023 53.691884,60.9496984 C52.0316659,62.3738005 50.4884826,63.9309188 49.0782181,65.6065336 C48.2127842,66.6263248 46.8718051,67.0773132 45.5890998,66.8084548 L45.2066172,66.7060371 L40.4469745,65.1275777 C39.5618561,66.4398097 38.7423202,67.7956009 37.9913875,69.1897865 L37.2634524,70.5965429 L41.0417958,74.0084826 C42.1342831,74.9949466 42.5251462,76.5498237 42.0302088,77.9416705 C41.2939907,80.0013271 40.7280139,82.1190626 40.3385151,84.2727564 C40.0974292,85.6181206 39.1302599,86.7021299 37.8532065,87.0976705 L37.4976195,87.1881021 L32.4615174,88.2022413 L32.4615174,94.6286311 L37.4976195,95.6436473 C38.9489095,95.9351137 40.0755035,97.0913318 40.3385151,98.5590905 C40.7280139,100.711323 41.2939907,102.827694 42.0306961,104.885986 C42.4797355,106.150858 42.1983063,107.550501 41.3240046,108.536381 L41.0441346,108.819174 L37.2625754,112.234329 C37.9666357,113.654144 38.7412483,115.036928 39.5833921,116.377225 L40.447949,117.703295 L45.2057401,116.124835 C46.5979768,115.668585 48.1258608,116.102617 49.0773411,117.224339 C50.484,118.898589 52.0263063,120.452492 53.6874014,121.87026 C54.7059258,122.739787 55.1568167,124.095968 54.8863991,125.392023 L54.7833968,125.778404 L53.2195545,130.576928 C54.5200928,131.470329 55.8641903,132.297077 57.2469745,133.053564 L58.6424269,133.786469 L62.0300046,129.977234 C62.7126265,129.207689 63.6883712,128.76781 64.7123527,128.76781 C65.1274803,128.768687 65.5399768,128.840506 65.9313271,128.980733 C67.9724687,129.724357 70.0716891,130.295012 72.2070626,130.686752 C73.5307935,130.927643 74.6002831,131.888478 75.0009884,133.162023 L75.0933689,133.516733 L75.6895545,136.375364 L75.6895545,123.886357 C59.2930858,122.021012 46.8938283,108.050116 46.8708306,91.4149977 C46.8934385,75.0666682 58.8691879,61.291935 74.8450719,59.0509281 L75.6895545,58.9436381 L75.6886775,46.4601856 Z M144.595865,123.611944 L150.417787,125.806274 C149.914274,127.150566 149.390297,128.491838 148.845954,129.829893 L148.013944,131.834687 L142.289276,129.390209 C143.103258,127.473216 143.87329,125.541021 144.595865,123.611944 Z M75.6895545,66.2829188 C64.615587,67.881355 55.9149606,76.6529234 54.3294849,87.8168353 C52.394464,101.44452 61.5779443,114.091977 74.9428121,116.427898 L75.6895545,116.547077 L75.6895545,66.2829188 Z M108.110631,73.2562831 L82.8942599,73.2562831 L82.8942599,109.573615 L108.110631,109.573615 L108.110631,73.2562831 Z M147.736316,98.678464 C145.746919,98.678464 144.13406,100.304575 144.13406,102.310148 C144.13406,104.315819 145.746919,105.94193 147.736316,105.94193 C149.724835,105.940079 151.336914,104.315332 151.338668,102.310148 C151.338668,100.304575 149.725712,98.678464 147.736316,98.678464 Z M158.542302,78.3865197 L158.546297,79.1568445 C158.546297,80.9378005 158.483833,82.7932065 158.359977,84.6942181 L158.215657,86.6093596 L150.417787,85.9598701 C150.56961,84.1930441 150.664524,82.4622738 150.702432,80.7979629 L150.721434,79.1568445 L150.717536,78.4469374 L158.542302,78.3865197 Z M157.242056,61.9409374 C157.670534,63.7705197 158.022613,65.6169606 158.297318,67.4749977 L158.546297,69.3368353 L151.584821,70.1636798 C151.385638,68.4911833 151.116877,66.8277494 150.778831,65.1779582 L150.417787,63.5330394 L157.242056,61.9409374 Z M129.72465,51.465884 C127.73613,51.4681253 126.124148,53.0928724 126.122297,55.0976659 C126.122297,57.103239 127.735253,58.7293503 129.72465,58.7293503 C131.714046,58.7293503 133.327002,57.103239 133.327002,55.0976659 C133.327002,53.0919954 131.714046,51.465884 129.72465,51.465884 Z M151.910394,45.495355 C152.638329,46.9941021 153.303216,48.5228631 153.903397,50.0771555 L154.482042,51.6398283 L148.659633,53.7180974 C148.159239,52.3103666 147.600961,50.9239768 146.986552,49.5627285 L146.353531,48.2100557 L151.910394,45.495355 Z M146.822742,33.1610951 C147.788158,34.3879629 148.704557,35.6529327 149.569698,36.9529838 L150.417787,38.2646311 L145.52542,41.383935 C144.777313,40.1938051 143.982626,39.0344687 143.143309,37.9084594 L142.289276,36.7935592 L146.822742,33.1610951 Z M100.905926,33.3071694 C98.9175035,33.3095081 97.3054246,34.9342552 97.3035731,36.9389513 C97.3035731,38.9446218 98.916529,40.5707332 100.905926,40.5707332 C102.895323,40.5707332 104.508278,38.9446218 104.508278,36.9389513 C104.508278,34.9332807 102.895323,33.3071694 100.905926,33.3071694 Z M137.794107,20.8269327 C138.969717,21.8120325 140.107517,22.8418608 141.205169,23.9146636 L142.289276,25.0016937 L138.224241,29.0497726 C137.256974,28.0541485 136.25219,27.096529 135.212227,26.179058 L134.160766,25.2751323 L137.794107,20.8269327 Z M124.751109,12.6041903 C126.129118,13.3626265 127.484617,14.1732947 128.797921,15.0240139 L130.09651,15.8874988 L126.830158,20.8269327 C125.664292,20.02942 124.452529,19.2646497 123.21426,18.5446079 L121.968,17.8400603 L124.751109,12.6041903 Z M107.600687,4.38135035 C109.197369,4.89967517 110.777777,5.47393503 112.316186,6.09799072 L113.83949,6.73822274 L111.39813,12.6041903 C110.025578,12.0087842 108.606543,11.4535267 107.162561,10.9477726 L105.710979,10.458877 L107.600687,4.38135035 Z M90.3385893,0.269930394 C92.1643712,0.513939675 93.9921021,0.820412993 95.7924501,1.18486775 L97.5824687,1.56842227 L96.0867425,8.4927703 C94.4583898,8.1214942 92.7960278,7.80459397 91.1257726,7.54518794 L89.4539582,7.30507657 L90.3385893,0.269930394 Z" id="path-4"></path>
        <linearGradient x1="61.3533668%" y1="56.5588124%" x2="66.3963372%" y2="62.1353631%" id="linearGradient-6">
            <stop stop-color="#346AB3" offset="0%"></stop>
            <stop stop-color="#36C6F5" offset="100%"></stop>
        </linearGradient>
    </defs>
    <g id="ICON_COLOR" stroke="none" stroke-width="1" fill="none" fill-rule="evenodd">
        <g id="Labs" transform="translate(102.000000, 59.000000)">
            <g id="Group-3">
                <mask id="mask-2" fill="white">
                    <use xlink:href="#path-1"></use>
                </mask>
                <g id="Clip-2"></g>
                <polygon id="Fill-1" fill="url(#linearGradient-3)" mask="url(#mask-2)" points="0.645780599 470.672854 421.620259 470.672854 421.620259 0 0.645780599 0"></polygon>
            </g>
            <g id="Group-6" transform="translate(130.580046, 123.758701)">
                <mask id="mask-5" fill="white">
                    <use xlink:href="#path-4"></use>
                </mask>
                <g id="Clip-5"></g>
                <polygon id="Fill-4" fill="url(#linearGradient-6)" mask="url(#mask-5)" points="-1349.65197 498.932715 921.856148 498.932715 921.856148 -907.238979 -1349.65197 -907.238979"></polygon>
            </g>
        </g>
    </g>
</svg>