<svg viewBox="0 0 391 434" version="1.1" xmlns="http://www.w3.org/2000/svg" xmlns:xlink="http://www.w3.org/1999/xlink">
    <defs>
        <style>
        #heroLogo {
        fill:none;
            stroke-dasharray: 5000;
            stroke-dashoffset: 0;
            -webkit-animation: dash 5s linear forwards;
            -o-animation: dash 5s linear forwards;
            -moz-animation: dash 5s linear forwards;
            animation: dash 5s linear forwards;
        }

        @-webkit-keyframes dash {
            from {
                stroke-dashoffset: 5000;
            }

            to {
                stroke-dashoffset: 0;
            }

        }
        </style>
    </defs>
    <g>
            <path id="heroLogo" stroke="#ffffff" d="M303.986 49.864 218.99875 1.13699112 218.996008 76.4173017 218.997859 147.016626 254.16008 126.856982 254.159 61.45 286.156 79.795 286.138695 79.823397 337.705 109.388 195.381 190.987 101.376635 137.091608 53.06 109.387 104.651144 79.8088313 104.631 79.781 136.602 61.452 136.602821 126.85518 171.765914 147.015698 171.768339 76.4173371 171.76413 1.13699112 0.5 99.3265277 0.5 295.724418 127.721293 222.784584 92.5528885 202.62198 35.514 235.324 35.511 198.61 35.5494373 198.609699 35.547 139.508 111.228046 182.896159 177.873 221.108 177.874534 300.627642 177.877245 328.896896 177.877 384.306 126.366691 354.772209 126.345 354.802 94.299 336.427 151.331646 303.72611 151.331646 263.401161 24.1103567 336.340109 109.114 385.076 109.147126 385.13361 195.383088 434.576351 281.631853 385.127827 281.662 385.068 366.658459 336.340993 301.00237 298.696296 239.436372 263.401829 239.435723 303.727068 296.472 336.425 264.452 354.782 264.434936 354.751343 212.891 384.302 212.891 221.108 355.219 139.507 355.219153 198.573789 355.251 198.576 355.251 235.324 298.213287 202.621981 263.044882 222.784585 390.267981 295.724411 390.267 198.268 390.3 198.216417 390.3 99.3131894 304.050606 49.8619583z"></path>
        </g>
</svg>