<svg viewBox="0 0 389 434" version="1.1" xmlns="http://www.w3.org/2000/svg" xmlns:xlink="http://www.w3.org/1999/xlink">
    <defs>
        <polygon id="path-1" points="218.498719 0 302.861344 48.3692098 302.925967 48.3668478 371.794157 87.8517128 388.8 97.6028548 388.8 196.072134 388.76709 196.124409 388.767973 292.861399 323.865706 255.651403 263.050161 220.784587 297.213283 201.198327 354.751496 234.186906 354.751496 196.11608 354.719153 196.113407 354.719153 136.644656 278.292096 180.46332 211.391642 218.818769 211.391074 326.895977 211.391642 383.164846 263.253044 353.431968 263.270697 353.462239 296.477218 334.425085 238.935728 301.437377 238.936358 262.264795 299.753669 297.130056 364.653224 334.340985 339.099256 348.992126 280.287888 382.706664 280.256491 382.766684 211.391642 422.248305 194.383088 432 108.512396 382.766684 108.479171 382.709337 49.6713961 348.992126 24.1156248 334.340115 89.0143353 297.132481 149.831646 262.264173 149.831646 301.436444 92.2949468 334.427758 125.492201 353.462239 125.513132 353.432527 177.377245 383.169302 177.377245 326.896848 177.374534 298.627636 177.373652 218.818769 110.476728 180.462388 34.0479307 136.645588 34.0494249 196.117012 34.0114206 196.117572 34.0147116 234.186906 91.5528924 201.198327 125.716015 220.784587 64.8980737 255.652894 0 292.861399 0 97.6162188 17.0010764 87.8695522 85.9024355 48.3668478 144.709327 14.6505196 170.264178 0 170.268339 74.4173199 170.265944 144.152692 136.102821 124.5655 136.102821 58.5895225 102.89901 77.6258059 102.918492 77.6525339 51.0546875 107.3875 100.127939 135.525371 124.783057 149.661283 194.382205 189.563043 261.282659 151.207594 337.709717 107.388992 285.845919 77.6525339 285.863887 77.6248735 252.65913 58.5877199 252.660076 124.567302 218.497836 144.153624 218.496008 74.4173199"></polygon>
        <linearGradient x1="31.989342%" y1="16.4344899%" x2="69.7996701%" y2="87.3450431%" id="linearGradient-3">
            <stop stop-color="#346AB3" offset="0%"></stop>
            <stop stop-color="#36C6F5" offset="100%"></stop>
        </linearGradient>
    </defs>
    <g id="Artboard" stroke="none" stroke-width="1" fill="none" fill-rule="evenodd">
        <g id="logo_color" transform="translate(0.000000, 2.000000)">
            <mask id="mask-2" fill="white">
                <use xlink:href="#path-1"></use>
            </mask>
            <g id="path-1"></g>
            <polygon id="Fill-1" fill="url(#linearGradient-3)" fill-rule="nonzero" mask="url(#mask-2)" points="0 432 388.8 432 388.8 0 0 0"></polygon>
        </g>
    </g>
</svg>