<?xml version="1.0" encoding="UTF-8"?>
<svg width="20px" height="22px" viewBox="0 0 20 22" version="1.1" xmlns="http://www.w3.org/2000/svg" xmlns:xlink="http://www.w3.org/1999/xlink">
    <!-- Generator: Sketch 60.1 (88133) - https://sketch.com -->
    <title>Fill 37</title>
    <desc>Created with Sketch.</desc>
    <g id="Page-1" stroke="none" stroke-width="1" fill="none" fill-rule="evenodd">
        <g id="WEB_DESKTOP" transform="translate(-92.000000, -2847.000000)" fill="#232323">
            <g id="CONTACT-DETAILS" transform="translate(92.000000, 2844.000000)">
                <g id="Group-17">
                    <path d="M0,9.50408253 C0.0288165401,7.48692472 0.829275986,5.75473048 2.30852504,4.4259678 C2.87845217,3.87845354 3.68851713,2.88588383 4.56261884,3.0107555 C5.4911518,3.11321431 6.15713406,4.1378024 6.62780422,4.84220671 C7.41545631,6.09092345 8.71220061,7.8999618 7.51151144,9.29916491 C6.95439167,9.9587435 6.06428077,10.3077438 5.54558304,11.0121481 C5.01727981,11.745369 5.3214544,12.712324 5.68646391,13.442343 C6.51894173,15.0784821 7.92775036,16.66019 9.3461645,17.8192553 C9.98333022,18.3475585 10.8446246,18.968715 11.7059189,18.8278342 C12.6024335,18.6805496 13.3100397,17.6943836 13.9696183,17.1372638 C15.6601886,15.7700791 17.5236582,17.6399523 18.7659713,18.7541919 C19.3583113,19.2824951 20.033899,19.9740921 19.9986788,20.8097718 C19.9666604,21.6806716 18.8364117,22.3850759 18.2312644,22.8909663 C16.5759142,24.2325363 14.5203344,24.693601 12.4135251,24.2549492 C10.1754405,23.7714717 8.28315435,22.442709 6.58938216,20.9346434 C4.86999527,19.4169723 3.4067554,17.5823193 2.13882764,15.6740239 C1.559295,14.7679038 1.03099177,13.8361691 0.669184097,12.8147828 C0.27535805,11.7293598 0.140880863,10.6567441 0,9.50408253 C0.0128073511,8.38664114 0.0736422691,10.1092299 0,9.50408253" id="Fill-37"></path>
                </g>
            </g>
        </g>
    </g>
</svg>