<?xml version="1.0" encoding="UTF-8"?>
<svg width="58px" height="58px" viewBox="0 0 58 58" version="1.1" xmlns="http://www.w3.org/2000/svg" xmlns:xlink="http://www.w3.org/1999/xlink">
    <!-- Generator: Sketch 60.1 (88133) - https://sketch.com -->
    <title>Group 4</title>
    <desc>Created with Sketch.</desc>
    <g id="Page-1" stroke="none" stroke-width="1" fill="none" fill-rule="evenodd">
        <g id="WEB_DESKTOP" transform="translate(-876.000000, -2938.000000)">
            <g id="Group-24" transform="translate(513.000000, 2546.000000)">
                <g id="Group-3" transform="translate(227.000000, 394.000000)">
                    <g id="Group-4" transform="translate(138.000000, 0.000000)">
                        <path d="M26.91234,53.82531 L26.91234,53.82531 C12.04938,53.82531 -3.97903932e-13,41.77593 -3.97903932e-13,26.91297 C-3.97903932e-13,12.04938 12.04938,-5.68434189e-14 26.91234,-5.68434189e-14 C41.77656,-5.68434189e-14 53.82594,12.04938 53.82594,26.91297 C53.82594,41.77593 41.77656,53.82531 26.91234,53.82531 Z" id="Stroke-6" stroke="#272C2A" stroke-width="2.52"></path>
                        <path d="M42.01974,19.21689 C40.99599,19.67049 39.89475,19.97793 38.74059,20.11527 C39.91932,19.40841 40.824,18.29079 41.25114,16.95708 C40.14801,17.61165 38.92581,18.08667 37.62612,18.34245 C36.5841,17.23302 35.10045,16.54002 33.45804,16.54002 C30.30552,16.54002 27.74898,19.09656 27.74898,22.24845 C27.74898,22.69575 27.80001,23.13171 27.89766,23.55003 C23.15313,23.31189 18.94662,21.03885 16.13115,17.58456 C15.63912,18.4275 15.35751,19.40841 15.35751,20.45484 C15.35751,22.43493 16.36614,24.18318 17.89704,25.20693 C16.96149,25.17669 16.08075,24.92028 15.31152,24.49188 C15.31089,24.51582 15.31089,24.54039 15.31089,24.56433 C15.31089,27.33066 17.27964,29.63709 19.89099,30.16125 C19.41219,30.29229 18.90756,30.36222 18.38718,30.36222 C18.01863,30.36222 17.66142,30.32694 17.31303,30.26016 C18.03942,32.52753 20.1474,34.17813 22.64535,34.22412 C20.69109,35.75628 18.23031,36.66852 15.5547,36.66852 C15.09543,36.66852 14.63994,36.64143 14.1939,36.58851 C16.71957,38.20824 19.72089,39.15387 22.94397,39.15387 C33.44481,39.15387 39.18789,30.45546 39.18789,22.90995 C39.18789,22.66299 39.18159,22.41666 39.17088,22.17159 C40.28661,21.36708 41.25429,20.3616 42.01974,19.21689" id="Fill-7" fill="#272C2A"></path>
                    </g>
                </g>
            </g>
        </g>
    </g>
</svg>